<svg width="96" height="96" viewBox="0 0 96 96" fill="none" xmlns="http://www.w3.org/2000/svg">
<g clip-path="url(#clip0_189_1879)">
<path d="M96.0001 48C96.0001 74.5097 74.5097 96 48.0001 96C21.4904 96 5.4354e-05 74.5097 5.4354e-05 48C5.4354e-05 21.4903 21.4904 0 48.0001 0C74.5097 0 96.0001 21.4903 96.0001 48Z" fill="#DADC87"/>
<path d="M70.2223 30.2222C52.4445 10.6667 24.0001 10.6667 7.11117 18.6667C5.68971e-05 23.4074 -11.9111 34.1332 -13.3333 35.5554C-15.1111 37.3332 -0.888829 82.6666 -0.888829 84.4443C-0.888829 86.2221 24.0001 107.555 25.7778 108.444C27.5556 109.333 68.4445 100.444 70.2223 99.5554C72.0001 98.6666 83.5556 86.2221 83.5556 82.6666C83.5556 79.111 64.0001 65.7777 57.7778 65.7777C51.5556 65.7777 40.889 65.7777 27.5556 66.6666C14.2223 67.5554 12.4445 55.1112 12.4445 52.4444C12.4445 49.7777 9.77783 42.6667 21.3334 43.5556C32.8889 44.4444 40.8889 50.6666 45.3334 50.6666C49.7778 50.6666 88.0001 49.7778 70.2223 30.2222Z" fill="#B7C660"/>
<ellipse cx="68.3837" cy="41.7172" rx="18.6059" ry="18.6059" fill="#FFB800"/>
<circle cx="78.6489" cy="37.8676" r="1.92474" fill="#F2AE00"/>
<ellipse cx="75.4411" cy="41.0756" rx="1.28316" ry="1.28316" fill="#F2AE00"/>
<ellipse cx="81.8569" cy="43.642" rx="2.56633" ry="2.56632" fill="#F2AE00"/>
<path d="M68.4579 29.0682C65.3548 29.0682 64.7426 31.5629 63.9668 32.3093C63.1911 34.5487 68.6969 32.2761 71.0242 32.2761C73.3515 32.2761 76.0602 36.788 77.6118 36.0416C79.1633 35.2951 76.9327 33.0557 76.1569 30.8164C75.3811 28.577 81.5873 29.3234 80.8115 27.0841C80.0357 24.8448 73.7248 27.2482 72.949 26.5017C72.1732 25.7553 70.2026 22.2847 67.1747 23.2939C65.25 23.9354 71.561 29.0682 68.4579 29.0682Z" fill="#589A26"/>
<ellipse cx="73.0574" cy="28.9189" rx="1.70378" ry="1.28316" transform="rotate(19.3817 73.0574 28.9189)" fill="#347900"/>
<ellipse cx="27.4948" cy="52.7973" rx="18.6059" ry="18.6059" fill="#ECB800"/>
<circle cx="37.4643" cy="46.0219" r="1.92474" transform="rotate(23.1975 37.4643 46.0219)" fill="#DDA002"/>
<ellipse cx="34.7614" cy="50.761" rx="1.28316" ry="1.28316" transform="rotate(23.1974 34.7614 50.761)" fill="#DDA002"/>
<circle cx="29.004" cy="48.7247" r="2.56632" transform="rotate(23.1975 29.004 48.7247)" fill="#DDA002"/>
<path d="M23.0475 38.8975C19.9482 39.0517 19.4607 41.5737 18.7229 42.3577C18.0594 44.6329 23.4455 42.0896 25.77 41.974C28.0944 41.8584 31.0239 46.2302 32.5364 45.4076C34.049 44.585 31.7098 42.4592 30.8238 40.2612C29.9377 38.0631 36.1733 38.5003 35.2873 36.3023C34.4012 34.1043 28.2174 36.8182 27.4055 36.1112C26.5936 35.4042 24.4531 32.0357 21.4791 33.1941C19.5886 33.9304 26.1467 38.7434 23.0475 38.8975Z" fill="#589A26"/>
<ellipse cx="27.5155" cy="39.4432" rx="1.70379" ry="1.28316" transform="rotate(8.87195 27.5155 39.4432)" fill="#347900"/>
<ellipse cx="57.1399" cy="67.0173" rx="13.2899" ry="13.2899" transform="rotate(6.75294 57.1399 67.0173)" fill="#FFC803"/>
<circle cx="64.7807" cy="63.0485" r="1.37482" transform="rotate(29.9504 64.7807 63.0485)" fill="#F2AF03"/>
<ellipse rx="0.916545" ry="0.916545" transform="matrix(0.866458 0.499249 -0.499251 0.866458 62.4652 66.1834)" fill="#F2AF03"/>
<ellipse cx="58.5523" cy="64.2554" rx="1.83309" ry="1.83309" transform="rotate(29.9504 58.5523 64.2554)" fill="#F2AF03"/>
<path d="M55.1525 56.784C52.9412 56.633 52.3835 58.3811 51.7944 58.8752C51.1326 60.4333 55.1668 59.0817 56.8253 59.1949C58.4838 59.3082 60.1945 62.6553 61.3365 62.1988C62.4785 61.7424 60.9978 60.038 60.554 58.4044C60.1101 56.7709 64.4964 57.6047 64.0526 55.9712C63.6087 54.3376 58.9944 55.7433 58.4778 55.1736C57.9613 54.6039 56.7259 52.0348 54.519 52.6067C53.1162 52.9702 57.3639 56.935 55.1525 56.784Z" fill="#6FC031"/>
<ellipse cx="58.2762" cy="57.5464" rx="1.21699" ry="0.916545" transform="rotate(15.6249 58.2762 57.5464)" fill="#4B9F0B"/>
</g>
<defs>
<clipPath id="clip0_189_1879">
<rect width="96" height="96" rx="48" fill="white"/>
</clipPath>
</defs>
</svg>
