<svg width="54" height="54" viewBox="0 0 54 54" fill="none" xmlns="http://www.w3.org/2000/svg">
<g clip-path="url(#clip0_189_1710)">
<circle cx="27" cy="27" r="27" fill="#F8F2DD"/>
<path d="M3 34.4997H33.0002C29.1846 34.4997 26.2587 31.4006 24.4559 28.4542C24.1222 28.7421 23.0456 29.1451 21.4092 28.4542C19.3638 27.5905 19.56 28.0427 16.6365 28.4542C13.7129 28.8656 14.591 29.3178 14.3658 28.0427C14.1856 27.0227 12.3956 27.6177 11.5232 28.0427C8.07201 30.8217 3.42424 34.4997 3 34.4997Z" fill="#A6CC8F"/>
<path d="M22.7729 25H15.2728C15.2728 25 13.6185 26.3559 11.5231 28.0431C12.3956 27.6181 14.1855 27.0231 14.3657 28.0431C14.591 29.3182 13.7129 28.866 16.6364 28.4546C19.56 28.0431 19.3637 27.5909 21.4092 28.4546C23.0456 29.1455 24.1222 28.7425 24.4559 28.4546C23.6815 27.189 23.1143 25.9515 22.7729 25Z" fill="#92BA88"/>
<rect x="-6" y="34" width="66" height="21" fill="#90B76A"/>
<path d="M21.652 35.9492C21.652 34.7798 23.1789 34.7797 25.7236 34H29.2862C27.2505 34 25.7237 35.1695 26.7415 36.339C27.7594 37.5085 31.322 40.2373 34.8846 42.5763C38.4472 44.9153 43.5366 50.3729 36.4114 53.8814C30.9827 54.9209 20.0234 57 19.6163 57C19.1073 57 13 53.1017 13 52.7119C17.5805 50.3729 27.6322 43.7458 26.7415 41.0169C25.7236 37.8984 21.652 37.1185 21.652 35.9492Z" fill="#F0DBBC"/>
<path d="M13 37C13.5 35.5 10.6667 34.8333 9 34H5.5H0C1.16667 38 3.6 46.9 4 50.5C4.4 54.1 9.66667 53.5 12 52.5C14.5 52.1667 19.1277 48.9148 20.5 48C22 47 22.5 46 22 45.5C21.2094 44.7094 17 42 13.5 42C10.4586 42 9 40.5 6 40C3 39.5 12.6464 38.0607 13 37Z" fill="#589A26"/>
<path d="M9.49998 44.5002C7.09998 44.5002 6.49999 45.5002 6.99999 46.0002C8.33332 48.1669 12.3 52.6004 13.5 53.0004C15 53.5004 15.5 52.0004 18.5 50.0004C21.5 48.0004 23 47.0001 23 46.0001C23 45.0001 21 44.0002 19 44.5002C17 45.0002 14 46.5002 14 45.5002C14 44.5002 12.5 44.5002 9.49998 44.5002Z" fill="#1F712C"/>
<path d="M43 32.5001C41 32.9001 38.1667 36.0001 37 37.5001H57.5C58.5 37.5001 55.5 29.0001 54 28.0001C52.5 27.0001 50.5 29.5001 49 31.5001C47.5 33.5001 45.5 32.0001 43 32.5001Z" fill="#589A26"/>
<rect x="7" y="16" width="21" height="4" rx="2" fill="white"/>
<rect x="34" y="23" width="13" height="2" rx="1" fill="white"/>
<rect x="32" y="26" width="5" height="1" rx="0.5" fill="white"/>
<rect x="40" y="10" width="2" height="1" rx="0.5" fill="white"/>
<rect x="14" y="13" width="13" height="2" rx="1" fill="white"/>
</g>
<defs>
<clipPath id="clip0_189_1710">
<rect width="54" height="54" rx="27" fill="white"/>
</clipPath>
</defs>
</svg>
