<svg width="54" height="54" viewBox="0 0 54 54" fill="none" xmlns="http://www.w3.org/2000/svg">
<g clip-path="url(#clip0_189_1636)">
<circle cx="27" cy="27" r="27" fill="#FFFAEC"/>
<rect y="28" width="56" height="9" fill="#63B4FF"/>
<rect y="37" width="56" height="17" fill="#E4DFCD"/>
<rect y="28" width="56" height="4" fill="#81C2FF"/>
<rect y="28" width="56" height="1" fill="#8EE6EC"/>
<ellipse cx="23.5" cy="31.5" rx="5.5" ry="15.5" fill="#FF6B6B"/>
<mask id="mask0_189_1636" style="mask-type:alpha" maskUnits="userSpaceOnUse" x="18" y="16" width="11" height="31">
<rect x="21" y="16" width="5" height="31" fill="#FF8484"/>
<rect x="28" y="16" width="1" height="31" fill="#A45252"/>
<rect x="18" y="16" width="1" height="31" fill="#A45252"/>
</mask>
<g mask="url(#mask0_189_1636)">
<ellipse cx="23.5" cy="31.5" rx="5.5" ry="15.5" fill="#FDEEEE"/>
</g>
<path d="M19 45.5001C17 46.5001 17.5 45.5001 16 45.5001C15 45.2779 17 47.5001 17.5 47.5001C18 47.5001 26.5 48.0001 28.5 47.5001C30.5 47.0001 28.5 46.0001 27.5 44.0001C27 43.0001 24 44.0001 23 44.0001C22 44.0001 21 44.5001 19 45.5001Z" fill="#E2D39B"/>
<path d="M54.68 46.0194H46.68L42.2 21.3794H47.32L54.68 46.0194Z" fill="#947151"/>
<path d="M46.2 43.3794L46.52 45.2994L51.4 44.2594L46.2 43.3794ZM45.24 38.0194L45.56 39.9394L50.44 38.9794L45.24 38.0194ZM44.28 32.8194L44.6 34.5794L49.16 33.6994L44.28 32.8194ZM43.32 27.5394L43.64 29.2994L48.04 28.4194L43.32 27.5394ZM42.36 22.3394L42.68 23.9394L46.76 23.1394L42.36 22.3394ZM53.64 42.5794L53.16 40.7394L48.68 41.6194L53.64 42.5794ZM52.04 37.2194L51.56 35.5394L47.4 36.3394L52.04 37.2194ZM50.44 31.8594L49.96 30.2594L45.96 31.0594L50.44 31.8594ZM48.84 26.5794L48.36 24.8994L44.2 25.7794L48.84 26.5794Z" fill="#6D533E"/>
<path d="M45 17.6993C53.96 15.4593 66.52 17.6193 60.28 27.4593L59.88 25.0593L57.64 26.9793L58.28 24.0193L56.12 25.8593L56.52 23.0593L54.12 24.8193L54.68 21.6993L51.96 23.4593L52.36 20.7393L49.72 22.4193L50.04 20.0193L47.72 21.1393V19.2193L46.12 19.7793L45 17.6993Z" fill="#83BF4F"/>
<path d="M44.8401 19.8594C43.7201 9.05945 48.6 -6.78055 59.64 -0.620552L56.6001 0.259448L58.6001 2.73945L55.0001 2.41945L56.8401 4.81945L53.4001 4.73945L55.1601 7.37945L51.4001 7.21945L53.1601 10.3394L49.8001 10.2594L51.4001 13.2994H48.5201L49.48 15.9394L47.1601 16.1794L47.6401 18.0194L44.8401 19.8594Z" fill="#75A843"/>
<path d="M45.48 17.9393C43.64 7.05926 34.28 -6.54074 24.92 3.37926L28.2 3.13926L26.92 6.25926L30.44 4.73926L29.24 7.61926L32.68 6.33926L31.64 9.53926L35.4 8.01926L34.52 11.6193L37.8 10.3393L37 13.8593L39.88 12.8193L39.64 15.7793L42.04 15.2193L42.12 17.1393L45.48 17.9393Z" fill="#75A843"/>
<path d="M45.96 19.6189C39.32 10.4189 24.76 1.61893 21 14.4189L23.88 12.8989L24.12 16.2589L26.52 13.4589L26.84 16.6589L29.32 14.0989L29.88 17.4589L32.52 14.5789L33.4 18.2589L35.8 15.7789L36.76 19.2989L38.84 17.2189L40.04 20.0189L41.88 18.4989L42.84 20.2589L45.96 19.6189Z" fill="#83BF4F"/>
<path d="M46.36 18.1789C36.6 16.2589 22.68 19.2189 29 29.3789L29.56 26.8189L31.88 28.7389L31.4 25.6189L33.64 27.4589L33.4 24.4189L35.88 26.1789L35.48 22.8989L38.36 24.6589L38.04 21.7789L40.84 23.3789L40.6 20.8989L43.08 21.9389L43.16 19.9389L44.84 20.4989L46.36 18.1789Z" fill="#83BF4F"/>
<path d="M44.04 18.0993C50.6 9.61926 65.16 1.37926 69 13.2993L66.12 11.8593L65.88 14.9793L63.48 12.4193L63.16 15.3793L60.68 13.0593L60.2 16.0993L57.56 13.4593L56.68 16.8193L54.28 14.4993L53.32 17.6993L51.24 15.7793L50.04 18.3393L48.2 16.9793L47.24 18.5793L44.04 18.0993Z" fill="#83BF4F"/>
<path d="M48.84 20.8992C49.72 21.9392 49.72 23.4592 48.84 24.2592C47.88 25.0592 46.44 24.8192 45.48 23.6992C44.6 22.6592 44.6 21.1392 45.48 20.3392C46.44 19.5392 47.96 19.7792 48.84 20.8992Z" fill="#68584D"/>
<path d="M49.24 16.2593C50.6 16.9793 51.16 18.4193 50.6 19.6193C49.96 20.7393 48.44 21.1393 47.08 20.4193C45.72 19.6993 45.16 18.2593 45.72 17.0593C46.28 15.9393 47.88 15.6193 49.24 16.2593Z" fill="#726256"/>
<path d="M45.96 21.9395C45 23.6195 42.92 24.3395 41.48 23.5395C39.96 22.6595 39.56 20.5795 40.6 18.8995C41.56 17.2195 43.64 16.4995 45.08 17.2995C46.52 18.1795 46.92 20.2595 45.96 21.9395Z" fill="#847266"/>
</g>
<defs>
<clipPath id="clip0_189_1636">
<rect width="54" height="54" rx="27" fill="white"/>
</clipPath>
</defs>
</svg>
