<svg width="54" height="54" viewBox="0 0 54 54" fill="none" xmlns="http://www.w3.org/2000/svg">
<g clip-path="url(#clip0_189_1026)">
<circle cx="27" cy="27" r="27" fill="#D2E4FF"/>
<rect y="33" width="56" height="23" fill="#63B4FF"/>
<rect y="45" width="56" height="9" fill="#508BFF"/>
<rect y="33" width="56" height="5" fill="#81C2FF"/>
<rect y="33" width="56" height="2" fill="#8EE6EC"/>
<path fill-rule="evenodd" clip-rule="evenodd" d="M41 30.5455C41 30.7003 41.0135 30.8522 41.0395 31H46.6748H47.2505H50.94C50.9792 30.8547 51 30.7024 51 30.5455C51 29.5414 50.1472 28.7273 49.0952 28.7273C48.8705 28.7273 48.6548 28.7646 48.4546 28.8327C48.5605 28.5903 48.619 28.3244 48.619 28.0455C48.619 26.9157 47.6597 26 46.4762 26C45.3592 26 44.4418 26.8157 44.3423 27.8572C44.1846 27.8315 44.0225 27.8182 43.8571 27.8182C42.2792 27.8182 41 29.0393 41 30.5455Z" fill="white"/>
<circle cx="34" cy="22" r="2" fill="white"/>
<path fill-rule="evenodd" clip-rule="evenodd" d="M6 22.8182C6 23.2208 6.03246 23.6157 6.09482 24H19.6195H21.0012H29.856C29.95 23.6223 30 23.2263 30 22.8182C30 20.2076 27.9533 18.0909 25.4286 18.0909C24.8892 18.0909 24.3715 18.1879 23.891 18.365C24.1453 17.7349 24.2857 17.0435 24.2857 16.3182C24.2857 13.3809 21.9832 11 19.1429 11C16.462 11 14.2603 13.1207 14.0215 15.8288C13.6431 15.7619 13.254 15.7273 12.8571 15.7273C9.07003 15.7273 6 18.9023 6 22.8182Z" fill="white"/>
</g>
<defs>
<clipPath id="clip0_189_1026">
<rect width="54" height="54" rx="27" fill="white"/>
</clipPath>
</defs>
</svg>
