<svg width="54" height="54" viewBox="0 0 54 54" fill="none" xmlns="http://www.w3.org/2000/svg">
<g clip-path="url(#clip0_189_1734)">
<circle cx="27" cy="27" r="27" fill="#FFD18C"/>
<path d="M39.9885 28.6716C39.9063 28.5764 39.8332 28.4714 39.7669 28.3615L38.5359 26.2783C38.4395 26.1115 38.4085 25.9108 38.4498 25.7198C38.4911 25.5287 38.6012 25.3629 38.7563 25.2582C38.9113 25.1536 39.0987 25.1187 39.2777 25.1611C39.4567 25.2034 39.6129 25.3197 39.7121 25.4845L40.9431 27.5678C41.0505 27.7485 41.2241 27.8706 41.4251 27.8974L41.5758 27.9194C42.5442 28.0586 43.5103 27.7338 44.2274 27.0256C44.9446 26.3173 45.326 25.3136 45.2712 24.2707C45.2654 24.1515 45.2318 24.0356 45.1736 23.9337C45.1154 23.8318 45.0343 23.747 44.9377 23.6871L42.9553 22.4415C42.8764 22.3921 42.8074 22.3266 42.7523 22.2486C42.6972 22.1706 42.657 22.0818 42.6341 21.9871C42.6111 21.8925 42.6059 21.794 42.6187 21.6972C42.6315 21.6004 42.6621 21.5072 42.7086 21.4231C42.7548 21.3388 42.8161 21.265 42.889 21.206C42.962 21.1471 43.0451 21.1041 43.1336 21.0796C43.222 21.0551 43.3142 21.0496 43.4047 21.0632C43.4952 21.0769 43.5823 21.1096 43.661 21.1594L45.6434 22.4049C45.9379 22.5891 46.185 22.8487 46.3624 23.1603C46.5398 23.4719 46.642 23.8258 46.6598 24.1902C46.7351 25.6775 46.1916 27.1086 45.1707 28.1197C44.6679 28.6178 44.0682 28.9907 43.4147 29.2115C42.7611 29.4324 42.0699 29.4957 41.3908 29.397L41.2401 29.375C40.7593 29.3025 40.317 29.0539 39.9885 28.6716ZM20.5456 5.87836C20.2191 5.49537 20.029 5.00167 20.0089 4.48385L20.0043 4.32022C19.9449 2.83291 20.5045 1.40909 21.5391 0.412663C22.5737 -0.583764 23.9577 -1.03069 25.3349 -0.813333C26.0224 -0.705875 26.6094 -0.239411 26.904 0.432201L27.8815 2.65707C27.9205 2.7454 27.9428 2.84109 27.9471 2.93865C27.9514 3.03621 27.9377 3.13373 27.9067 3.22561C27.8757 3.31749 27.8281 3.40193 27.7666 3.4741C27.705 3.54627 27.6308 3.60474 27.548 3.64617C27.4654 3.68784 27.3759 3.71167 27.2847 3.7163C27.1935 3.72092 27.1023 3.70626 27.0164 3.67313C26.9304 3.64001 26.8515 3.58908 26.784 3.52327C26.7165 3.45746 26.6618 3.37805 26.6231 3.2896L25.6456 1.06474C25.5496 0.844937 25.3578 0.693519 25.1317 0.656886C24.1656 0.505468 23.1972 0.818072 22.4709 1.51655C22.1133 1.85982 21.8313 2.28364 21.6453 2.75747C21.4593 3.2313 21.3739 3.74334 21.3952 4.25672L21.4021 4.42035C21.4112 4.63527 21.5071 4.83065 21.6647 4.96253L23.4918 6.46449C23.6377 6.58499 23.733 6.7623 23.7569 6.9577C23.7809 7.1531 23.7316 7.35069 23.6197 7.50732C23.507 7.66326 23.3412 7.76518 23.1585 7.7908C22.9758 7.81643 22.791 7.76368 22.6445 7.64409L20.8174 6.14212C20.7192 6.06153 20.6278 5.97361 20.5456 5.87836Z" fill="#77A3AE"/>
<path d="M42.0638 25.028C47.5514 19.6603 47.942 10.5388 42.9362 4.65447C37.9304 -1.22984 29.4238 -1.64867 23.9362 3.71898C18.4486 9.08664 18.058 18.2082 23.0638 24.0925C28.0696 29.9768 36.5762 30.3956 42.0638 25.028Z" fill="#77A3AE"/>
<path d="M41.0053 23.7839C45.8521 19.043 46.1971 10.9867 41.7759 5.78958C37.3547 0.592438 29.8415 0.222518 24.9947 4.96334C20.1479 9.70417 19.8029 17.7605 24.2242 22.9576C28.6454 28.1548 36.1586 28.5247 41.0053 23.7839Z" fill="#F09300"/>
<path d="M40.4703 23.2197C38.942 24.7196 36.6758 25.298 34.7877 25.7097C31.1048 26.516 27.9823 25.842 25.2651 22.6365C23.6685 20.7518 22.3612 17.7203 22.0879 15.3675C21.6574 11.6669 22.8076 8.92453 25.5612 6.22135C27.2033 4.60876 29.3146 3.56229 31.3576 3.20449C34.9175 2.57955 38.5229 3.77551 41.1353 6.8561C42.8048 8.8265 43.0144 11.2209 43.2376 13.6863C43.5655 17.2889 43.1465 20.595 40.4703 23.2197Z" fill="#FFB74D"/>
<path d="M23.107 11.8521C23.2324 12.0137 23.3122 12.19 23.1845 12.2708C23.0659 12.3442 22.9085 12.2243 22.7877 12.0602C22.6827 11.9207 22.6166 11.7664 22.7147 11.6807C22.831 11.573 22.9724 11.7101 23.107 11.8521ZM33.9128 8.11357C34.0383 8.27516 34.1181 8.45144 33.9904 8.53223C33.8718 8.60568 33.7144 8.48571 33.5935 8.32168C33.4886 8.18212 33.4225 8.02788 33.5206 7.94219C33.6391 7.83446 33.7805 7.97157 33.9128 8.11357ZM30.2592 4.98709C30.1155 5.12909 29.9558 5.22457 29.8737 5.08992C29.7985 4.96505 29.9034 4.79122 30.0494 4.65412C30.1748 4.5366 30.3139 4.45581 30.4006 4.55619C30.5055 4.6786 30.3846 4.83774 30.2592 4.98709ZM40.5838 21.1802C40.7093 21.3417 40.7891 21.518 40.6614 21.5988C40.5428 21.6723 40.3854 21.5523 40.2645 21.3883C40.1596 21.2487 40.0935 21.0945 40.1915 21.0088C40.3079 20.9011 40.4493 21.0382 40.5838 21.1802ZM40.7161 10.5398C40.8096 10.3562 40.9305 10.2093 41.0491 10.3073C41.1563 10.3978 41.1107 10.601 41.0172 10.7822C40.935 10.9389 40.8279 11.0613 40.7161 10.9977C40.577 10.9169 40.6431 10.7259 40.7161 10.5398Z" fill="#FADA80"/>
<path d="M36.5038 17.702C36.6473 17.8841 36.7387 18.0827 36.5925 18.1738C36.4568 18.2565 36.2768 18.1213 36.1384 17.9365C36.0184 17.7792 35.9427 17.6054 36.0549 17.5089C36.1906 17.3875 36.3524 17.542 36.5038 17.702Z" fill="#F6ECBF"/>
<path d="M25.9892 9.60987C26.1127 9.77217 26.1913 9.94922 26.0655 10.0304C25.9487 10.1041 25.7938 9.98365 25.6747 9.81889C25.5714 9.67872 25.5063 9.5238 25.6029 9.43773C25.7196 9.32953 25.8589 9.46724 25.9892 9.60987ZM30.9709 24.111C31.0945 24.2733 31.1731 24.4503 31.0473 24.5315C30.9305 24.6052 30.7755 24.4847 30.6565 24.32C30.5532 24.1798 30.488 24.0249 30.5846 23.9388C30.7014 23.8306 30.8407 23.9683 30.9709 24.111Z" fill="#FADA80"/>
<path d="M32.0487 4.08753C32.2337 4.41168 32.0327 4.6681 31.8841 4.89791C31.6945 5.19545 31.4545 5.03821 31.2877 4.85436C31.1209 4.6681 30.9838 4.40443 31.2535 4.20607C31.4843 4.04157 31.763 3.95207 32.0487 4.08753ZM40.5924 19.1774C40.7775 19.5015 40.5764 19.7579 40.4278 19.9877C40.2382 20.2853 39.9983 20.128 39.8315 19.9442C39.6646 19.7579 39.5275 19.4943 39.7972 19.2959C40.0257 19.1314 40.3045 19.0419 40.5924 19.1774ZM35.515 19.1024C35.3711 19.4507 35.058 19.4217 34.7953 19.4265C34.4571 19.4338 34.4388 19.1363 34.4868 18.8847C34.5348 18.6331 34.6582 18.3622 34.9666 18.4831C35.2248 18.5871 35.4556 18.7758 35.515 19.1024ZM26.6034 7.75961C26.4595 8.10794 26.1464 8.07892 25.8837 8.08375C25.5455 8.09101 25.5272 7.79347 25.5752 7.54189C25.6232 7.29032 25.7465 7.01939 26.055 7.14034C26.3132 7.24435 26.5417 7.43304 26.6034 7.75961ZM36.084 8.96428C36.2691 9.28842 36.068 9.54484 35.9195 9.77465C35.7298 10.0722 35.4899 9.91495 35.3231 9.7311C35.1563 9.54484 35.0192 9.28117 35.2888 9.08281C35.5173 8.91832 35.7961 8.82881 36.084 8.96428Z" fill="#689F38"/>
<path d="M41.2984 8.36231C41.4828 8.69002 41.2825 8.94925 41.1345 9.18158C40.9456 9.48238 40.7066 9.32342 40.5405 9.13756C40.3743 8.94925 40.2378 8.68268 40.5063 8.48215C40.734 8.31585 41.0116 8.22536 41.2984 8.36231ZM42.3704 16.8264C42.5548 17.1541 42.3545 17.4134 42.2066 17.6457C42.0177 17.9465 41.7787 17.7875 41.6125 17.6017C41.4464 17.4134 41.3098 17.1468 41.5784 16.9463C41.806 16.78 42.0837 16.6895 42.3704 16.8264ZM29.3331 23.5664C29.5175 23.8941 29.3172 24.1533 29.1692 24.3857C28.9803 24.6865 28.7413 24.5275 28.5752 24.3417C28.409 24.1533 28.2725 23.8868 28.541 23.6862C28.7709 23.5175 29.0486 23.427 29.3331 23.5664ZM24.9426 18.0345C25.1269 18.3622 24.9266 18.6215 24.7787 18.8538C24.5898 19.1546 24.3508 18.9956 24.1846 18.8098C24.0185 18.6215 23.8819 18.3549 24.1505 18.1544C24.3781 17.9881 24.6558 17.8976 24.9426 18.0345ZM24.7218 9.66336C24.9061 9.99106 24.7059 10.2503 24.5579 10.4826C24.369 10.7834 24.13 10.6245 23.9639 10.4386C23.7977 10.2503 23.6611 9.98373 23.9297 9.78319C24.1596 9.61689 24.4373 9.5264 24.7218 9.66336ZM34.3928 4.08991C34.5772 4.41761 34.3769 4.67684 34.2289 4.90917C34.04 5.20998 33.801 5.05102 33.6349 4.86515C33.4687 4.67684 33.3322 4.41028 33.6007 4.20974C33.8306 4.041 34.1083 3.95051 34.3928 4.08991Z" fill="#E64A19"/>
<path d="M32.9541 23.5712C33.3274 23.6959 33.3365 24.0628 33.3729 24.3685C33.4207 24.7598 33.1202 24.8161 32.8562 24.7941C32.5922 24.7696 32.3008 24.6571 32.3873 24.2854C32.4624 23.9699 32.6286 23.6812 32.9541 23.5712ZM42.2428 11.3545C42.6161 11.4792 42.6252 11.8461 42.6616 12.1518C42.7094 12.5431 42.409 12.5994 42.1449 12.5774C41.8809 12.5529 41.5896 12.4404 41.6761 12.0687C41.7512 11.7532 41.9173 11.4646 42.2428 11.3545ZM26.1895 20.7732C26.4444 20.7854 26.5309 20.92 26.4649 21.1865C26.4057 21.4262 26.4012 21.7491 26.0598 21.6366C25.8094 21.5559 25.4816 21.4067 25.5704 21.0496C25.6364 20.7879 25.9574 20.8099 26.1895 20.7732ZM29.6742 13.113C29.7653 13.3698 29.6856 13.5068 29.4307 13.5484C29.2031 13.585 28.9254 13.7073 28.8844 13.3258C28.8548 13.047 28.8525 12.6654 29.1917 12.6116C29.4443 12.5725 29.5513 12.8978 29.6742 13.113Z" fill="#689F38"/>
<path d="M30.9576 18.1988C30.3751 17.9575 30.3374 17.4375 30.6014 16.9225C30.8612 16.4174 31.2719 16.3477 31.691 16.7383C31.6847 16.9001 31.9068 17.0792 31.6638 17.2235C31.2258 17.1389 30.8444 17.1265 31.0582 17.8828C31.0603 18.0047 31.0267 18.1092 30.9576 18.1988Z" fill="#F6ECBF"/>
<path d="M31.7254 17.1499C31.723 17.0106 31.7183 16.8713 31.716 16.7319C32.0444 17.0418 32.0751 17.4213 31.8743 17.7889C31.664 18.1756 31.3048 18.2765 30.8889 18.142C30.8912 18.0651 30.8936 17.9859 30.8983 17.909C31.1914 17.676 31.4749 17.431 31.7254 17.1499Z" fill="#F6ECBF"/>
<path d="M31.7624 17.1322C31.8529 17.8349 31.5385 18.0364 30.9709 17.9256C30.6769 17.6032 30.5005 17.2606 30.8963 16.8904C31.2694 16.5453 31.5227 16.8274 31.7624 17.1322Z" fill="#FFA726"/>
<path d="M30.9576 13.0655C30.3751 12.8242 30.3374 12.3042 30.6014 11.7892C30.8612 11.2841 31.2719 11.2144 31.691 11.605C31.6847 11.7668 31.9068 11.9459 31.6638 12.0902C31.2258 12.0056 30.8444 11.9932 31.0582 12.7495C31.0603 12.8714 31.0267 12.9759 30.9576 13.0655Z" fill="#F6ECBF"/>
<path d="M31.7254 12.0868C31.723 11.9242 31.7183 11.7617 31.716 11.5991C32.0444 11.9606 32.0751 12.4034 31.8743 12.8322C31.664 13.2834 31.3048 13.4011 30.8889 13.2442C30.8912 13.1545 30.8936 13.062 30.8983 12.9723C31.1914 12.7005 31.4749 12.4146 31.7254 12.0868Z" fill="#F6ECBF"/>
<path d="M31.7624 12.1632C31.8529 12.7256 31.5385 12.8869 30.9709 12.7982C30.6769 12.5401 30.5005 12.266 30.8963 11.9697C31.2694 11.6935 31.5227 11.9213 31.7624 12.1632Z" fill="#FFA726"/>
<path d="M35.4876 15.7545C34.808 15.5131 34.7639 14.9931 35.072 14.4781C35.3751 13.9731 35.8543 13.9034 36.3432 14.294C36.3359 14.4557 36.595 14.6349 36.3114 14.7792C35.8005 14.6946 35.3556 14.6821 35.6049 15.4385C35.6074 15.5604 35.5682 15.6649 35.4876 15.7545Z" fill="#F6ECBF"/>
<path d="M36.3921 14.7056C36.3897 14.5662 36.385 14.4269 36.3826 14.2876C36.7111 14.5975 36.7418 14.977 36.541 15.3445C36.3306 15.7313 35.9715 15.8322 35.5556 15.6977C35.5579 15.6208 35.5603 15.5415 35.565 15.4646C35.858 15.2292 36.1416 14.9866 36.3921 14.7056Z" fill="#F6ECBF"/>
<path d="M36.4291 14.6878C36.5195 15.3906 36.2052 15.5921 35.6375 15.4812C35.3435 15.1588 35.1672 14.8163 35.5629 14.4461C35.9361 14.101 36.1893 14.3831 36.4291 14.6878Z" fill="#FFA726"/>
<path d="M23.3384 14.0671C23.4142 15.4328 24.3171 16.5168 25.454 16.7275C25.6301 16.7605 25.7884 16.5955 25.7772 16.3924L25.4986 11.4091C25.4874 11.206 25.3135 11.0664 25.1419 11.1222C24.0362 11.4954 23.2627 12.6987 23.3384 14.0671Z" fill="#F7CB4D"/>
<path d="M25.055 11.8598C24.8087 11.9734 24.5854 12.1312 24.3962 12.3255C24.3206 12.4035 24.323 12.523 24.406 12.5937L25.1844 13.2788C25.2673 13.352 25.3942 13.2886 25.3869 13.1789L25.3137 12.0183C25.3039 11.8891 25.1722 11.8062 25.055 11.8598ZM25.5553 15.8023L25.4821 14.6515C25.4804 14.6273 25.4716 14.6042 25.4569 14.585C25.4421 14.5658 25.422 14.5514 25.399 14.5435C25.3761 14.5357 25.3514 14.5349 25.3279 14.5411C25.3045 14.5473 25.2834 14.5602 25.2673 14.5784L24.5865 15.3512C24.5158 15.4317 24.528 15.5512 24.6134 15.617C24.8208 15.7804 25.0599 15.9096 25.3186 15.99C25.4406 16.029 25.5626 15.9291 25.5553 15.8023ZM23.9741 12.935C23.8716 13.152 23.8057 13.3861 23.7789 13.6324C23.7667 13.7445 23.8594 13.842 23.9741 13.8347L24.9672 13.7713C25.077 13.764 25.1209 13.6299 25.0404 13.5568L24.2645 12.8741C24.2428 12.8553 24.217 12.8417 24.1892 12.8345C24.1614 12.8273 24.1322 12.8266 24.1041 12.8325C24.076 12.8384 24.0496 12.8507 24.0271 12.8685C24.0045 12.8863 23.9864 12.9091 23.9741 12.935ZM23.8204 14.3638C23.8774 14.6147 23.9773 14.8539 24.1156 15.0709C24.1815 15.1733 24.3279 15.183 24.406 15.0904L25.1234 14.276C25.1966 14.1931 25.1331 14.0663 25.0233 14.0737L23.9863 14.1395C23.874 14.1468 23.796 14.2541 23.8204 14.3638Z" fill="#FEF6E0"/>
<path d="M37.7105 5.95013C36.5422 5.44596 35.2161 5.84787 34.5001 6.84194C34.3894 6.99652 34.4506 7.21531 34.6249 7.29141L38.8835 9.12972C39.0578 9.20583 39.2557 9.09881 39.291 8.91093C39.5077 7.70045 38.8788 6.4543 37.7105 5.95013Z" fill="#F7CB4D"/>
<path d="M38.6654 8.49286C38.6743 8.22503 38.6369 7.95774 38.5553 7.70447C38.5482 7.68065 38.5366 7.65867 38.5212 7.63995C38.5058 7.62122 38.4869 7.60615 38.4657 7.59571C38.4446 7.58527 38.4216 7.57968 38.3983 7.57931C38.375 7.57894 38.3519 7.5838 38.3305 7.59356L37.4449 7.9745C37.3528 8.01548 37.3505 8.15532 37.4427 8.19872L38.4294 8.65198C38.5373 8.7002 38.6609 8.61823 38.6654 8.49286ZM35.2131 7.17405L36.193 7.6249C36.2136 7.63439 36.2363 7.6371 36.2582 7.63268C36.2802 7.62825 36.3004 7.61691 36.3164 7.60008C36.3323 7.58326 36.3432 7.56173 36.3476 7.53823C36.3521 7.51474 36.3499 7.49035 36.3414 7.46819L35.9885 6.52309C35.9803 6.49984 35.9676 6.47869 35.9513 6.46102C35.9349 6.44334 35.9154 6.42952 35.8938 6.42043C35.8722 6.41135 35.8491 6.40721 35.8259 6.40828C35.8027 6.40935 35.78 6.41561 35.7592 6.42665C35.5367 6.53755 35.3322 6.69185 35.1591 6.88232C35.14 6.90324 35.1259 6.92886 35.1181 6.95694C35.1103 6.98502 35.109 7.01472 35.1143 7.04346C35.1196 7.0722 35.1314 7.09912 35.1486 7.12188C35.1658 7.14463 35.188 7.16254 35.2131 7.17405ZM38.2294 7.06073C38.0904 6.87208 37.9243 6.70847 37.7371 6.57613C37.7164 6.56189 37.693 6.55268 37.6686 6.54914C37.6442 6.54559 37.6193 6.5478 37.5958 6.5556C37.5723 6.5634 37.5506 6.57661 37.5323 6.59432C37.514 6.61202 37.4995 6.63379 37.4899 6.6581L37.1303 7.56222C37.1214 7.58424 37.1189 7.60859 37.123 7.63215C37.1272 7.65571 37.1377 7.67742 37.1534 7.69451C37.1691 7.71159 37.1892 7.72326 37.2111 7.72805C37.233 7.73283 37.2557 7.73049 37.2764 7.72134L38.1597 7.34041C38.184 7.32995 38.2057 7.31355 38.2231 7.29253C38.2404 7.2715 38.253 7.24642 38.2598 7.21928C38.2665 7.19213 38.2673 7.16367 38.262 7.13615C38.2567 7.10863 38.2456 7.08281 38.2294 7.06073ZM37.1168 6.28681C36.883 6.22412 36.6448 6.20725 36.4133 6.23377C36.3874 6.23689 36.3625 6.24643 36.3406 6.26162C36.3187 6.27681 36.3004 6.29725 36.2871 6.32131C36.2738 6.34538 36.2659 6.37243 36.264 6.40033C36.2621 6.42823 36.2663 6.45622 36.2762 6.4821L36.6493 7.47783C36.6875 7.57668 36.8179 7.5791 36.8583 7.48025L37.2337 6.53514C37.2431 6.51074 37.2476 6.48444 37.2467 6.45803C37.2458 6.43163 37.2396 6.40574 37.2285 6.38215C37.2174 6.35856 37.2016 6.33783 37.1824 6.32137C37.1631 6.30492 37.1407 6.29312 37.1168 6.28681Z" fill="#FEF6E0"/>
<path d="M36.966 23.5375C38.234 22.9317 38.884 21.5167 38.6012 20.1719C38.5579 19.9638 38.3344 19.8515 38.1451 19.9404L33.5221 22.1505C33.4777 22.1717 33.4385 22.2028 33.4075 22.2416C33.3764 22.2803 33.3543 22.3258 33.3427 22.3745C33.3311 22.4232 33.3303 22.474 33.3404 22.5231C33.3506 22.5722 33.3713 22.6183 33.4012 22.6581C34.2245 23.7433 35.6979 24.1432 36.966 23.5375Z" fill="#F7CB4D"/>
<path d="M34.2793 22.6144C34.4862 22.8351 34.7245 23.0063 34.9831 23.1279C35.0865 23.1775 35.2035 23.1229 35.2417 23.0063L35.6149 21.8801C35.6532 21.761 35.543 21.6494 35.4396 21.7039L34.3333 22.272C34.2141 22.334 34.1826 22.5126 34.2793 22.6144ZM37.9422 20.419L36.8449 20.9821C36.7415 21.0342 36.7482 21.2004 36.8561 21.2425L37.8702 21.6494C37.9759 21.6915 38.0883 21.6295 38.122 21.5105C38.203 21.2177 38.2367 20.9052 38.2165 20.5926C38.2138 20.5584 38.2037 20.5255 38.187 20.4966C38.1703 20.4677 38.1475 20.4437 38.1205 20.4266C38.0935 20.4095 38.0632 20.3999 38.0322 20.3986C38.0011 20.3973 37.9702 20.4043 37.9422 20.419ZM35.7409 23.3263C35.9904 23.3437 36.2468 23.3189 36.4964 23.2444C36.611 23.2097 36.6717 23.0683 36.62 22.9492L36.1793 21.9074C36.1321 21.7933 35.9815 21.8007 35.9432 21.9198L35.5722 23.0435C35.5625 23.0744 35.5593 23.1074 35.563 23.1399C35.5666 23.1723 35.577 23.2034 35.5933 23.2308C35.6096 23.2581 35.6314 23.281 35.657 23.2975C35.6826 23.3141 35.7113 23.3239 35.7409 23.3263ZM37.1957 22.8922C37.4228 22.7235 37.6161 22.5126 37.7735 22.277C37.7909 22.2503 37.8025 22.2196 37.8072 22.1872C37.8119 22.1547 37.8097 22.1215 37.8008 22.0902C37.7918 22.0589 37.7764 22.0303 37.7556 22.0067C37.7349 21.9832 37.7095 21.9653 37.6813 21.9545L36.611 21.5253C36.5031 21.4832 36.4019 21.6047 36.4514 21.7188L36.9123 22.8078C36.9641 22.9244 37.099 22.9641 37.1957 22.8922Z" fill="#FEF6E0"/>
<path d="M27.7662 16.2162C28.0252 15.5743 28.6334 15.5647 29.1421 15.4217C29.6162 15.2885 30.118 15.2716 30.6083 15.2038C30.8973 15.5041 31.1378 15.5356 31.2835 15.0681C31.7021 14.8211 31.9889 15.6494 32.4444 15.1723C32.2039 15.6252 31.7622 15.7439 31.4084 16.1024C31.5819 16.1557 31.7275 16.1993 31.9125 16.2574C31.2373 17.0155 30.3169 17.328 29.5422 17.8705C29.4404 18.0134 29.2994 18.091 29.1352 18.1297C28.2264 18.028 27.6135 17.173 27.7662 16.2162ZM26.6007 19.8543C26.4619 19.3529 26.3255 18.8515 26.6168 18.1709C27.2551 19.21 28.7236 18.7716 29.2161 20.0311C28.749 20.2321 28.6657 18.8515 28.1292 19.8543C27.6205 20.2467 27.1117 20.2612 26.6007 19.8543Z" fill="#FF5722"/>
<path d="M29.0306 18.874C28.1159 19.1092 27.4643 18.5878 26.8248 18.0761C26.5183 17.8287 26.7283 17.5086 26.8634 17.2539C27.0034 16.992 27.1989 16.764 27.3702 16.5191C27.4885 16.4536 27.5946 16.4948 27.626 16.6064C27.8746 17.4504 28.4683 18.0348 29.0837 18.6072L29.0644 18.6387C29.1368 18.7309 29.1247 18.8085 29.0306 18.874Z" fill="#FF5722"/>
<path d="M29.5555 22.033C30.2831 21.5868 31.0085 21.1334 31.7428 20.6992C31.8678 20.6245 32.0553 20.6028 32.1535 20.7716C32.3209 21.061 32.149 21.2853 31.995 21.5024C31.4437 22.3634 30.2206 22.6287 29.5555 22.033Z" fill="#DC2E07"/>
<path d="M28.4013 20.3575C28.5666 20.8676 28.2949 21.3299 27.9009 21.3913C27.2693 21.487 27.1085 20.8403 26.8889 20.3712C27.3915 20.0797 27.8964 20.0888 28.4013 20.3575ZM29.5537 21.8764C30.482 22.2339 31.2699 21.8786 32.0283 21.3777C32.3566 21.7284 32.2525 21.9515 31.8336 22.1086C31.1363 22.3705 30.414 22.3637 29.6895 22.3477C29.1688 22.3363 29.6352 22.0244 29.5537 21.8764Z" fill="#FF5722"/>
<path d="M29.0677 18.443C27.9978 18.1608 27.7242 17.2486 27.3333 16.4321C27.4359 16.2455 27.6314 16.2688 27.8048 16.2432C28.0735 17.3559 28.5596 17.8995 29.373 17.9928C29.5416 17.9508 29.5904 18.0115 29.5318 18.1631C29.3169 18.1654 29.1483 18.2378 29.0677 18.443Z" fill="#E64A19"/>
<path d="M29.3333 21.7927C29.2754 22.1161 29.1761 22.4279 28.9175 22.3384C28.6444 22.2431 28.2348 22.1998 28.2224 21.7176C28.2141 21.4231 28.5369 21.0997 28.7975 21.1344C29.0375 21.1662 29.2816 21.3827 29.3333 21.7927Z" fill="#FF5722"/>
<path d="M28.4444 20.3815L26.8267 20.3985C26.7734 20.2365 26.72 20.0745 26.6667 19.9097H28.2722C28.328 20.0688 28.3862 20.2252 28.4444 20.3815Z" fill="#E64A19"/>
<path d="M31.2494 15.0848C31.3891 15.3779 31.3731 15.6599 31.0578 15.7392C30.6866 15.8317 30.6966 15.4792 30.6667 15.2082C30.8303 14.9879 31.0299 14.9835 31.2494 15.0848Z" fill="#4F2F27"/>
<path d="M29.3722 18.1832C29.3223 18.125 29.2724 18.0669 29.2247 18.0064C29.286 17.8805 29.3949 17.8514 29.5152 17.8417C29.8147 18.2122 30.3434 18.3527 30.5431 19.0888C30.053 18.7425 29.8034 18.3067 29.3722 18.1832ZM28.8889 18.7377L28.9229 18.5028C29.379 18.7038 29.7444 18.9895 29.7035 19.6651L28.8889 18.7377ZM33.096 9.16088C33.5203 9.68391 33.2662 10.2602 33.1663 10.8002C33.0733 11.3014 32.8713 11.7809 32.7148 12.27C32.3381 12.408 32.2065 12.6187 32.5378 12.9625C32.5627 13.4614 31.7458 13.3645 31.9478 14.0038C31.6732 13.58 31.764 13.1127 31.6165 12.6235C31.4962 12.764 31.3964 12.8802 31.2693 13.0279C30.9266 12.0618 31.0628 11.0617 30.9425 10.098C30.8676 9.93816 30.8631 9.77351 30.9017 9.604C31.3782 8.79282 32.3608 8.59426 33.096 9.16088ZM30.5499 6.46582C31.031 6.55783 31.5098 6.64985 31.9523 7.22373C30.8064 7.36417 30.5386 8.93085 29.2701 8.83641C29.3041 8.31096 30.4955 8.84125 29.8873 7.89689C29.7829 7.24794 29.9917 6.76608 30.5499 6.46582Z" fill="#FF5722"/>
<path d="M30.4444 8.99927C30.6266 8.14016 31.337 7.80644 32.0314 7.48624C32.3662 7.33066 32.5483 7.63732 32.7054 7.85605C32.8671 8.07928 32.9786 8.33634 33.1107 8.57987C33.1175 8.70614 33.0378 8.77604 32.9308 8.758C32.118 8.6182 31.3803 8.87526 30.6448 9.15486L30.6266 9.12555C30.5219 9.1481 30.4604 9.10525 30.4444 8.99927Z" fill="#FF5722"/>
<path d="M27.6536 8.17725C27.6975 9.10888 27.7454 10.0405 27.7774 10.9746C27.7834 11.1345 27.7255 11.3318 27.5618 11.3518C27.2804 11.3868 27.1847 11.1145 27.0829 10.8573C26.6658 9.91813 26.9512 8.57188 27.6536 8.17725Z" fill="#DC2E07"/>
<path d="M29.5564 7.90236C29.023 7.82202 28.73 7.35654 28.8513 6.9643C29.0482 6.33105 29.6984 6.47755 30.218 6.487C30.2569 7.08717 30.0234 7.55266 29.5564 7.90236ZM27.6769 8.28278C26.9421 8.98692 26.91 9.88245 27.0222 10.8181C26.5598 10.9646 26.4064 10.7662 26.4522 10.3007C26.5277 9.53274 26.8574 8.85932 27.1939 8.19063C27.4366 7.71333 27.5075 8.29223 27.6769 8.28278Z" fill="#FF5722"/>
<path d="M30.6667 9.29353C31.3904 8.50474 32.3497 8.67277 33.273 8.69844C33.4004 8.8688 33.2946 9.02516 33.2417 9.18385C32.0997 8.92247 31.388 9.0975 30.948 9.75094C30.9143 9.9143 30.8374 9.9283 30.722 9.81162C30.8157 9.62725 30.823 9.45223 30.6667 9.29353Z" fill="#E64A19"/>
<path d="M27.8299 8.14804C27.6217 7.96545 27.4443 7.74091 27.6407 7.4991C27.8489 7.24248 28.0855 6.82548 28.4451 6.99327C28.6652 7.0969 28.7409 7.56078 28.5823 7.8248C28.4356 8.06908 28.1565 8.24921 27.8299 8.14804Z" fill="#FF5722"/>
<path d="M29.5555 7.91308C29.7815 7.42985 30.0099 6.94663 30.2359 6.46582C30.3795 6.4779 30.5231 6.4924 30.6667 6.50448C30.4383 6.98045 30.21 7.45643 29.9793 7.9324C29.838 7.92757 29.6968 7.92032 29.5555 7.91308Z" fill="#E64A19"/>
<path d="M32.6148 13.0651C32.2148 13.0767 31.9187 12.8907 32.0201 12.4345C32.1374 11.8969 32.5135 12.1148 32.8255 12.234C32.9696 12.574 32.8549 12.8384 32.6148 13.0651Z" fill="#4F2F27"/>
<path d="M30.7403 9.86207C30.8116 9.84027 30.8851 9.81847 30.9564 9.79909C31.0346 9.91294 31.0116 10.0292 30.9656 10.1479C30.5173 10.269 30.161 10.7147 29.4483 10.579C29.9633 10.2666 30.4414 10.2181 30.7403 9.86207ZM30.4851 9.15479C30.5472 9.20081 30.607 9.24683 30.669 9.29043C30.2943 9.63923 29.8897 9.85965 29.3333 9.52296C29.7173 9.40185 30.1012 9.27832 30.4851 9.15479ZM36.7084 18.1751C36.0187 18.3204 35.6486 17.7633 35.2256 17.3806C34.8324 17.0221 34.5198 16.5716 34.1703 16.1598C34.2485 15.7141 34.1336 15.4743 33.6554 15.6172C33.2002 15.3799 33.7243 14.6193 33.0508 14.4836C33.5703 14.4352 33.9336 14.7719 34.4439 14.8833C34.3841 14.692 34.3359 14.5297 34.2715 14.3262C35.306 14.4958 36.1153 15.157 37.0302 15.547C37.2119 15.5567 37.359 15.6415 37.49 15.7674C37.9498 16.6636 37.5981 17.7439 36.7084 18.1751ZM40.4419 17.073C40.1062 17.5017 39.766 17.928 39.0234 18.0637C39.5108 16.855 38.2717 15.7602 39.0326 14.5539C39.4786 14.8639 38.3751 15.7674 39.5315 15.6608C40.1614 15.8982 40.4764 16.3584 40.4419 17.073Z" fill="#FF5722"/>
<path d="M38.1147 15.5278C38.7477 16.1987 38.6909 17.0941 38.6341 17.9699C38.6057 18.392 38.2648 18.3969 38.0072 18.4286C37.7455 18.4627 37.4777 18.4261 37.2119 18.4188C37.1044 18.353 37.0821 18.2334 37.149 18.1383C37.6461 17.4088 37.7779 16.5281 37.8895 15.6376L37.922 15.6351C37.9565 15.5205 38.0194 15.4839 38.1147 15.5278Z" fill="#FF5722"/>
<path d="M40.4388 13.0653C39.6225 12.6505 38.8017 12.245 37.9923 11.8185C37.8532 11.7458 37.721 11.5864 37.803 11.3966C37.9421 11.0732 38.2317 11.1013 38.5099 11.1201C39.5587 11.1271 40.5277 12.1044 40.4388 13.0653Z" fill="#DC2E07"/>
<path d="M39.717 15.2777C40.0651 14.7845 40.6324 14.7446 40.9172 15.0859C41.3783 15.6364 40.9082 16.2142 40.6301 16.7324C40.0764 16.4384 39.7848 15.9452 39.717 15.2777ZM40.3566 13.1679C40.1148 12.0345 39.335 11.5039 38.4444 11.0979C38.5552 10.5499 38.8106 10.5051 39.1994 10.809C39.8436 11.3121 40.2685 12.0171 40.6889 12.7295C40.9873 13.2401 40.4358 12.9935 40.3566 13.1679Z" fill="#FF5722"/>
<path d="M37.8937 15.7372C38.2587 16.8223 37.6063 17.6088 37.1071 18.4404C36.881 18.4665 36.7891 18.2864 36.6667 18.1514C37.5027 17.2463 37.7053 16.5001 37.319 15.749C37.1848 15.6306 37.2107 15.5524 37.3779 15.5098C37.5027 15.6946 37.6652 15.7941 37.8937 15.7372Z" fill="#E64A19"/>
<path d="M40.3922 13.3993C40.6157 13.2836 40.8566 13.2272 40.9479 13.5713C41.0451 13.937 41.2491 14.4291 40.9693 14.7114C40.7983 14.8835 40.4272 14.6953 40.3009 14.378C40.1882 14.0849 40.1785 13.6843 40.3922 13.3993Z" fill="#FF5722"/>
<path d="M39.783 15.2656C40.0783 15.7135 40.3736 16.1613 40.6667 16.6069C40.5858 16.7309 40.5048 16.8526 40.4217 16.9766C40.133 16.5311 39.8443 16.0855 39.5556 15.6377C39.6343 15.516 39.7087 15.3896 39.783 15.2656Z" fill="#E64A19"/>
<path d="M33.7778 15.6622C33.9085 15.2963 34.1142 15.1147 34.3338 15.4209C34.5917 15.7789 34.3408 16.0176 34.1682 16.2433C33.9294 16.2122 33.8214 15.9839 33.7778 15.6622Z" fill="#4F2F27"/>
<path d="M37.4607 15.4988C37.4434 15.584 37.4238 15.6668 37.4065 15.752C37.2718 15.7696 37.1871 15.6818 37.1111 15.5715C37.2327 15.05 37.0395 14.4482 37.5085 13.7988C37.5129 14.4908 37.3131 15.0023 37.4607 15.4988ZM38.1774 15.6242C38.11 15.6618 38.0406 15.6994 37.9732 15.7345C37.8712 15.1653 37.8864 14.6338 38.4445 14.2552C38.3533 14.7115 38.2664 15.1678 38.1774 15.6242Z" fill="#FF5722"/>
<path d="M23 43C21.9391 43 20.9217 43.4214 20.1716 44.1716C19.4214 44.9217 19 45.9391 19 47C19 48.0609 19.4214 49.0783 20.1716 49.8284C20.9217 50.5786 21.9391 51 23 51H43C44.0609 51 45.0783 50.5786 45.8284 49.8284C46.5786 49.0783 47 48.0609 47 47C47 45.9391 46.5786 44.9217 45.8284 44.1716C45.0783 43.4214 44.0609 43 43 43H23ZM21 47C21 46.4696 21.2107 45.9609 21.5858 45.5858C21.9609 45.2107 22.4696 45 23 45H27V49H23C22.4696 49 21.9609 48.7893 21.5858 48.4142C21.2107 48.0391 21 47.5304 21 47ZM43 49H39V45H43C43.5304 45 44.0391 45.2107 44.4142 45.5858C44.7893 45.9609 45 46.4696 45 47C45 47.5304 44.7893 48.0391 44.4142 48.4142C44.0391 48.7893 43.5304 49 43 49Z" fill="#B4ACBC"/>
<path d="M24 44H42V51C42 53.3869 41.0518 55.6761 39.364 57.364C37.6761 59.0518 35.3869 60 33 60C30.6131 60 28.3239 59.0518 26.636 57.364C24.9482 55.6761 24 53.3869 24 51V44Z" fill="#CDC4D6"/>
<path d="M42 44C42 46.3869 41.0518 48.6761 39.364 50.364C37.6761 52.0518 35.3869 53 33 53C30.6131 53 28.3239 52.0518 26.636 50.364C24.9482 48.6761 24 46.3869 24 44C24 41.6131 24.9482 39.3239 26.636 37.636C28.3239 35.9482 30.6131 35 33 35C35.3869 35 37.6761 35.9482 39.364 37.636C41.0518 39.3239 42 41.6131 42 44Z" fill="#E1D8EC"/>
<path d="M41 44C41 46.1217 40.1571 48.1566 38.6569 49.6569C37.1566 51.1571 35.1217 52 33 52C30.8783 52 28.8434 51.1571 27.3431 49.6569C25.8429 48.1566 25 46.1217 25 44C25 41.8783 25.8429 39.8434 27.3431 38.3431C28.8434 36.8429 30.8783 36 33 36C35.1217 36 37.1566 36.8429 38.6569 38.3431C40.1571 39.8434 41 41.8783 41 44Z" fill="#FF6723"/>
<path d="M35 48C35 47.4696 35.2107 46.9609 35.5858 46.5858C35.9609 46.2107 36.4696 46 37 46C37.5304 46 38.0391 46.2107 38.4142 46.5858C38.7893 46.9609 39 47.4696 39 48H35ZM28 49C28 48.7348 28.1054 48.4804 28.2929 48.2929C28.4804 48.1054 28.7348 48 29 48C29.2652 48 29.5196 48.1054 29.7071 48.2929C29.8946 48.4804 30 48.7348 30 49H28Z" fill="#FCD53F"/>
<path d="M37 40C36.4696 40 35.9609 40.2107 35.5858 40.5858C35.2107 40.9609 35 41.4696 35 42C35 41.7348 34.8946 41.4804 34.7071 41.2929C34.5196 41.1054 34.2652 41 34 41C33.7348 41 33.4804 41.1054 33.2929 41.2929C33.1054 41.4804 33 41.7348 33 42H39C39 41.4696 38.7893 40.9609 38.4142 40.5858C38.0391 40.2107 37.5304 40 37 40ZM31 51C31 50.4696 31.2107 49.9609 31.5858 49.5858C31.9609 49.2107 32.4696 49 33 49C33.5304 49 34.0391 49.2107 34.4142 49.5858C34.7893 49.9609 35 50.4696 35 51H31Z" fill="#00D26A"/>
<path d="M32.75 39C32.75 39.1989 32.671 39.3897 32.5303 39.5303C32.3897 39.671 32.1989 39.75 32 39.75C31.8011 39.75 31.6103 39.671 31.4697 39.5303C31.329 39.3897 31.25 39.1989 31.25 39C31.25 38.8011 31.329 38.6103 31.4697 38.4697C31.6103 38.329 31.8011 38.25 32 38.25C32.1989 38.25 32.3897 38.329 32.5303 38.4697C32.671 38.6103 32.75 38.8011 32.75 39ZM27.75 46C27.75 46.1989 27.671 46.3897 27.5303 46.5303C27.3897 46.671 27.1989 46.75 27 46.75C26.8011 46.75 26.6103 46.671 26.4697 46.5303C26.329 46.3897 26.25 46.1989 26.25 46C26.25 45.8011 26.329 45.6103 26.4697 45.4697C26.6103 45.329 26.8011 45.25 27 45.25C27.1989 45.25 27.3897 45.329 27.5303 45.4697C27.671 45.6103 27.75 45.8011 27.75 46ZM38 44.75C38.1989 44.75 38.3897 44.671 38.5303 44.5303C38.671 44.3897 38.75 44.1989 38.75 44C38.75 43.8011 38.671 43.6103 38.5303 43.4697C38.3897 43.329 38.1989 43.25 38 43.25C37.8011 43.25 37.6103 43.329 37.4697 43.4697C37.329 43.6103 37.25 43.8011 37.25 44C37.25 44.1989 37.329 44.3897 37.4697 44.5303C37.6103 44.671 37.8011 44.75 38 44.75Z" fill="#990838"/>
<path d="M29.75 41C30.717 41 31.5 41.783 31.5 42.75C31.5 43.3 31.946 43.745 32.495 43.745C32.9591 43.745 33.4042 43.9294 33.7324 44.2576C34.0606 44.5858 34.245 45.0309 34.245 45.495C34.245 45.9591 34.0606 46.4042 33.7324 46.7324C33.4042 47.0606 32.9591 47.245 32.495 47.245C31.3029 47.245 30.1595 46.7714 29.3166 45.9284C28.4736 45.0855 28 43.9421 28 42.75C28 41.783 28.784 41 29.75 41Z" fill="#7D4533"/>
<path d="M6.26991 35.8356C9.18041 39.8649 14.8063 40.7719 18.8356 37.8614C22.8649 34.9509 23.7719 29.3251 20.8614 25.2957C17.9509 21.2664 12.3251 20.3594 8.29574 23.2699C4.26641 26.1804 3.35942 31.8063 6.26991 35.8356Z" fill="#3E4347"/>
<path d="M12.4558 21.8561L12.6381 20.7252C12.7799 19.8456 13.6068 19.2484 14.462 19.4077L16.2212 19.6914C17.1008 19.8332 17.6981 20.66 17.5387 21.5153L17.3564 22.6462L16.0579 22.4369L16.2403 21.306C16.2605 21.1803 16.1551 21.0344 16.0119 20.9898L14.2527 20.7062C14.1271 20.6859 13.9811 20.7913 13.9366 20.9346L13.7542 22.0655L12.4558 21.8561ZM14.6755 39.2748L14.4932 40.4057C14.3514 41.2853 13.5246 41.8825 12.6693 41.7232L10.9101 41.4395C10.0305 41.2977 9.43324 40.4709 9.59261 39.6156L9.77493 38.4847L11.0734 38.694L10.8911 39.8249C10.8708 39.9506 10.9762 40.0965 11.1194 40.1411L12.8786 40.4247C13.0043 40.445 13.1502 40.3396 13.1948 40.1963L13.3771 39.0654L14.6755 39.2748Z" fill="#3E4347"/>
<path d="M7.87497 34.6764C10.1452 37.8193 14.5333 38.5267 17.6762 36.2566C20.8191 33.9864 21.5265 29.5982 19.2563 26.4553C16.9862 23.3125 12.598 22.605 9.45512 24.8752C6.31224 27.1454 5.60479 31.5335 7.87497 34.6764Z" fill="#F2B200"/>
<path d="M19.9104 28.7953C19.6644 27.1226 17.0607 26.0797 16.1974 27.0363C15.3341 27.993 16.4139 31.0249 15.4709 32.7422C14.5279 34.4596 14.2942 35.1095 16.1453 35.6228C18.0031 36.0942 20.7661 34.9496 19.9104 28.7953Z" fill="#B47D56"/>
<path d="M19.1863 29.0225C19.7835 29.8494 18.3553 28.8456 17.1122 28.5592C16.4907 28.416 18.0971 27.5147 19.1863 29.0225ZM19.277 31.6586C19.8742 32.4854 18.446 31.4816 17.1854 31.171C16.6057 31.0345 18.1878 30.1508 19.277 31.6586ZM18.2435 34.0704C18.8408 34.8973 17.4126 33.8935 16.1519 33.5828C15.5723 33.4464 17.172 32.5869 18.2435 34.0704Z" fill="#89664C"/>
<path d="M8.36487 26.4399C9.19843 25.1346 11.7399 25.6303 12.0954 26.8909C12.4684 28.1758 10.4459 30.1918 10.5609 32.1442C10.7002 34.079 10.6516 34.7803 8.93289 34.2453C7.19664 33.6861 5.35623 31.2407 8.36487 26.4399Z" fill="#B47D56"/>
<path d="M8.52302 27.3246C7.72993 27.7124 9.27427 27.5961 10.4309 28.0189C10.9794 28.2148 9.97004 26.6124 8.52302 27.3246ZM7.63681 29.223C6.84372 29.6108 8.38806 29.4945 9.54466 29.9173C10.0932 30.1132 9.08382 28.5108 7.63681 29.223ZM7.59643 31.4726C6.80334 31.8605 8.34768 31.7441 9.50428 32.167C10.0529 32.3628 9.08533 30.7672 7.59643 31.4726Z" fill="#89664C"/>
<path d="M17.0621 25.6715C17.1863 24.7675 17.1863 24.7675 14.4327 24.3881C12.9181 24.1869 11.6534 24.4342 11.5967 24.9193C11.4725 25.8232 11.4725 25.8232 14.2085 26.1783C15.7164 26.4214 16.981 26.1741 17.0621 25.6715ZM14.997 36.7482C15.2644 35.8888 15.2644 35.8888 12.7175 35.027C11.292 34.5393 10.0436 34.5529 9.88551 35.0002C9.61805 35.8595 9.61805 35.8595 12.165 36.7214C13.5905 37.209 14.8565 37.2197 14.997 36.7482ZM14.4332 32.3814C15.3912 32.1705 15.3912 32.1705 14.8424 29.3102C14.541 27.7146 13.8721 26.5324 13.36 26.6432C12.4021 26.854 12.4021 26.854 12.9509 29.7143C13.2347 31.2857 13.9036 32.4679 14.4332 32.3814Z" fill="#699635"/>
<path d="M14.1753 34.3811C14.7455 34.0432 14.1617 33.7987 13.6064 32.9786C13.0753 32.141 12.6011 32.8165 12.1256 33.2341C11.6324 33.6273 12.2742 33.6448 13.0931 34.8297C13.3849 35.285 13.5876 34.6946 14.1753 34.3811Z" fill="#ED4C5C"/>
<path d="M12.686 30.4238C12.4657 29.6577 12.1929 30.1509 11.3808 30.2564C10.5688 30.3618 11.1417 31.2062 11.435 31.9196C11.7282 32.633 11.812 31.9804 12.9618 31.779C13.4009 31.7208 12.9063 31.1899 12.686 30.4238Z" fill="#FFCE31"/>
<path d="M15.434 26.4404C15.2137 25.6743 14.9408 26.1675 14.1288 26.273C13.3168 26.3784 13.8897 27.2228 14.1829 27.9362C14.4762 28.6496 14.5599 27.997 15.7097 27.7956C16.1488 27.7374 15.6543 27.2065 15.434 26.4404Z" fill="#ED4C5C"/>
<path d="M11.8142 25.1694C11.594 24.4033 11.3211 24.8965 10.509 25.002C9.69701 25.1074 10.2699 25.9518 10.5632 26.6652C10.8564 27.3786 10.9402 26.726 12.09 26.5246C12.5534 26.4489 12.0588 25.9179 11.8142 25.1694Z" fill="#FFCE31"/>
</g>
<defs>
<clipPath id="clip0_189_1734">
<rect width="54" height="54" rx="27" fill="white"/>
</clipPath>
</defs>
</svg>
