<svg width="96" height="96" viewBox="0 0 96 96" fill="none" xmlns="http://www.w3.org/2000/svg">
<g clip-path="url(#clip0_189_1847)">
<circle cx="48" cy="48" r="48" fill="#FFFAEC"/>
<rect y="49.7778" width="99.5556" height="16" fill="#63B4FF"/>
<rect y="65.7778" width="99.5556" height="30.2222" fill="#E4DFCD"/>
<rect y="49.7778" width="99.5556" height="7.11111" fill="#81C2FF"/>
<rect y="49.7778" width="99.5556" height="1.77778" fill="#8EE6EC"/>
<ellipse cx="41.7778" cy="55.9999" rx="9.77778" ry="27.5556" fill="#FF6B6B"/>
<path d="M19 45.5001C17 46.5001 17.5 45.5001 16 45.5001C15 45.2779 17 47.5001 17.5 47.5001C18 47.5001 26.5 48.0001 28.5 47.5001C30.5 47.0001 28.5 46.0001 27.5 44.0001C27 43.0001 24 44.0001 23 44.0001C22 44.0001 21 44.5001 19 45.5001Z" fill="#E2D39B"/>
<path d="M97.2089 81.8123H82.9867L75.0222 38.0078H84.1244L97.2089 81.8123Z" fill="#947151"/>
<path d="M82.1333 77.1188L82.7022 80.5321L91.3777 78.6832L82.1333 77.1188ZM80.4266 67.5899L80.9955 71.0032L89.6711 69.2966L80.4266 67.5899ZM78.72 58.3455L79.2889 61.4744L87.3955 59.9099L78.72 58.3455ZM77.0133 48.9588L77.5822 52.0877L85.4044 50.5232L77.0133 48.9588ZM75.3066 39.7144L75.8755 42.5588L83.1289 41.1366L75.3066 39.7144ZM95.36 75.6966L94.5066 72.4255L86.5422 73.9899L95.36 75.6966ZM92.5155 66.1677L91.6622 63.181L84.2666 64.6032L92.5155 66.1677ZM89.6711 56.6388L88.8178 53.7944L81.7066 55.2166L89.6711 56.6388ZM86.8266 47.2521L85.9733 44.2655L78.5778 45.8299L86.8266 47.2521Z" fill="#6D533E"/>
<path d="M80 31.4657C95.9289 27.4834 118.258 31.3234 107.164 48.8168L106.453 44.5501L102.471 47.9634L103.609 42.7012L99.7689 45.9723L100.48 40.9945L96.2133 44.1234L97.2089 38.5768L92.3733 41.7057L93.0844 36.8701L88.3911 39.8568L88.96 35.5901L84.8356 37.5812V34.1679L81.9911 35.1634L80 31.4657" fill="#83BF4F"/>
<path d="M79.7155 35.3056C77.7244 16.1056 86.4 -12.0544 106.027 -1.10331L100.622 0.461133L104.178 4.87002L97.7778 4.30113L101.049 8.5678L94.9333 8.42558L98.0622 13.1189L91.3778 12.8345L94.5066 18.3811L88.5333 18.2389L91.3778 23.6434H86.2578L87.9644 28.3367L83.84 28.7634L84.6933 32.0345L79.7155 35.3056" fill="#75A843"/>
<path d="M80.8534 31.8923C77.5822 12.5501 60.9422 -11.6277 44.3022 6.00785L50.1334 5.58118L47.8578 11.1279L54.1156 8.42563L51.9822 13.5456L58.0978 11.2701L56.2489 16.959L62.9334 14.2567L61.3689 20.6567L67.2 18.3812L65.7778 24.639L70.8978 22.7901L70.4711 28.0523L74.7378 27.0567L74.88 30.4701L80.8534 31.8923" fill="#75A843"/>
<path d="M81.7066 34.8784C69.9021 18.5229 44.0177 2.87843 37.3333 25.634L42.4533 22.9318L42.8799 28.9051L47.1466 23.9273L47.7155 29.6162L52.1244 25.0651L53.1199 31.0384L57.8133 25.9184L59.3777 32.4607L63.6444 28.0518L65.351 34.3095L69.0488 30.6118L71.1821 35.5895L74.4533 32.8873L76.1599 36.0162L81.7066 34.8784" fill="#83BF4F"/>
<path d="M82.4178 32.3187C65.0666 28.9053 40.32 34.1675 51.5555 52.2298L52.5511 47.6786L56.6755 51.092L55.8222 45.5453L59.8044 48.8164L59.3777 43.412L63.7866 46.5409L63.0755 40.7098L68.1955 43.8386L67.6266 38.7187L72.6044 41.5631L72.1778 37.1542L76.5866 39.0031L76.7289 35.4475L79.7155 36.4431L82.4178 32.3187" fill="#83BF4F"/>
<path d="M78.2932 32.1765C89.9554 17.1009 115.84 2.45202 122.667 23.6431L117.547 21.0831L117.12 26.6298L112.853 22.0787L112.284 27.3409L107.875 23.2165L107.022 28.6209L102.329 23.9276L100.764 29.9009L96.4977 25.7765L94.791 31.4654L91.0932 28.052L88.9599 32.6031L85.6888 30.1854L83.9821 33.0298L78.2932 32.1765" fill="#83BF4F"/>
<path d="M86.8266 37.1543C88.391 39.0032 88.391 41.7054 86.8266 43.1276C85.1199 44.5499 82.5599 44.1232 80.8533 42.1321C79.2888 40.2832 79.2888 37.581 80.8533 36.1588C82.5599 34.7365 85.2622 35.1632 86.8266 37.1543Z" fill="#68584D"/>
<path d="M87.5377 28.9056C89.9555 30.1856 90.9511 32.7456 89.9555 34.8789C88.8177 36.87 86.1155 37.5811 83.6977 36.3011C81.2799 35.0211 80.2844 32.4611 81.28 30.3278C82.2755 28.3367 85.1199 27.7678 87.5377 28.9056Z" fill="#726256"/>
<path d="M81.7066 39.0032C80 41.9899 76.3022 43.2699 73.7422 41.8477C71.04 40.2832 70.3288 36.5855 72.1777 33.5988C73.8844 30.6121 77.5822 29.3321 80.1422 30.7544C82.7022 32.3188 83.4133 36.0166 81.7066 39.0032Z" fill="#847266"/>
</g>
<defs>
<clipPath id="clip0_189_1847">
<rect width="96" height="96" rx="48" fill="white"/>
</clipPath>
</defs>
</svg>
