<svg width="54" height="54" viewBox="0 0 54 54" fill="none" xmlns="http://www.w3.org/2000/svg">
<g clip-path="url(#clip0_189_972)">
<circle cx="27" cy="27" r="27" fill="#ECF3F7"/>
<rect x="-6" y="34" width="66" height="21" fill="#90B76A"/>
<rect x="-6" y="37" width="66" height="9" fill="#F0DBBC"/>
<path d="M18.5 18H36C37.545 20.1495 39.8913 23.1653 42.4301 26C46.1905 30.1987 50.3733 34 53 34H0C3.52696 32.2365 9.60507 28.6071 13.8961 24.5C16.0938 22.3965 17.8227 20.1677 18.5 18Z" fill="#7DBF4A"/>
<path fill-rule="evenodd" clip-rule="evenodd" d="M16.2365 26.567C16.751 26.1089 17.4373 25.4978 18.5 25.2368C19.5956 24.9677 20.5578 24.4635 21.3866 24.0292C22.8274 23.2742 23.8652 22.7304 24.5 24C25.5 26 27 26 28 25.5C28.4914 25.2543 28.6206 24.2842 28.7436 23.361C28.8708 22.4054 28.9914 21.5 29.5 21.5C29.9083 21.5 29.8999 21.5833 29.883 21.75C29.8586 21.9916 29.8165 22.4082 31 23C32.4317 23.7158 33.0948 23.1506 33.5394 22.7716C33.7159 22.6211 33.858 22.5 34 22.5C34.2267 22.5 34.1451 22.1917 34.1745 22.1808C34.2099 22.1676 34.4067 22.5867 35.5 24.5C37.5 28 38.5 29 40 28C40.6647 27.5569 41.0211 27.0156 41.2989 26.5937C41.6481 26.0634 41.8732 25.7216 42.4301 26C39.8913 23.1653 37.545 20.1495 36 18H18.5C17.8227 20.1677 16.0938 22.3965 13.8961 24.5L13.8961 24.5C14.9318 27.7287 15.2988 27.402 16.2365 26.567Z" fill="#59A022"/>
<path d="M30.8334 22C30.3887 22.3356 28.8764 23.0692 26.9216 23.1882L26.9907 24.3234C28.143 24.2532 29.132 24.0174 29.9193 23.7294L30.6617 25.5042C30.328 27.2437 29.5659 29.6881 28.5294 31.6648C28.0151 32.3931 26.7259 34.5748 25.9729 35.0973C26.656 35.0978 27.2346 35.4518 27.5904 35.9242C27.6441 35.9959 27.6938 36.0705 27.7394 36.1477L32.7079 30.3959L33.1916 31.5523C31.2345 32.5573 29.8916 34.5975 29.8916 36.9441C29.8916 40.282 32.6089 43 35.9457 43C39.2826 43 42 40.282 42 36.9441C42 33.6062 39.2826 30.8881 35.9457 30.8881C35.371 30.8878 34.7993 30.9697 34.2477 31.1312L31.8441 25.385L32.5417 25.319C32.6523 25.0973 32.9019 24.5771 32.3447 24.1365L31.3415 24.1832L30.957 23.2642C31.1781 23.1426 31.3672 23.0217 31.5179 22.908L30.8334 22ZM21.1312 26.2049C20.678 26.2029 20.2674 26.2488 19.9869 26.3749C19.5699 26.5622 19.6919 27.7117 20.3305 28.1017C20.7848 28.1295 21.1979 28.0922 21.6585 28.0187L21.9539 28.7369H14.6256V29.8742H15.4617L15.7244 30.7941C13.5397 31.7094 12 33.8703 12 36.3829C12 39.7208 14.7174 42.4389 18.0543 42.4389C20.3277 42.4389 22.3132 41.177 23.3481 39.3172L22.1305 39.1404C21.2478 40.4459 19.7539 41.3016 18.0543 41.3016C15.3316 41.3016 13.1367 39.106 13.1367 36.3829C13.1367 34.3791 14.326 32.6622 16.0386 31.8944L16.9996 35.2586C17.1827 35.159 17.3927 35.0973 17.618 35.0973H18.1357L17.1232 31.5529C17.4301 31.4941 17.7418 31.4645 18.0543 31.4642C18.8785 31.4642 19.6537 31.6666 20.335 32.0227L18.3334 35.0973H19.69L21.2749 32.663C22.0037 33.2945 22.5441 34.1371 22.8023 35.0973H23.9704C23.6766 33.7446 22.9297 32.5585 21.8969 31.7075L22.6806 30.5038L24.57 35.0973H25.8211L22.8003 27.8061C23.1518 27.7381 23.5436 27.6647 23.9987 27.5914C24.9855 27.4325 24.6918 26.898 23.9766 26.6243C23.7255 26.5282 22.2894 26.2099 21.1312 26.2049ZM31.4116 27.2968L32.2177 29.2241L29.3399 32.5554C29.4063 32.436 29.4718 32.3154 29.5359 32.1932C30.3529 30.6352 30.9899 28.865 31.4116 27.2968ZM16.6437 29.8742H21.7337L20.9556 31.0695C20.0935 30.5964 19.1046 30.3269 18.0543 30.3269C17.6279 30.3269 17.2117 30.3715 16.8099 30.4558L16.6437 29.8742ZM35.9457 32.0254C38.6684 32.0254 40.8632 34.2209 40.8632 36.944C40.8633 39.6671 38.6684 41.8626 35.9457 41.8626C33.223 41.8626 31.0283 39.6671 31.0283 36.944C31.0283 35.0592 32.0802 33.4277 33.6304 32.6015L35.4215 36.883L36.4701 36.4439L34.6893 32.187C35.0995 32.0795 35.5218 32.0252 35.9457 32.0254Z" fill="black"/>
<path d="M17.4467 36.3378C17.5173 36.2504 17.5574 36.2344 17.6179 36.2344H25.9714C26.2852 36.2344 26.5008 36.3673 26.6825 36.6085C26.8641 36.8497 26.9729 37.2047 26.9618 37.5283C26.9508 37.8519 26.8359 38.1198 26.6279 38.2904C26.42 38.461 26.0794 38.5848 25.4471 38.4729L25.4383 38.4713L17.72 37.3507C17.5149 37.312 17.4401 37.2417 17.3787 37.1456C17.317 37.0492 17.2825 36.901 17.2964 36.7421C17.3103 36.5833 17.3761 36.4252 17.4467 36.3378Z" fill="#FF4E4E"/>
<rect x="22" y="18" width="13" height="1" fill="#7DB1FF"/>
</g>
<rect x="6" y="17" width="21" height="4" rx="2" fill="white"/>
<rect x="13" y="14" width="13" height="2" rx="1" fill="white"/>
<rect x="34" y="23" width="13" height="2" rx="1" fill="white"/>
<defs>
<clipPath id="clip0_189_972">
<rect width="54" height="54" rx="27" fill="white"/>
</clipPath>
</defs>
</svg>
