<svg width="375" height="222" viewBox="0 0 375 222" fill="none" xmlns="http://www.w3.org/2000/svg">
<ellipse opacity="0.7" cx="187.5" cy="181.5" rx="74.5" ry="12.5" fill="#474747"/>
<ellipse cx="187.5" cy="181" rx="47.5" ry="8" fill="#474747"/>
<ellipse cx="187.5" cy="181" rx="29.5" ry="5" fill="#303030"/>
<g filter="url(#filter0_i_167_3938)">
<path d="M210.1 63.0666C210.1 62.3406 210.388 61.6443 210.902 61.1309C211.415 60.6175 212.111 60.3291 212.837 60.3291H234.272C234.998 60.3291 235.694 60.6175 236.208 61.1309C236.721 61.6443 237.01 62.3406 237.01 63.0666V68.0306H210.1V63.062V63.0666Z" fill="url(#paint0_linear_167_3938)"/>
<path d="M210.1 63.0666C210.1 62.3406 210.388 61.6443 210.902 61.1309C211.415 60.6175 212.111 60.3291 212.837 60.3291H234.272C234.998 60.3291 235.694 60.6175 236.208 61.1309C236.721 61.6443 237.01 62.3406 237.01 63.0666V68.0306H210.1V63.062V63.0666Z" fill="url(#paint1_radial_167_3938)"/>
</g>
<g filter="url(#filter1_i_167_3938)">
<path d="M137.168 62.8385C137.168 62.1729 137.433 61.5347 137.903 61.0641C138.374 60.5935 139.012 60.3291 139.678 60.3291H152.768C153.433 60.3291 154.071 60.5935 154.542 61.0641C155.013 61.5347 155.277 62.1729 155.277 62.8385V68.0306H137.168V62.8339V62.8385Z" fill="url(#paint2_linear_167_3938)"/>
<path d="M137.168 62.8385C137.168 62.1729 137.433 61.5347 137.903 61.0641C138.374 60.5935 139.012 60.3291 139.678 60.3291H152.768C153.433 60.3291 154.071 60.5935 154.542 61.0641C155.013 61.5347 155.277 62.1729 155.277 62.8385V68.0306H137.168V62.8339V62.8385Z" fill="url(#paint3_radial_167_3938)"/>
</g>
<path d="M123.266 138.393C123.266 142.842 126.871 146.446 131.319 146.446H242.681C247.125 146.446 250.733 142.842 250.733 138.393C250.733 138.317 250.703 138.244 250.649 138.19C250.595 138.136 250.522 138.106 250.446 138.106H123.554C123.478 138.106 123.404 138.136 123.351 138.19C123.297 138.244 123.266 138.317 123.266 138.393Z" fill="url(#paint4_linear_167_3938)"/>
<path d="M123.266 138.393C123.266 142.842 126.871 146.446 131.319 146.446H242.681C247.125 146.446 250.733 142.842 250.733 138.393C250.733 138.317 250.703 138.244 250.649 138.19C250.595 138.136 250.522 138.106 250.446 138.106H123.554C123.478 138.106 123.404 138.136 123.351 138.19C123.297 138.244 123.266 138.317 123.266 138.393Z" fill="url(#paint5_linear_167_3938)"/>
<path d="M123.266 138.393C123.266 142.842 126.871 146.446 131.319 146.446H242.681C247.125 146.446 250.733 142.842 250.733 138.393C250.733 138.317 250.703 138.244 250.649 138.19C250.595 138.136 250.522 138.106 250.446 138.106H123.554C123.478 138.106 123.404 138.136 123.351 138.19C123.297 138.244 123.266 138.317 123.266 138.393Z" fill="url(#paint6_linear_167_3938)"/>
<path d="M123.266 138.393C123.266 142.842 126.871 146.446 131.319 146.446H242.681C247.125 146.446 250.733 142.842 250.733 138.393C250.733 138.317 250.703 138.244 250.649 138.19C250.595 138.136 250.522 138.106 250.446 138.106H123.554C123.478 138.106 123.404 138.136 123.351 138.19C123.297 138.244 123.266 138.317 123.266 138.393Z" fill="url(#paint7_radial_167_3938)"/>
<path d="M123.266 138.393C123.266 142.842 126.871 146.446 131.319 146.446H242.681C247.125 146.446 250.733 142.842 250.733 138.393C250.733 138.317 250.703 138.244 250.649 138.19C250.595 138.136 250.522 138.106 250.446 138.106H123.554C123.478 138.106 123.404 138.136 123.351 138.19C123.297 138.244 123.266 138.317 123.266 138.393Z" fill="url(#paint8_radial_167_3938)"/>
<path d="M123.266 83.8574C123.266 83.5549 123.387 83.2648 123.6 83.0509C123.814 82.837 124.105 82.7168 124.407 82.7168H249.597C249.9 82.7168 250.19 82.837 250.404 83.0509C250.618 83.2648 250.738 83.5549 250.738 83.8574V136.965C250.738 137.267 250.618 137.558 250.404 137.771C250.19 137.985 249.9 138.106 249.597 138.106H124.402C124.1 138.106 123.81 137.985 123.596 137.771C123.382 137.558 123.262 137.267 123.262 136.965V83.8574H123.266Z" fill="url(#paint9_linear_167_3938)"/>
<path d="M123.266 83.8574C123.266 83.5549 123.387 83.2648 123.6 83.0509C123.814 82.837 124.105 82.7168 124.407 82.7168H249.597C249.9 82.7168 250.19 82.837 250.404 83.0509C250.618 83.2648 250.738 83.5549 250.738 83.8574V136.965C250.738 137.267 250.618 137.558 250.404 137.771C250.19 137.985 249.9 138.106 249.597 138.106H124.402C124.1 138.106 123.81 137.985 123.596 137.771C123.382 137.558 123.262 137.267 123.262 136.965V83.8574H123.266Z" fill="url(#paint10_linear_167_3938)"/>
<path d="M123.266 83.8574C123.266 83.5549 123.387 83.2648 123.6 83.0509C123.814 82.837 124.105 82.7168 124.407 82.7168H249.597C249.9 82.7168 250.19 82.837 250.404 83.0509C250.618 83.2648 250.738 83.5549 250.738 83.8574V136.965C250.738 137.267 250.618 137.558 250.404 137.771C250.19 137.985 249.9 138.106 249.597 138.106H124.402C124.1 138.106 123.81 137.985 123.596 137.771C123.382 137.558 123.262 137.267 123.262 136.965V83.8574H123.266Z" fill="url(#paint11_linear_167_3938)"/>
<path d="M123.266 83.8574C123.266 83.5549 123.387 83.2648 123.6 83.0509C123.814 82.837 124.105 82.7168 124.407 82.7168H249.597C249.9 82.7168 250.19 82.837 250.404 83.0509C250.618 83.2648 250.738 83.5549 250.738 83.8574V136.965C250.738 137.267 250.618 137.558 250.404 137.771C250.19 137.985 249.9 138.106 249.597 138.106H124.402C124.1 138.106 123.81 137.985 123.596 137.771C123.382 137.558 123.262 137.267 123.262 136.965V83.8574H123.266Z" fill="url(#paint12_linear_167_3938)"/>
<path d="M123.266 83.8574C123.266 83.5549 123.387 83.2648 123.6 83.0509C123.814 82.837 124.105 82.7168 124.407 82.7168H249.597C249.9 82.7168 250.19 82.837 250.404 83.0509C250.618 83.2648 250.738 83.5549 250.738 83.8574V136.965C250.738 137.267 250.618 137.558 250.404 137.771C250.19 137.985 249.9 138.106 249.597 138.106H124.402C124.1 138.106 123.81 137.985 123.596 137.771C123.382 137.558 123.262 137.267 123.262 136.965V83.8574H123.266Z" fill="url(#paint13_linear_167_3938)"/>
<path d="M123.266 83.8574C123.266 83.5549 123.387 83.2648 123.6 83.0509C123.814 82.837 124.105 82.7168 124.407 82.7168H249.597C249.9 82.7168 250.19 82.837 250.404 83.0509C250.618 83.2648 250.738 83.5549 250.738 83.8574V136.965C250.738 137.267 250.618 137.558 250.404 137.771C250.19 137.985 249.9 138.106 249.597 138.106H124.402C124.1 138.106 123.81 137.985 123.596 137.771C123.382 137.558 123.262 137.267 123.262 136.965V83.8574H123.266Z" fill="url(#paint14_linear_167_3938)"/>
<path d="M123.266 83.8574C123.266 83.5549 123.387 83.2648 123.6 83.0509C123.814 82.837 124.105 82.7168 124.407 82.7168H249.597C249.9 82.7168 250.19 82.837 250.404 83.0509C250.618 83.2648 250.738 83.5549 250.738 83.8574V136.965C250.738 137.267 250.618 137.558 250.404 137.771C250.19 137.985 249.9 138.106 249.597 138.106H124.402C124.1 138.106 123.81 137.985 123.596 137.771C123.382 137.558 123.262 137.267 123.262 136.965V83.8574H123.266Z" fill="url(#paint15_radial_167_3938)"/>
<g filter="url(#filter2_f_167_3938)">
<path d="M246.385 84.1772H248.525V136.646H246.385V84.1772Z" fill="#8D8D92"/>
</g>
<g filter="url(#filter3_f_167_3938)">
<path d="M156.349 81.7451C155.432 83.123 154.57 84.6514 153.767 86.3441H153.721C153.307 87.2401 152.645 87.9989 151.814 88.5307C150.982 89.0624 150.016 89.345 149.029 89.345C148.042 89.345 147.075 89.0624 146.244 88.5307C145.412 87.9989 144.75 87.2401 144.336 86.3441H144.322C143.576 84.7496 142.713 83.2124 141.74 81.7451H156.349Z" fill="#4E474A"/>
</g>
<g filter="url(#filter4_i_167_3938)">
<path d="M123.266 73.98C123.266 71.5599 124.228 69.2389 125.939 67.5276C127.65 65.8164 129.971 64.855 132.391 64.855H241.613C244.033 64.855 246.354 65.8164 248.065 67.5276C249.777 69.2389 250.738 71.5599 250.738 73.98V81.5765C250.738 81.8791 250.618 82.1692 250.404 82.3831C250.19 82.597 249.9 82.7172 249.597 82.7172H124.402C124.1 82.7172 123.81 82.597 123.596 82.3831C123.382 82.1692 123.262 81.8791 123.262 81.5765V73.98H123.266Z" fill="#DAD4E6"/>
<path d="M123.266 73.98C123.266 71.5599 124.228 69.2389 125.939 67.5276C127.65 65.8164 129.971 64.855 132.391 64.855H241.613C244.033 64.855 246.354 65.8164 248.065 67.5276C249.777 69.2389 250.738 71.5599 250.738 73.98V81.5765C250.738 81.8791 250.618 82.1692 250.404 82.3831C250.19 82.597 249.9 82.7172 249.597 82.7172H124.402C124.1 82.7172 123.81 82.597 123.596 82.3831C123.382 82.1692 123.262 81.8791 123.262 81.5765V73.98H123.266Z" fill="url(#paint16_linear_167_3938)"/>
<path d="M123.266 73.98C123.266 71.5599 124.228 69.2389 125.939 67.5276C127.65 65.8164 129.971 64.855 132.391 64.855H241.613C244.033 64.855 246.354 65.8164 248.065 67.5276C249.777 69.2389 250.738 71.5599 250.738 73.98V81.5765C250.738 81.8791 250.618 82.1692 250.404 82.3831C250.19 82.597 249.9 82.7172 249.597 82.7172H124.402C124.1 82.7172 123.81 82.597 123.596 82.3831C123.382 82.1692 123.262 81.8791 123.262 81.5765V73.98H123.266Z" fill="url(#paint17_linear_167_3938)"/>
<path d="M123.266 73.98C123.266 71.5599 124.228 69.2389 125.939 67.5276C127.65 65.8164 129.971 64.855 132.391 64.855H241.613C244.033 64.855 246.354 65.8164 248.065 67.5276C249.777 69.2389 250.738 71.5599 250.738 73.98V81.5765C250.738 81.8791 250.618 82.1692 250.404 82.3831C250.19 82.597 249.9 82.7172 249.597 82.7172H124.402C124.1 82.7172 123.81 82.597 123.596 82.3831C123.382 82.1692 123.262 81.8791 123.262 81.5765V73.98H123.266Z" fill="url(#paint18_linear_167_3938)"/>
<path d="M123.266 73.98C123.266 71.5599 124.228 69.2389 125.939 67.5276C127.65 65.8164 129.971 64.855 132.391 64.855H241.613C244.033 64.855 246.354 65.8164 248.065 67.5276C249.777 69.2389 250.738 71.5599 250.738 73.98V81.5765C250.738 81.8791 250.618 82.1692 250.404 82.3831C250.19 82.597 249.9 82.7172 249.597 82.7172H124.402C124.1 82.7172 123.81 82.597 123.596 82.3831C123.382 82.1692 123.262 81.8791 123.262 81.5765V73.98H123.266Z" fill="url(#paint19_radial_167_3938)"/>
<path d="M123.266 73.98C123.266 71.5599 124.228 69.2389 125.939 67.5276C127.65 65.8164 129.971 64.855 132.391 64.855H241.613C244.033 64.855 246.354 65.8164 248.065 67.5276C249.777 69.2389 250.738 71.5599 250.738 73.98V81.5765C250.738 81.8791 250.618 82.1692 250.404 82.3831C250.19 82.597 249.9 82.7172 249.597 82.7172H124.402C124.1 82.7172 123.81 82.597 123.596 82.3831C123.382 82.1692 123.262 81.8791 123.262 81.5765V73.98H123.266Z" fill="url(#paint20_linear_167_3938)"/>
</g>
<g filter="url(#filter5_iiii_167_3938)">
<path d="M187 142.281C204.679 142.281 219.011 127.949 219.011 110.27C219.011 92.5913 204.679 78.2598 187 78.2598C169.321 78.2598 154.99 92.5913 154.99 110.27C154.99 127.949 169.321 142.281 187 142.281Z" fill="url(#paint21_radial_167_3938)"/>
</g>
<g filter="url(#filter6_f_167_3938)">
<path d="M187 132.941C199.521 132.941 209.671 122.791 209.671 110.27C209.671 97.7493 199.521 87.5991 187 87.5991C174.479 87.5991 164.329 97.7493 164.329 110.27C164.329 122.791 174.479 132.941 187 132.941Z" stroke="url(#paint22_linear_167_3938)" stroke-width="0.3"/>
<path d="M187 132.941C199.521 132.941 209.671 122.791 209.671 110.27C209.671 97.7493 199.521 87.5991 187 87.5991C174.479 87.5991 164.329 97.7493 164.329 110.27C164.329 122.791 174.479 132.941 187 132.941Z" stroke="url(#paint23_linear_167_3938)" stroke-width="0.3"/>
</g>
<path d="M187 132.941C199.521 132.941 209.671 122.791 209.671 110.27C209.671 97.7493 199.521 87.5991 187 87.5991C174.479 87.5991 164.329 97.7493 164.329 110.27C164.329 122.791 174.479 132.941 187 132.941Z" fill="url(#paint24_radial_167_3938)"/>
<path d="M187 132.941C199.521 132.941 209.671 122.791 209.671 110.27C209.671 97.7493 199.521 87.5991 187 87.5991C174.479 87.5991 164.329 97.7493 164.329 110.27C164.329 122.791 174.479 132.941 187 132.941Z" fill="url(#paint25_linear_167_3938)"/>
<g filter="url(#filter7_f_167_3938)">
<path d="M187 130.126C197.966 130.126 206.856 121.236 206.856 110.27C206.856 99.3039 197.966 90.4141 187 90.4141C176.034 90.4141 167.144 99.3039 167.144 110.27C167.144 121.236 176.034 130.126 187 130.126Z" fill="url(#paint26_radial_167_3938)"/>
<path d="M187 130.126C197.966 130.126 206.856 121.236 206.856 110.27C206.856 99.3039 197.966 90.4141 187 90.4141C176.034 90.4141 167.144 99.3039 167.144 110.27C167.144 121.236 176.034 130.126 187 130.126Z" fill="url(#paint27_radial_167_3938)"/>
</g>
<path d="M187 121.462C193.181 121.462 198.192 116.451 198.192 110.27C198.192 104.089 193.181 99.0781 187 99.0781C180.819 99.0781 175.808 104.089 175.808 110.27C175.808 116.451 180.819 121.462 187 121.462Z" fill="url(#paint28_linear_167_3938)"/>
<path d="M187 121.462C193.181 121.462 198.192 116.451 198.192 110.27C198.192 104.089 193.181 99.0781 187 99.0781C180.819 99.0781 175.808 104.089 175.808 110.27C175.808 116.451 180.819 121.462 187 121.462Z" fill="url(#paint29_radial_167_3938)"/>
<path d="M187 121.462C193.181 121.462 198.192 116.451 198.192 110.27C198.192 104.089 193.181 99.0781 187 99.0781C180.819 99.0781 175.808 104.089 175.808 110.27C175.808 116.451 180.819 121.462 187 121.462Z" fill="url(#paint30_radial_167_3938)"/>
<path d="M199.014 105.077C200.742 103.868 200.923 101.144 199.418 98.9923C197.913 96.8408 195.292 96.0767 193.564 97.2856C191.836 98.4946 191.655 101.219 193.16 103.37C194.665 105.522 197.286 106.286 199.014 105.077Z" fill="url(#paint31_linear_167_3938)"/>
<g filter="url(#filter8_f_167_3938)">
<path d="M141.945 82.0009C138.619 77.0232 134.372 74.7145 130.101 72.8713C128.139 72.1367 127.478 71.498 127.478 69.2806C127.478 68.8107 127.359 67.7157 127.478 67.2822C129.002 66.1416 131.068 66.1097 133.121 66.1097L170.776 64.855C171.15 65.3204 170.776 65.261 170.776 66.1097C170.776 68.2221 169.444 68.9019 167.628 69.7049V69.714C163.207 71.5801 159.401 76.284 155.993 82.0009H141.941H141.945Z" fill="#A99A99"/>
</g>
<g filter="url(#filter9_i_167_3938)">
<path d="M150.965 41.9741C153.041 41.9741 154.834 43.2014 155.656 44.9671H155.701C159.443 52.8967 164.616 57.1764 170.16 59.5124V59.5215C171.077 59.9262 171.856 60.5887 172.403 61.4283C172.95 62.2679 173.242 63.2484 173.242 64.2505C173.242 65.2527 172.95 66.2332 172.403 67.0728C171.856 67.9124 171.077 68.5749 170.16 68.9796V68.9932C164.616 71.3247 159.447 75.6043 155.706 83.5339C155.294 84.4416 154.624 85.2087 153.781 85.7406C152.938 86.2725 151.958 86.5458 150.961 86.5269C149.975 86.528 149.01 86.2467 148.18 85.7162C147.35 85.1858 146.688 84.4284 146.275 83.5339H146.257C142.57 75.7138 137.497 71.4479 132.04 69.0936C131.054 68.7244 130.205 68.063 129.605 67.198C129.006 66.3329 128.684 65.3054 128.684 64.2528C128.684 63.2002 129.006 62.1727 129.605 61.3077C130.205 60.4426 131.054 59.7812 132.04 59.412C137.492 57.0532 142.57 52.7872 146.257 44.9671H146.275C147.096 43.2014 148.885 41.9741 150.965 41.9741Z" fill="url(#paint32_radial_167_3938)"/>
<path d="M150.965 41.9741C153.041 41.9741 154.834 43.2014 155.656 44.9671H155.701C159.443 52.8967 164.616 57.1764 170.16 59.5124V59.5215C171.077 59.9262 171.856 60.5887 172.403 61.4283C172.95 62.2679 173.242 63.2484 173.242 64.2505C173.242 65.2527 172.95 66.2332 172.403 67.0728C171.856 67.9124 171.077 68.5749 170.16 68.9796V68.9932C164.616 71.3247 159.447 75.6043 155.706 83.5339C155.294 84.4416 154.624 85.2087 153.781 85.7406C152.938 86.2725 151.958 86.5458 150.961 86.5269C149.975 86.528 149.01 86.2467 148.18 85.7162C147.35 85.1858 146.688 84.4284 146.275 83.5339H146.257C142.57 75.7138 137.497 71.4479 132.04 69.0936C131.054 68.7244 130.205 68.063 129.605 67.198C129.006 66.3329 128.684 65.3054 128.684 64.2528C128.684 63.2002 129.006 62.1727 129.605 61.3077C130.205 60.4426 131.054 59.7812 132.04 59.412C137.492 57.0532 142.57 52.7872 146.257 44.9671H146.275C147.096 43.2014 148.885 41.9741 150.965 41.9741Z" fill="url(#paint33_radial_167_3938)"/>
</g>
<g filter="url(#filter10_f_167_3938)">
<path d="M150.965 48.0696C152.471 48.0696 153.776 48.9593 154.369 50.2459H154.406C157.125 56.0038 160.884 59.1108 164.908 60.8081V60.8172C165.575 61.1111 166.141 61.5923 166.539 62.2022C166.936 62.8122 167.148 63.5246 167.148 64.2528C167.148 64.9809 166.936 65.6933 166.539 66.3033C166.141 66.9133 165.575 67.3945 164.908 67.6883V67.6929C160.88 69.3901 157.125 72.4972 154.406 78.2596H154.369C154.068 78.909 153.587 79.4586 152.983 79.8438C152.38 80.229 151.679 80.4336 150.963 80.4336C150.247 80.4336 149.546 80.229 148.943 79.8438C148.339 79.4586 147.859 78.909 147.557 78.2596H147.544C144.865 72.5793 141.179 69.4768 137.219 67.7659C136.503 67.4973 135.887 67.0169 135.452 66.3888C135.016 65.7606 134.783 65.0146 134.783 64.2505C134.783 63.4863 135.016 62.7404 135.452 62.1122C135.887 61.4841 136.503 61.0036 137.219 60.7351C141.179 59.0241 144.865 55.9216 147.544 50.2413H147.557C147.859 49.5921 148.34 49.0426 148.944 48.6578C149.548 48.2731 150.249 48.0689 150.965 48.0696Z" fill="url(#paint34_radial_167_3938)"/>
</g>
<g filter="url(#filter11_i_167_3938)">
<path d="M241.503 19C242.854 19 244.021 19.7989 244.556 20.9481H244.585C247.021 26.1095 250.388 28.8951 253.996 30.4156V30.4216C254.593 30.685 255.101 31.1162 255.457 31.6627C255.813 32.2092 256.002 32.8474 256.002 33.4997C256.002 34.152 255.813 34.7902 255.457 35.3367C255.101 35.8832 254.593 36.3144 253.996 36.5778V36.5867C250.388 38.1043 247.024 40.8899 244.588 46.0513C244.32 46.6421 243.885 47.1414 243.336 47.4876C242.787 47.8338 242.149 48.0117 241.5 47.9994C240.858 48.0001 240.23 47.817 239.69 47.4717C239.149 47.1264 238.719 46.6335 238.45 46.0513H238.438C236.039 40.9611 232.736 38.1844 229.184 36.6521C228.543 36.4117 227.99 35.9812 227.6 35.4182C227.209 34.8551 227 34.1863 227 33.5012C227 32.8161 227.209 32.1472 227.6 31.5842C227.99 31.0211 228.543 30.5906 229.184 30.3503C232.733 28.815 236.039 26.0383 238.438 20.9481H238.45C238.984 19.7989 240.149 19 241.503 19Z" fill="url(#paint35_radial_167_3938)"/>
<path d="M241.503 19C242.854 19 244.021 19.7989 244.556 20.9481H244.585C247.021 26.1095 250.388 28.8951 253.996 30.4156V30.4216C254.593 30.685 255.101 31.1162 255.457 31.6627C255.813 32.2092 256.002 32.8474 256.002 33.4997C256.002 34.152 255.813 34.7902 255.457 35.3367C255.101 35.8832 254.593 36.3144 253.996 36.5778V36.5867C250.388 38.1043 247.024 40.8899 244.588 46.0513C244.32 46.6421 243.885 47.1414 243.336 47.4876C242.787 47.8338 242.149 48.0117 241.5 47.9994C240.858 48.0001 240.23 47.817 239.69 47.4717C239.149 47.1264 238.719 46.6335 238.45 46.0513H238.438C236.039 40.9611 232.736 38.1844 229.184 36.6521C228.543 36.4117 227.99 35.9812 227.6 35.4182C227.209 34.8551 227 34.1863 227 33.5012C227 32.8161 227.209 32.1472 227.6 31.5842C227.99 31.0211 228.543 30.5906 229.184 30.3503C232.733 28.815 236.039 26.0383 238.438 20.9481H238.45C238.984 19.7989 240.149 19 241.503 19Z" fill="url(#paint36_radial_167_3938)"/>
</g>
<g filter="url(#filter12_f_167_3938)">
<path d="M241.503 22.9675C242.483 22.9675 243.332 23.5466 243.718 24.3841H243.742C245.512 28.1319 247.959 30.1543 250.578 31.259V31.265C251.012 31.4562 251.381 31.7694 251.639 32.1665C251.898 32.5635 252.036 33.0272 252.036 33.5012C252.036 33.9751 251.898 34.4388 251.639 34.8358C251.381 35.2329 251.012 35.5461 250.578 35.7374V35.7403C247.956 36.8451 245.512 38.8675 243.742 42.6182H243.718C243.522 43.0409 243.209 43.3987 242.816 43.6494C242.424 43.9001 241.967 44.0333 241.501 44.0333C241.035 44.0333 240.579 43.9001 240.186 43.6494C239.794 43.3987 239.481 43.0409 239.284 42.6182H239.276C237.532 38.9209 235.133 36.9015 232.555 35.7879C232.089 35.613 231.688 35.3003 231.405 34.8915C231.122 34.4826 230.97 33.9971 230.97 33.4997C230.97 33.0023 231.122 32.5167 231.405 32.1079C231.688 31.699 232.089 31.3863 232.555 31.2115C235.133 30.0978 237.532 28.0784 239.276 24.3811H239.284C239.481 23.9585 239.794 23.6009 240.187 23.3504C240.58 23.1 241.037 22.9671 241.503 22.9675Z" fill="url(#paint37_radial_167_3938)"/>
</g>
<g filter="url(#filter13_i_167_3938)">
<path d="M284.001 107C284.56 107 285.043 107.331 285.264 107.806H285.277C286.284 109.942 287.678 111.095 289.171 111.724V111.726C289.418 111.835 289.628 112.014 289.775 112.24C289.923 112.466 290.001 112.73 290.001 113C290.001 113.27 289.923 113.534 289.775 113.76C289.628 113.986 289.418 114.165 289.171 114.274V114.277C287.678 114.905 286.286 116.058 285.278 118.194C285.167 118.438 284.987 118.645 284.76 118.788C284.532 118.931 284.268 119.005 284 119C283.735 119 283.475 118.924 283.251 118.781C283.027 118.639 282.849 118.435 282.738 118.194H282.733C281.74 116.087 280.374 114.938 278.904 114.304C278.638 114.205 278.41 114.027 278.248 113.794C278.087 113.561 278 113.284 278 113C278 112.717 278.087 112.44 278.248 112.207C278.41 111.974 278.638 111.796 278.904 111.697C280.372 111.061 281.74 109.912 282.733 107.806H282.738C282.959 107.331 283.441 107 284.001 107Z" fill="url(#paint38_radial_167_3938)"/>
<path d="M284.001 107C284.56 107 285.043 107.331 285.264 107.806H285.277C286.284 109.942 287.678 111.095 289.171 111.724V111.726C289.418 111.835 289.628 112.014 289.775 112.24C289.923 112.466 290.001 112.73 290.001 113C290.001 113.27 289.923 113.534 289.775 113.76C289.628 113.986 289.418 114.165 289.171 114.274V114.277C287.678 114.905 286.286 116.058 285.278 118.194C285.167 118.438 284.987 118.645 284.76 118.788C284.532 118.931 284.268 119.005 284 119C283.735 119 283.475 118.924 283.251 118.781C283.027 118.639 282.849 118.435 282.738 118.194H282.733C281.74 116.087 280.374 114.938 278.904 114.304C278.638 114.205 278.41 114.027 278.248 113.794C278.087 113.561 278 113.284 278 113C278 112.717 278.087 112.44 278.248 112.207C278.41 111.974 278.638 111.796 278.904 111.697C280.372 111.061 281.74 109.912 282.733 107.806H282.738C282.959 107.331 283.441 107 284.001 107Z" fill="url(#paint39_radial_167_3938)"/>
</g>
<g filter="url(#filter14_f_167_3938)">
<path d="M284.001 108.642C284.407 108.642 284.758 108.881 284.918 109.228H284.928C285.66 110.779 286.673 111.615 287.757 112.073V112.075C287.936 112.154 288.089 112.284 288.196 112.448C288.303 112.612 288.36 112.804 288.36 113C288.36 113.196 288.303 113.388 288.196 113.553C288.089 113.717 287.936 113.847 287.757 113.926V113.927C286.671 114.384 285.66 115.221 284.928 116.773H284.918C284.837 116.948 284.707 117.096 284.545 117.2C284.382 117.303 284.193 117.358 284.001 117.358C283.808 117.358 283.619 117.303 283.456 117.2C283.294 117.096 283.164 116.948 283.083 116.773H283.08C282.358 115.243 281.365 114.407 280.299 113.947C280.106 113.874 279.94 113.745 279.823 113.576C279.706 113.406 279.643 113.206 279.643 113C279.643 112.794 279.706 112.593 279.823 112.424C279.94 112.255 280.106 112.125 280.299 112.053C281.365 111.592 282.358 110.756 283.08 109.227H283.083C283.165 109.052 283.294 108.904 283.457 108.8C283.619 108.696 283.808 108.641 284.001 108.642Z" fill="url(#paint40_radial_167_3938)"/>
</g>
<defs>
<filter id="filter0_i_167_3938" x="210.1" y="60.3291" width="26.9096" height="7.85142" filterUnits="userSpaceOnUse" color-interpolation-filters="sRGB">
<feFlood flood-opacity="0" result="BackgroundImageFix"/>
<feBlend mode="normal" in="SourceGraphic" in2="BackgroundImageFix" result="shape"/>
<feColorMatrix in="SourceAlpha" type="matrix" values="0 0 0 0 0 0 0 0 0 0 0 0 0 0 0 0 0 0 127 0" result="hardAlpha"/>
<feOffset dy="0.15"/>
<feGaussianBlur stdDeviation="0.2"/>
<feComposite in2="hardAlpha" operator="arithmetic" k2="-1" k3="1"/>
<feColorMatrix type="matrix" values="0 0 0 0 0.701961 0 0 0 0 0.709804 0 0 0 0 0.713726 0 0 0 1 0"/>
<feBlend mode="normal" in2="shape" result="effect1_innerShadow_167_3938"/>
</filter>
<filter id="filter1_i_167_3938" x="137.168" y="60.3291" width="18.1086" height="7.85142" filterUnits="userSpaceOnUse" color-interpolation-filters="sRGB">
<feFlood flood-opacity="0" result="BackgroundImageFix"/>
<feBlend mode="normal" in="SourceGraphic" in2="BackgroundImageFix" result="shape"/>
<feColorMatrix in="SourceAlpha" type="matrix" values="0 0 0 0 0 0 0 0 0 0 0 0 0 0 0 0 0 0 127 0" result="hardAlpha"/>
<feOffset dy="0.15"/>
<feGaussianBlur stdDeviation="0.2"/>
<feComposite in2="hardAlpha" operator="arithmetic" k2="-1" k3="1"/>
<feColorMatrix type="matrix" values="0 0 0 0 0.701961 0 0 0 0 0.709804 0 0 0 0 0.713726 0 0 0 1 0"/>
<feBlend mode="normal" in2="shape" result="effect1_innerShadow_167_3938"/>
</filter>
<filter id="filter2_f_167_3938" x="245.735" y="83.5272" width="3.4398" height="53.7687" filterUnits="userSpaceOnUse" color-interpolation-filters="sRGB">
<feFlood flood-opacity="0" result="BackgroundImageFix"/>
<feBlend mode="normal" in="SourceGraphic" in2="BackgroundImageFix" result="shape"/>
<feGaussianBlur stdDeviation="0.325" result="effect1_foregroundBlur_167_3938"/>
</filter>
<filter id="filter3_f_167_3938" x="141.09" y="81.0951" width="15.9091" height="8.89985" filterUnits="userSpaceOnUse" color-interpolation-filters="sRGB">
<feFlood flood-opacity="0" result="BackgroundImageFix"/>
<feBlend mode="normal" in="SourceGraphic" in2="BackgroundImageFix" result="shape"/>
<feGaussianBlur stdDeviation="0.325" result="effect1_foregroundBlur_167_3938"/>
</filter>
<filter id="filter4_i_167_3938" x="123.262" y="64.855" width="127.476" height="17.9623" filterUnits="userSpaceOnUse" color-interpolation-filters="sRGB">
<feFlood flood-opacity="0" result="BackgroundImageFix"/>
<feBlend mode="normal" in="SourceGraphic" in2="BackgroundImageFix" result="shape"/>
<feColorMatrix in="SourceAlpha" type="matrix" values="0 0 0 0 0 0 0 0 0 0 0 0 0 0 0 0 0 0 127 0" result="hardAlpha"/>
<feOffset dy="0.1"/>
<feGaussianBlur stdDeviation="0.15"/>
<feComposite in2="hardAlpha" operator="arithmetic" k2="-1" k3="1"/>
<feColorMatrix type="matrix" values="0 0 0 0 0.796078 0 0 0 0 0.8 0 0 0 0 0.803922 0 0 0 1 0"/>
<feBlend mode="normal" in2="shape" result="effect1_innerShadow_167_3938"/>
</filter>
<filter id="filter5_iiii_167_3938" x="154.84" y="78.1098" width="64.321" height="64.321" filterUnits="userSpaceOnUse" color-interpolation-filters="sRGB">
<feFlood flood-opacity="0" result="BackgroundImageFix"/>
<feBlend mode="normal" in="SourceGraphic" in2="BackgroundImageFix" result="shape"/>
<feColorMatrix in="SourceAlpha" type="matrix" values="0 0 0 0 0 0 0 0 0 0 0 0 0 0 0 0 0 0 127 0" result="hardAlpha"/>
<feOffset dy="-0.15"/>
<feGaussianBlur stdDeviation="0.075"/>
<feComposite in2="hardAlpha" operator="arithmetic" k2="-1" k3="1"/>
<feColorMatrix type="matrix" values="0 0 0 0 0.545098 0 0 0 0 0.529412 0 0 0 0 0.580392 0 0 0 1 0"/>
<feBlend mode="normal" in2="shape" result="effect1_innerShadow_167_3938"/>
<feColorMatrix in="SourceAlpha" type="matrix" values="0 0 0 0 0 0 0 0 0 0 0 0 0 0 0 0 0 0 127 0" result="hardAlpha"/>
<feOffset dx="0.15"/>
<feGaussianBlur stdDeviation="0.075"/>
<feComposite in2="hardAlpha" operator="arithmetic" k2="-1" k3="1"/>
<feColorMatrix type="matrix" values="0 0 0 0 0.564706 0 0 0 0 0.54902 0 0 0 0 0.6 0 0 0 1 0"/>
<feBlend mode="normal" in2="effect1_innerShadow_167_3938" result="effect2_innerShadow_167_3938"/>
<feColorMatrix in="SourceAlpha" type="matrix" values="0 0 0 0 0 0 0 0 0 0 0 0 0 0 0 0 0 0 127 0" result="hardAlpha"/>
<feOffset dy="0.15"/>
<feGaussianBlur stdDeviation="0.075"/>
<feComposite in2="hardAlpha" operator="arithmetic" k2="-1" k3="1"/>
<feColorMatrix type="matrix" values="0 0 0 0 0.619608 0 0 0 0 0.623529 0 0 0 0 0.631373 0 0 0 1 0"/>
<feBlend mode="normal" in2="effect2_innerShadow_167_3938" result="effect3_innerShadow_167_3938"/>
<feColorMatrix in="SourceAlpha" type="matrix" values="0 0 0 0 0 0 0 0 0 0 0 0 0 0 0 0 0 0 127 0" result="hardAlpha"/>
<feOffset dx="-0.15" dy="0.1"/>
<feGaussianBlur stdDeviation="0.125"/>
<feComposite in2="hardAlpha" operator="arithmetic" k2="-1" k3="1"/>
<feColorMatrix type="matrix" values="0 0 0 0 0.803922 0 0 0 0 0.803922 0 0 0 0 0.823529 0 0 0 1 0"/>
<feBlend mode="normal" in2="effect3_innerShadow_167_3938" result="effect4_innerShadow_167_3938"/>
</filter>
<filter id="filter6_f_167_3938" x="163.779" y="87.0492" width="46.4421" height="46.4421" filterUnits="userSpaceOnUse" color-interpolation-filters="sRGB">
<feFlood flood-opacity="0" result="BackgroundImageFix"/>
<feBlend mode="normal" in="SourceGraphic" in2="BackgroundImageFix" result="shape"/>
<feGaussianBlur stdDeviation="0.2" result="effect1_foregroundBlur_167_3938"/>
</filter>
<filter id="filter7_f_167_3938" x="166.394" y="89.6641" width="41.212" height="41.2119" filterUnits="userSpaceOnUse" color-interpolation-filters="sRGB">
<feFlood flood-opacity="0" result="BackgroundImageFix"/>
<feBlend mode="normal" in="SourceGraphic" in2="BackgroundImageFix" result="shape"/>
<feGaussianBlur stdDeviation="0.375" result="effect1_foregroundBlur_167_3938"/>
</filter>
<filter id="filter8_f_167_3938" x="126.675" y="64.105" width="45.0171" height="18.646" filterUnits="userSpaceOnUse" color-interpolation-filters="sRGB">
<feFlood flood-opacity="0" result="BackgroundImageFix"/>
<feBlend mode="normal" in="SourceGraphic" in2="BackgroundImageFix" result="shape"/>
<feGaussianBlur stdDeviation="0.375" result="effect1_foregroundBlur_167_3938"/>
</filter>
<filter id="filter9_i_167_3938" x="128.684" y="41.7241" width="44.8073" height="44.8037" filterUnits="userSpaceOnUse" color-interpolation-filters="sRGB">
<feFlood flood-opacity="0" result="BackgroundImageFix"/>
<feBlend mode="normal" in="SourceGraphic" in2="BackgroundImageFix" result="shape"/>
<feColorMatrix in="SourceAlpha" type="matrix" values="0 0 0 0 0 0 0 0 0 0 0 0 0 0 0 0 0 0 127 0" result="hardAlpha"/>
<feOffset dx="0.25" dy="-0.25"/>
<feGaussianBlur stdDeviation="0.375"/>
<feComposite in2="hardAlpha" operator="arithmetic" k2="-1" k3="1"/>
<feColorMatrix type="matrix" values="0 0 0 0 0.823529 0 0 0 0 0.666667 0 0 0 0 0.254902 0 0 0 1 0"/>
<feBlend mode="normal" in2="shape" result="effect1_innerShadow_167_3938"/>
</filter>
<filter id="filter10_f_167_3938" x="133.283" y="46.5696" width="35.3646" height="35.364" filterUnits="userSpaceOnUse" color-interpolation-filters="sRGB">
<feFlood flood-opacity="0" result="BackgroundImageFix"/>
<feBlend mode="normal" in="SourceGraphic" in2="BackgroundImageFix" result="shape"/>
<feGaussianBlur stdDeviation="0.75" result="effect1_foregroundBlur_167_3938"/>
</filter>
<filter id="filter11_i_167_3938" x="227" y="18.75" width="29.2523" height="29.25" filterUnits="userSpaceOnUse" color-interpolation-filters="sRGB">
<feFlood flood-opacity="0" result="BackgroundImageFix"/>
<feBlend mode="normal" in="SourceGraphic" in2="BackgroundImageFix" result="shape"/>
<feColorMatrix in="SourceAlpha" type="matrix" values="0 0 0 0 0 0 0 0 0 0 0 0 0 0 0 0 0 0 127 0" result="hardAlpha"/>
<feOffset dx="0.25" dy="-0.25"/>
<feGaussianBlur stdDeviation="0.375"/>
<feComposite in2="hardAlpha" operator="arithmetic" k2="-1" k3="1"/>
<feColorMatrix type="matrix" values="0 0 0 0 0.823529 0 0 0 0 0.666667 0 0 0 0 0.254902 0 0 0 1 0"/>
<feBlend mode="normal" in2="shape" result="effect1_innerShadow_167_3938"/>
</filter>
<filter id="filter12_f_167_3938" x="229.47" y="21.4675" width="24.0661" height="24.0657" filterUnits="userSpaceOnUse" color-interpolation-filters="sRGB">
<feFlood flood-opacity="0" result="BackgroundImageFix"/>
<feBlend mode="normal" in="SourceGraphic" in2="BackgroundImageFix" result="shape"/>
<feGaussianBlur stdDeviation="0.75" result="effect1_foregroundBlur_167_3938"/>
</filter>
<filter id="filter13_i_167_3938" x="278" y="106.75" width="12.251" height="12.25" filterUnits="userSpaceOnUse" color-interpolation-filters="sRGB">
<feFlood flood-opacity="0" result="BackgroundImageFix"/>
<feBlend mode="normal" in="SourceGraphic" in2="BackgroundImageFix" result="shape"/>
<feColorMatrix in="SourceAlpha" type="matrix" values="0 0 0 0 0 0 0 0 0 0 0 0 0 0 0 0 0 0 127 0" result="hardAlpha"/>
<feOffset dx="0.25" dy="-0.25"/>
<feGaussianBlur stdDeviation="0.375"/>
<feComposite in2="hardAlpha" operator="arithmetic" k2="-1" k3="1"/>
<feColorMatrix type="matrix" values="0 0 0 0 0.823529 0 0 0 0 0.666667 0 0 0 0 0.254902 0 0 0 1 0"/>
<feBlend mode="normal" in2="shape" result="effect1_innerShadow_167_3938"/>
</filter>
<filter id="filter14_f_167_3938" x="278.143" y="107.142" width="11.717" height="11.7168" filterUnits="userSpaceOnUse" color-interpolation-filters="sRGB">
<feFlood flood-opacity="0" result="BackgroundImageFix"/>
<feBlend mode="normal" in="SourceGraphic" in2="BackgroundImageFix" result="shape"/>
<feGaussianBlur stdDeviation="0.75" result="effect1_foregroundBlur_167_3938"/>
</filter>
<linearGradient id="paint0_linear_167_3938" x1="211.665" y1="64.1799" x2="239.186" y2="64.1799" gradientUnits="userSpaceOnUse">
<stop offset="0.197" stop-color="#949597"/>
<stop offset="0.624" stop-color="#C1C2C4"/>
</linearGradient>
<radialGradient id="paint1_radial_167_3938" cx="0" cy="0" r="1" gradientUnits="userSpaceOnUse" gradientTransform="translate(230.061 62.3275) rotate(90) scale(0.998047 7.69922)">
<stop stop-color="#CFD0D2"/>
<stop offset="1" stop-color="#CFD0D2" stop-opacity="0"/>
</radialGradient>
<linearGradient id="paint2_linear_167_3938" x1="138.222" y1="64.1799" x2="156.741" y2="64.1799" gradientUnits="userSpaceOnUse">
<stop offset="0.197" stop-color="#949597"/>
<stop offset="0.624" stop-color="#C1C2C4"/>
</linearGradient>
<radialGradient id="paint3_radial_167_3938" cx="0" cy="0" r="1" gradientUnits="userSpaceOnUse" gradientTransform="translate(150.6 62.3275) rotate(90) scale(0.998047 5.1804)">
<stop stop-color="#CFD0D2"/>
<stop offset="1" stop-color="#CFD0D2" stop-opacity="0"/>
</radialGradient>
<linearGradient id="paint4_linear_167_3938" x1="187" y1="138.106" x2="187" y2="146.446" gradientUnits="userSpaceOnUse">
<stop stop-color="#CFC6DE"/>
<stop offset="1" stop-color="#C3B4D7"/>
</linearGradient>
<linearGradient id="paint5_linear_167_3938" x1="193.273" y1="146.446" x2="193.273" y2="140.031" gradientUnits="userSpaceOnUse">
<stop stop-color="#AC91C9"/>
<stop offset="1" stop-color="#C2B3D6" stop-opacity="0"/>
</linearGradient>
<linearGradient id="paint6_linear_167_3938" x1="187" y1="138.106" x2="187" y2="140.46" gradientUnits="userSpaceOnUse">
<stop stop-color="#CFCBD7"/>
<stop offset="1" stop-color="#CFCBD7" stop-opacity="0"/>
</linearGradient>
<radialGradient id="paint7_radial_167_3938" cx="0" cy="0" r="1" gradientUnits="userSpaceOnUse" gradientTransform="translate(247.594 136.327) rotate(90) scale(8.8398 5.72721)">
<stop offset="0.242" stop-color="#F7F4FE"/>
<stop offset="1" stop-color="#C8BCDB" stop-opacity="0"/>
</radialGradient>
<radialGradient id="paint8_radial_167_3938" cx="0" cy="0" r="1" gradientUnits="userSpaceOnUse" gradientTransform="translate(179.016 125.491) rotate(90) scale(20.959 29.5792)">
<stop offset="0.645" stop-color="#9884AF"/>
<stop offset="1" stop-color="#9884AF" stop-opacity="0"/>
</radialGradient>
<linearGradient id="paint9_linear_167_3938" x1="206.532" y1="110.411" x2="247.595" y2="110.411" gradientUnits="userSpaceOnUse">
<stop stop-color="#66636F"/>
<stop offset="1" stop-color="#6B6873"/>
</linearGradient>
<linearGradient id="paint10_linear_167_3938" x1="123.266" y1="118.076" x2="135.53" y2="118.218" gradientUnits="userSpaceOnUse">
<stop offset="0.342" stop-color="#5E5C64"/>
<stop offset="1" stop-color="#5E5C64" stop-opacity="0"/>
</linearGradient>
<linearGradient id="paint11_linear_167_3938" x1="121.701" y1="111.232" x2="126.976" y2="111.232" gradientUnits="userSpaceOnUse">
<stop stop-color="#8F8F91"/>
<stop offset="1" stop-color="#6D6C71" stop-opacity="0"/>
</linearGradient>
<linearGradient id="paint12_linear_167_3938" x1="187" y1="82.7168" x2="187" y2="86.1387" gradientUnits="userSpaceOnUse">
<stop stop-color="#706F76"/>
<stop offset="1" stop-color="#706F76" stop-opacity="0"/>
</linearGradient>
<linearGradient id="paint13_linear_167_3938" x1="187" y1="82.7168" x2="187" y2="84.2133" gradientUnits="userSpaceOnUse">
<stop stop-color="#5F5E65"/>
<stop offset="1" stop-color="#5F5E65" stop-opacity="0"/>
</linearGradient>
<linearGradient id="paint14_linear_167_3938" x1="202.116" y1="138.106" x2="202.116" y2="135.327" gradientUnits="userSpaceOnUse">
<stop stop-color="#5C536A"/>
<stop offset="1" stop-color="#5C536A" stop-opacity="0"/>
</linearGradient>
<radialGradient id="paint15_radial_167_3938" cx="0" cy="0" r="1" gradientUnits="userSpaceOnUse" gradientTransform="translate(176.166 119.07) rotate(53.678) scale(38.7545 38.6066)">
<stop offset="0.597" stop-color="#4B4357"/>
<stop offset="1" stop-color="#524C5D" stop-opacity="0"/>
</radialGradient>
<linearGradient id="paint16_linear_167_3938" x1="187" y1="64.855" x2="187" y2="72.3055" gradientUnits="userSpaceOnUse">
<stop stop-color="#D8D8DC"/>
<stop offset="1" stop-color="#D8D8DC" stop-opacity="0"/>
</linearGradient>
<linearGradient id="paint17_linear_167_3938" x1="123.266" y1="80.007" x2="130.398" y2="80.007" gradientUnits="userSpaceOnUse">
<stop offset="0.22" stop-color="#C6C3CC"/>
<stop offset="1" stop-color="#C6C3CC" stop-opacity="0"/>
</linearGradient>
<linearGradient id="paint18_linear_167_3938" x1="250.734" y1="81.1477" x2="239.04" y2="81.1477" gradientUnits="userSpaceOnUse">
<stop offset="0.15" stop-color="#F9F7FE"/>
<stop offset="1" stop-color="#D3CDDD" stop-opacity="0"/>
</linearGradient>
<radialGradient id="paint19_radial_167_3938" cx="0" cy="0" r="1" gradientUnits="userSpaceOnUse" gradientTransform="translate(250.73 68.3196) rotate(135.463) scale(7.80105 9.4717)">
<stop offset="0.15" stop-color="#F9F7FE"/>
<stop offset="1" stop-color="#F9F7FE" stop-opacity="0"/>
</radialGradient>
<linearGradient id="paint20_linear_167_3938" x1="194.414" y1="82.7172" x2="194.414" y2="81.1477" gradientUnits="userSpaceOnUse">
<stop stop-color="#B6ADC6"/>
<stop offset="1" stop-color="#B6ADC6" stop-opacity="0"/>
</linearGradient>
<radialGradient id="paint21_radial_167_3938" cx="0" cy="0" r="1" gradientUnits="userSpaceOnUse" gradientTransform="translate(211.382 95.2621) rotate(143.867) scale(51.0188 51.0188)">
<stop stop-color="#A6A2AE"/>
<stop offset="1" stop-color="#A6A2AF"/>
</radialGradient>
<linearGradient id="paint22_linear_167_3938" x1="201.97" y1="86.5634" x2="187" y2="132.937" gradientUnits="userSpaceOnUse">
<stop stop-color="#6A6375"/>
<stop offset="1" stop-color="#6A6375" stop-opacity="0"/>
</linearGradient>
<linearGradient id="paint23_linear_167_3938" x1="172.601" y1="127.772" x2="180.868" y2="116.507" gradientUnits="userSpaceOnUse">
<stop offset="0.363" stop-color="#B7B6BD"/>
<stop offset="1" stop-color="#B7B6BD" stop-opacity="0"/>
</linearGradient>
<radialGradient id="paint24_radial_167_3938" cx="0" cy="0" r="1" gradientUnits="userSpaceOnUse" gradientTransform="translate(199.406 104.242) rotate(143.911) scale(29.2883 27.365)">
<stop offset="0.068" stop-color="#67616D"/>
<stop offset="1" stop-color="#4D3E5C"/>
</radialGradient>
<linearGradient id="paint25_linear_167_3938" x1="202.686" y1="87.5991" x2="171.031" y2="128.055" gradientUnits="userSpaceOnUse">
<stop stop-color="#2C2634"/>
<stop offset="0.599" stop-color="#40344C"/>
</linearGradient>
<radialGradient id="paint26_radial_167_3938" cx="0" cy="0" r="1" gradientUnits="userSpaceOnUse" gradientTransform="translate(197.863 104.991) rotate(143.911) scale(25.6503 23.9659)">
<stop offset="0.068" stop-color="#67616D"/>
<stop offset="1" stop-color="#4D3E5C"/>
</radialGradient>
<radialGradient id="paint27_radial_167_3938" cx="0" cy="0" r="1" gradientUnits="userSpaceOnUse" gradientTransform="translate(197.835 101.963) rotate(147.397) scale(33.3417 32.2606)">
<stop offset="0.78" stop-color="#554863" stop-opacity="0"/>
<stop offset="0.985" stop-color="#554863"/>
</radialGradient>
<linearGradient id="paint28_linear_167_3938" x1="192.845" y1="120.64" x2="178.162" y2="101.108" gradientUnits="userSpaceOnUse">
<stop stop-color="#463755"/>
<stop offset="1" stop-color="#473F51"/>
</linearGradient>
<radialGradient id="paint29_radial_167_3938" cx="0" cy="0" r="1" gradientUnits="userSpaceOnUse" gradientTransform="translate(179.585 118.643) rotate(-48.614) scale(19.1936 13.1618)">
<stop stop-color="#544E5C"/>
<stop offset="1" stop-color="#544E5C" stop-opacity="0"/>
</radialGradient>
<radialGradient id="paint30_radial_167_3938" cx="0" cy="0" r="1" gradientUnits="userSpaceOnUse" gradientTransform="translate(198.192 100.82) rotate(146.088) scale(10.2222)">
<stop stop-color="#544E5C"/>
<stop offset="1" stop-color="#544E5C" stop-opacity="0"/>
</radialGradient>
<linearGradient id="paint31_linear_167_3938" x1="196.288" y1="97.6853" x2="197.975" y2="105.954" gradientUnits="userSpaceOnUse">
<stop offset="0.051" stop-color="#F3F2F4"/>
<stop offset="1" stop-color="#F3F2F4" stop-opacity="0"/>
</linearGradient>
<radialGradient id="paint32_radial_167_3938" cx="0" cy="0" r="1" gradientUnits="userSpaceOnUse" gradientTransform="translate(165.045 50.2094) rotate(140.711) scale(16.2113 28.3698)">
<stop stop-color="#FFFF9C"/>
<stop offset="1" stop-color="#EAC73C"/>
</radialGradient>
<radialGradient id="paint33_radial_167_3938" cx="0" cy="0" r="1" gradientUnits="userSpaceOnUse" gradientTransform="translate(161.765 50.7797) rotate(136.736) scale(6.65704 12.0904)">
<stop offset="0.172" stop-color="#FFFCA0"/>
<stop offset="1" stop-color="#FFFCA0" stop-opacity="0"/>
</radialGradient>
<radialGradient id="paint34_radial_167_3938" cx="0" cy="0" r="1" gradientUnits="userSpaceOnUse" gradientTransform="translate(150.961 64.2528) rotate(90) scale(27.5889 27.5889)">
<stop offset="0.127" stop-color="#FFEDD9"/>
<stop offset="1" stop-color="#FFEDD9" stop-opacity="0"/>
</radialGradient>
<radialGradient id="paint35_radial_167_3938" cx="0" cy="0" r="1" gradientUnits="userSpaceOnUse" gradientTransform="translate(250.667 24.3604) rotate(140.711) scale(10.552 18.4659)">
<stop stop-color="#9CFFC4"/>
<stop offset="1" stop-color="#3CEA82"/>
</radialGradient>
<radialGradient id="paint36_radial_167_3938" cx="0" cy="0" r="1" gradientUnits="userSpaceOnUse" gradientTransform="translate(248.532 24.7316) rotate(136.736) scale(4.33306 7.86962)">
<stop offset="0.172" stop-color="#A0FFEE"/>
<stop offset="1" stop-color="#A0F4FF" stop-opacity="0"/>
</radialGradient>
<radialGradient id="paint37_radial_167_3938" cx="0" cy="0" r="1" gradientUnits="userSpaceOnUse" gradientTransform="translate(241.5 33.5012) rotate(90) scale(17.9576)">
<stop offset="0.127" stop-color="#D9FFF1"/>
<stop offset="1" stop-color="#FFEDD9" stop-opacity="0"/>
<stop offset="1" stop-color="#D9F8FF" stop-opacity="0"/>
</radialGradient>
<radialGradient id="paint38_radial_167_3938" cx="0" cy="0" r="1" gradientUnits="userSpaceOnUse" gradientTransform="translate(287.793 109.218) rotate(140.711) scale(4.36633 7.64106)">
<stop stop-color="#C29CFF"/>
<stop offset="1" stop-color="#B23CEA"/>
</radialGradient>
<radialGradient id="paint39_radial_167_3938" cx="0" cy="0" r="1" gradientUnits="userSpaceOnUse" gradientTransform="translate(286.91 109.372) rotate(136.736) scale(1.79299 3.2564)">
<stop offset="0.172" stop-color="#E6A0FF"/>
<stop offset="1" stop-color="#E1A0FF" stop-opacity="0"/>
</radialGradient>
<radialGradient id="paint40_radial_167_3938" cx="0" cy="0" r="1" gradientUnits="userSpaceOnUse" gradientTransform="translate(284 113) rotate(90) scale(7.43073)">
<stop offset="0.127" stop-color="#F5D9FF"/>
<stop offset="1" stop-color="#FFD9FB" stop-opacity="0"/>
</radialGradient>
</defs>
</svg>
