<svg width="147" height="146" viewBox="0 0 147 146" fill="none" xmlns="http://www.w3.org/2000/svg">
<rect x="1.5" y="1" width="144" height="144" rx="8" stroke="#D0D1D8" stroke-width="2" stroke-dasharray="6 6"/>
<path fill-rule="evenodd" clip-rule="evenodd" d="M62.9295 49.1975L63.641 46.843C64.151 45.1549 65.7065 44 67.47 44H80.0321C81.7946 44 83.3494 45.1536 83.8603 46.8405L84.5698 49.1829C84.8253 50.0264 85.6027 50.6032 86.484 50.6032H89.5C91.7091 50.6032 93.5 52.394 93.5 54.6032V73C93.5 75.2091 91.7091 77 89.5 77H57.5C55.2909 77 53.5 75.2091 53.5 73V54.619C53.5 52.4099 55.2909 50.619 57.5 50.619H61.015C61.8968 50.619 62.6745 50.0416 62.9295 49.1975ZM73.5 72C78.4706 72 82.5 67.9706 82.5 63C82.5 58.0294 78.4706 54 73.5 54C68.5294 54 64.5 58.0294 64.5 63C64.5 67.9706 68.5294 72 73.5 72Z" fill="#101223"/>
<circle cx="73.5" cy="63" r="6" stroke="#595D71" stroke-width="2"/>
<path d="M64.9904 100.624V93.008H63.3424V96.304H61.2464V97.664H63.3424V100.624H64.9904ZM60.6704 97.024C60.6704 95.024 59.1024 93.648 57.0224 93.648C54.9264 93.648 53.3744 95.072 53.3744 97.024C53.3744 99.024 54.9264 100.256 57.0224 100.256C59.1024 100.256 60.6704 99.024 60.6704 97.024ZM59.0224 96.992C59.0224 98.192 58.1584 98.896 57.0224 98.896C55.9024 98.896 55.0224 98.192 55.0224 96.992C55.0224 95.776 55.8864 95.008 57.0224 95.008C58.1744 95.008 59.0224 95.744 59.0224 96.992ZM65.0064 107.088V101.36H63.3584V102.944H57.3744V101.408H55.7104V107.088H65.0064ZM63.3584 105.76H57.3744V104.224H63.3584V105.76ZM78.6901 101.76V100.432H70.3541V98.48H78.2741V94H68.6581V95.312H76.6421V97.152H68.7061V101.76H72.6581V104.144H67.0581V105.456H79.9381V104.144H74.2901V101.76H78.6901ZM93.7499 104.064H80.8699V105.36H93.7499V104.064ZM92.2459 100.832V99.52H84.1659V95.584H92.1019V94.288H82.5179V100.832H92.2459Z" fill="#9194A5"/>
</svg>
