<svg width="54" height="54" viewBox="0 0 54 54" fill="none" xmlns="http://www.w3.org/2000/svg">
<g clip-path="url(#clip0_189_1671)">
<circle cx="27" cy="27" r="27" fill="#F5EDD9"/>
<rect x="-2" y="39" width="63" height="16" fill="#CBBF7F"/>
<rect x="-2" y="39" width="63" height="2" fill="#DDD190"/>
<rect x="-2" y="41" width="63" height="7" fill="#D5BE49"/>
<path d="M44.4123 16.0449L46.4186 17.5264L45.4786 21.7749L42.7415 19.4032L44.4123 16.0449Z" fill="#E0E0E0"/>
<path d="M57.4335 26.8434C57.0614 26.9065 56.7924 26.953 56.4004 26.9763C55.6065 27.0161 55.0485 26.9563 54.3974 26.5245C53.6434 26.0263 52.876 25.4749 52.0622 25.0729C50.5874 24.3388 48.7737 24.186 47.2922 24.9766C46.505 25.3951 45.814 26.116 45.3789 26.8567C45.07 27.3782 44.7278 27.9662 45.256 28.4611C46.5149 29.647 48.2323 28.5342 49.7104 29.0158C51.2949 29.5307 52.1785 30.8693 54.0486 30.7929C55.364 30.7398 56.5034 30.0422 57.2408 29.0258C57.377 28.8431 57.4966 28.6471 57.6062 28.4511C57.8155 28.0725 58.4632 26.6707 57.4335 26.8434Z" fill="#2F2F2F"/>
<path d="M48.0462 31.6701C47.5613 30.1455 47.9964 28.2355 46.9202 26.9965C46.4784 26.4849 45.8772 25.8538 45.1829 25.7574C44.4355 25.6545 43.5852 25.4286 42.8112 25.4651C40.8879 25.5615 39.1905 26.372 37.2506 26.1228C36.5265 26.0298 35.799 26.0664 35.148 25.7109C34.7161 25.4718 34.3939 25.1164 33.9787 24.8539C32.8294 24.1232 31.7698 23.4356 30.8629 22.3959C29.9528 21.3528 29.5143 19.9544 28.6806 18.8649C28.4547 18.5659 28.2388 18.3035 27.973 18.0278C27.7405 17.782 27.5877 17.483 27.3851 17.214C26.9566 16.6493 26.4351 16.1477 25.97 15.6062C25.7309 15.3305 25.4219 15.2209 25.1363 15.015C24.8705 14.8256 24.6779 14.8057 24.3557 14.7658C23.9338 14.7127 23.5717 14.6064 23.1366 14.6031C22.7048 14.5998 22.2862 14.7592 21.8544 14.7791C21.5322 14.7957 21.2366 14.912 20.9708 15.1013C20.446 15.48 20.1205 16.0746 19.7517 16.5961C18.918 17.772 18.4729 18.6357 17.5793 19.7617C17.1076 20.3563 16.151 21.1801 16.0148 21.984C15.8587 22.9107 16.9715 23.9903 17.7687 24.2361C18.9877 24.6048 20.9741 23.223 21.8909 22.5752C22.2264 22.3394 22.6317 22.2896 22.9971 22.1235C23.2097 22.0271 23.2927 21.9607 23.5186 22.1202C24.555 22.8476 24.9004 24.2461 24.9934 25.4352C25.1064 26.8868 24.6878 27.9 24.2427 29.2386C23.781 30.6271 23.7478 32.2813 23.9272 33.7163C24.0567 34.7527 24.6181 35.3539 23.4754 36.0183C22.7347 36.4468 21.9806 36.9019 21.7249 37.7755C21.5056 38.5229 21.5853 39.3267 21.6086 40.094C21.6485 41.6386 21.695 43.1401 22.4623 44.4787C22.6118 44.7411 22.7978 44.8873 23.0469 45.1198C23.6614 45.7011 24.1265 46.226 25.0233 46.0333C25.608 45.9104 25.5116 45.4653 25.5482 45.0002C25.588 44.4555 25.691 44.1166 25.4651 43.5719C25.2226 42.9906 24.452 43.1334 24.256 42.4757C24.0102 41.642 24.0036 40.6122 24.1663 39.7652C24.5118 37.9781 26.5115 38.2804 27.9332 38.2604C29.1655 38.2472 30.4012 38.2837 31.6303 38.1541C33.1649 37.9881 34.6829 37.6825 36.1744 37.2971C37.5795 36.9317 38.948 36.4169 40.383 36.1644C40.8647 36.0814 41.5523 35.9485 42.0339 35.9784C42.6185 36.0183 43.0869 36.6195 43.5088 36.965C46.289 39.247 53.3776 40.4162 51.7932 36.6627C51.4244 35.7924 50.3648 35.3739 49.7204 34.7427C48.9265 33.9555 48.3751 32.7098 48.0462 31.6701Z" fill="#3F3F3F"/>
<path d="M23.7179 15.3239C23.7577 15.1113 23.8175 14.892 23.8242 14.6761C23.8308 14.5233 23.7411 14.3406 23.7876 14.1911C24.0301 14.148 24.3158 14.2044 24.5516 14.2543C24.8406 14.3174 25.0698 14.3606 25.3721 14.3606C25.6312 14.3606 25.8404 14.3107 25.9069 14.5964C25.9368 14.7293 25.8637 14.8256 25.9633 14.9385C26.0397 15.0249 26.2125 15.0448 26.3221 15.0681C26.5048 15.1113 26.6941 15.1312 26.8669 15.201C26.9366 15.2308 26.9964 15.2209 27.0695 15.2275C27.1592 15.2375 27.2987 15.2873 27.3817 15.3338C27.581 15.4434 27.498 15.6261 27.5844 15.7922C27.6242 15.8719 27.7139 15.8919 27.7903 15.9351C27.9032 15.9982 28.0029 16.058 28.1225 16.1045C28.345 16.1875 28.5809 16.2971 28.7835 16.42C28.9728 16.5363 28.9728 16.7821 29.1057 16.9415C29.2319 17.091 29.4246 17.184 29.5973 17.2804C29.7534 17.3667 29.9328 17.4797 29.9627 17.669C29.9727 17.762 29.9295 17.8583 29.9361 17.9414C29.9461 18.0145 30.0391 18.0842 30.1022 18.1174C30.4344 18.2902 31.0323 18.4895 31.0257 18.9611C31.0223 19.2169 31.2084 19.3066 31.411 19.4328C31.5106 19.4959 31.6036 19.5524 31.7066 19.6189C31.793 19.6786 31.9225 19.7019 31.989 19.7883C32.0454 19.858 32.0787 19.9377 32.1384 20.0075C32.2746 20.1703 32.3344 20.343 32.3444 20.5589C32.3544 20.9044 32.3975 20.921 32.64 21.1468C33.0386 21.5189 33.2778 21.7713 33.2878 22.3294C33.2977 22.7778 33.7893 22.9971 33.9554 23.389C34.075 23.6813 33.9986 24.0135 34.065 24.3158C34.1116 24.5217 34.1813 24.7111 34.0717 24.9104C33.8525 25.3156 33.1549 25.3422 32.7563 25.3422C32.5072 25.3422 32.2414 25.3654 31.9989 25.3289C31.4708 25.2525 31.2582 24.9702 31.0888 24.5084C30.8994 23.9869 30.7931 23.4355 30.5839 22.9207C29.9162 21.2764 28.6838 19.9078 27.3352 18.7884C26.8868 18.4164 26.4782 18.0244 26.0099 17.6657C25.6677 17.4033 25.2791 17.2073 24.9569 16.9116C24.8107 16.7754 24.6646 16.5894 24.4719 16.5164C24.2726 16.44 24.1165 16.4167 23.9138 16.3038C23.5352 16.0945 23.5418 15.9351 23.6747 15.5132C23.688 15.4667 23.7079 15.3969 23.7179 15.3239Z" fill="#2F2F2F"/>
<path d="M24.0201 13.9418C24.0235 13.902 24.0268 13.8621 24.0268 13.8222C24.0334 13.3771 23.7843 13.0084 23.3126 12.922C22.7579 12.8224 22.645 13.3705 22.4523 13.7757C22.2995 14.0946 22.1932 14.2707 21.8544 14.4102C21.2598 14.6593 20.8645 15.1542 20.5323 15.6924C20.1968 16.2405 19.8182 16.7354 19.569 17.3333C20.7482 17.1406 22.0769 17.4462 23.1897 17.8448C23.6348 18.0043 24.1896 18.5789 24.6779 18.5258C25.6412 18.4162 25.196 17.1074 24.834 16.6424C24.545 16.267 23.6348 15.7256 23.6714 15.2007C23.6946 14.7689 23.967 14.357 24.0201 13.9418Z" fill="#3F3F3F"/>
<path d="M42.386 24.9466C41.3895 24.2225 39.6921 24.8735 38.483 24.8735C37.6326 24.8735 36.8288 24.8503 36.0016 24.7307C35.4635 24.651 34.8457 24.1428 34.2843 24.2956C33.6067 24.4816 33.7993 25.7073 33.7562 26.262C33.6964 27.0161 33.6399 27.7468 33.6399 28.5108C33.6399 29.6269 33.7794 30.959 34.9387 31.3675C36.5364 31.9322 38.5195 31.8193 40.1737 31.6864C41.2998 31.5967 43.047 31.434 43.5619 30.2514C44.0668 29.0988 43.4157 26.7503 42.9275 25.6475C42.7879 25.3286 42.6019 25.1061 42.386 24.9466Z" fill="#FCC21B"/>
<path d="M51.2418 39.4991C51.6138 39.6884 51.9659 39.9409 52.225 40.21C52.597 40.592 52.9093 41.0271 53.2381 41.4423C53.7962 42.1499 54.2911 42.9371 55.0651 43.4287C55.6364 43.7875 57.2076 44.2691 57.5664 43.3955C57.7424 42.9637 57.377 42.1 57.1877 41.6682C56.9419 41.1035 56.4037 40.3694 55.7494 40.2764C55.4205 40.2266 55.3142 40.293 55.0286 40.0704C54.8492 39.9343 54.6399 39.7648 54.4904 39.5988C54.0055 39.0806 53.7264 38.3 53.361 37.6954C52.7897 36.762 51.8895 34.9417 50.6904 34.6726C49.6772 34.4468 48.302 34.955 47.9068 35.9648C47.6643 36.5926 48.0463 36.9879 48.4117 37.4596C48.7372 37.8814 48.8867 38.4561 49.2355 38.8514C49.5377 39.1869 49.9662 39.0972 50.3682 39.1769C50.6505 39.24 50.9528 39.3496 51.2418 39.4991Z" fill="#3F3F3F"/>
<path d="M31.6535 22.0206L31.0689 21.1337C29.1788 22.3827 23.0569 22.7713 20.5589 22.8278C20.4925 22.6883 20.4194 22.5554 20.343 22.4259C20.7516 22.1601 21.1668 21.8977 21.5787 21.632C21.8046 21.4858 22.0304 21.3397 22.2596 21.1968C22.3527 21.1337 22.625 20.8945 22.7479 20.9311C22.9406 20.9876 22.6151 22.1269 22.645 22.2963C22.8111 22.3262 22.9838 22.283 23.1499 22.2764C23.2263 22.2731 23.2927 22.2631 23.3724 22.2565C23.8209 22.2033 23.7378 21.0241 23.7677 20.7118C23.8175 20.2202 23.8574 19.7319 23.8939 19.2403C23.9272 18.7587 23.9604 18.277 23.9869 17.7954C23.9903 17.7555 24.1995 17.6293 24.2328 17.606C24.4088 17.4632 24.5682 17.2938 24.7543 17.1576C24.8772 17.0646 25.1064 16.9782 25.1363 16.8088C25.1562 16.7092 25.0565 16.5896 25.0001 16.5165C24.8838 16.367 24.7111 16.191 24.5217 16.1411C24.3689 16.1013 24.2394 16.2508 24.1265 16.3371C23.9205 16.4999 23.7112 16.6627 23.502 16.8221C23.4953 16.8287 22.7446 15.9551 22.6948 15.8987L21.9208 15.0151C21.6983 14.7593 21.5322 14.4039 21.1535 14.6563C21.0339 14.7361 20.931 14.839 20.8379 14.9453C20.8014 14.9819 20.7615 15.035 20.735 15.0782C20.6851 15.1579 20.6386 15.2576 20.7217 15.3306C20.8114 15.4104 20.9143 15.4768 20.9941 15.5665C21.1037 15.6861 21.2067 15.809 21.313 15.9319C21.5322 16.181 21.7481 16.4301 21.964 16.6793C21.9972 16.7125 22.0238 16.749 22.057 16.7822C22.346 17.1111 22.6317 17.4399 22.9207 17.7688C22.8875 18.3003 22.8476 18.9547 22.7944 19.5825L19.7285 21.5522C19.6023 21.4028 19.4727 21.2566 19.3398 21.1138C19.1405 20.9012 18.9246 20.6986 18.7021 20.5059C18.4264 20.2667 17.8417 19.7419 17.4332 19.815C17.2339 19.8515 17.1143 20.0608 16.9881 20.2003C16.8884 20.3132 16.7655 20.4195 16.7954 20.5823C16.8286 20.6753 17.2638 20.7982 17.3568 20.8414C17.6391 20.9809 17.8816 21.1968 18.1174 21.4061C18.5327 21.7748 18.9147 22.1867 19.2302 22.6451C19.3365 22.7979 19.4329 22.9573 19.5225 23.1201C19.6023 23.2663 19.6986 23.4024 19.7418 23.5619C19.7683 23.6516 19.7418 23.811 19.8082 23.8808C19.8614 23.9339 19.9975 23.9074 20.0706 23.9074C20.4128 23.9074 20.7615 23.8808 21.1037 23.8675L21.8677 23.8376C22.552 23.8044 23.2329 23.7612 23.9172 23.708C24.7277 23.6449 25.5382 23.5619 26.3487 23.4589C27.1625 23.3526 27.9763 23.2231 28.7835 23.047C29.4811 22.8942 30.1787 22.7115 30.843 22.4358C30.9061 22.4126 31.6701 22.0472 31.6535 22.0206Z" fill="#F79329"/>
<path d="M39.5858 25.5648L37.7954 22.6384L43.2563 17.7754L46.2293 21.3164L39.5858 25.5648Z" fill="#E0E0E0"/>
<path d="M47.2175 19.7597C47.443 18.4415 46.5571 17.19 45.2389 16.9646C43.9207 16.7391 42.6692 17.625 42.4438 18.9432C42.2183 20.2614 43.1042 21.5129 44.4224 21.7383C45.7406 21.9638 46.9921 21.0779 47.2175 19.7597Z" fill="#E0E0E0"/>
<path d="M40.4713 24.6719C40.8697 23.8092 40.4932 22.7868 39.6304 22.3885C38.7677 21.9901 37.7453 22.3666 37.347 23.2293C36.9486 24.0921 37.3251 25.1144 38.1878 25.5128C39.0506 25.9112 40.073 25.5347 40.4713 24.6719Z" fill="#E0E0E0"/>
<path d="M40.8912 30.5574L38.3468 30.7966L37.2008 24.0136L40.5391 23.7578L40.8912 30.5574Z" fill="#E0E0E0"/>
<path d="M40.2601 33.0884L37.6459 33.3276C37.4024 33.3497 37.16 33.2744 36.9719 33.1181C36.7839 32.9618 36.6655 32.7373 36.6427 32.4938L36.6394 32.4473C36.6173 32.2038 36.6926 31.9614 36.8489 31.7733C37.0052 31.5853 37.2297 31.4669 37.4732 31.4441L40.0874 31.205C40.3309 31.1828 40.5733 31.2581 40.7614 31.4144C40.9494 31.5707 41.0678 31.7953 41.0905 32.0387L41.0939 32.0852C41.1437 32.5935 40.7683 33.0419 40.2601 33.0884Z" fill="black"/>
<path d="M36.6371 32.3779L41.0865 31.9727L41.2021 33.2432L36.7527 33.6485L36.6371 32.3779Z" fill="black"/>
<path d="M39.4719 31.2614L41.0102 31.1216L41.1045 32.157L39.5662 32.2971L39.4719 31.2614Z" fill="black"/>
<path d="M34.1282 12.7329L36.3006 14.5466L35.1181 16.3702L30.3514 13.3873L34.1282 12.7329Z" fill="#FFF0DE"/>
<path d="M32.3743 10.5671L35.5632 14.0483L33.3077 16.1476C33.0593 16.3791 32.7664 16.5577 32.4468 16.6724C32.1272 16.7872 31.7877 16.8358 31.4487 16.8153C31.1098 16.7948 30.7785 16.7056 30.4751 16.5532C30.1717 16.4007 29.9025 16.1881 29.6837 15.9284L28.5643 14.603C27.5313 13.3773 27.7804 11.5271 29.1024 10.617L29.6273 10.2549C30.4976 9.6603 31.6668 9.79317 32.3743 10.5671Z" fill="#FFF0DE"/>
<path d="M34.6198 12.8524L33.3874 13.6363L32.65 12.9421C32.4009 12.7096 32.0455 12.6298 31.7199 12.7395L32.2215 13.7924C31.9358 13.9751 31.5738 13.9951 31.2682 13.8423L30.6603 13.5433C30.3979 13.4138 30.089 13.4204 29.8299 13.5599L28.375 14.3439C28.375 14.3439 26.8769 12.693 28.3185 11.0055C28.5676 10.7132 28.8267 10.4441 29.0891 10.195C30.2982 9.03573 32.2547 9.22175 33.2313 10.5837C33.7495 11.3045 34.2146 12.0651 34.6198 12.8524Z" fill="#6D4C41"/>
<path d="M28.5975 9.78647C28.5145 9.84958 28.4381 9.91934 28.3683 9.99241C27.973 10.3977 27.5611 11.062 27.4183 11.6134C27.2157 12.404 27.4316 13.0517 27.4814 13.8323C27.508 14.2276 26.7041 15.1278 27.1459 15.4135C28.0262 15.9848 28.7902 14.1678 29.4113 13.8024C29.8731 13.5267 30.4012 13.3872 30.8829 13.1447C31.7465 12.7129 32.5736 12.2246 33.3874 11.7064C33.5037 11.6333 33.61 11.5503 33.7163 11.4606C33.8824 11.3211 34.0186 11.2181 33.9156 10.9989C33.806 10.7631 33.6366 10.5405 33.4838 10.3312C32.4607 8.91949 30.3381 8.46442 28.5975 9.78647Z" fill="#8D6E63"/>
<path d="M31.8295 12.9087C32.2414 13.7458 32.6467 14.8287 32.6168 15.7886C32.6135 15.865 32.5935 16.0178 32.6201 16.0843C33.1283 15.8883 32.8892 14.3437 32.8061 13.9218C32.6886 13.3201 32.4719 12.742 32.165 12.2111C32.0953 12.0882 32.0754 12.075 31.9458 12.1148C31.7598 12.168 31.6668 12.3241 31.4974 12.3972C31.5107 12.5134 31.6834 12.6629 31.7432 12.7592C31.7764 12.8057 31.803 12.8589 31.8295 12.9087Z" fill="#8D6E63"/>
<path d="M38.4963 31.494L37.4799 26.1692L40.8547 25.9268L41.0142 31.1585L38.4963 31.494Z" fill="black"/>
<path d="M34.1282 16.2075C33.8492 15.4701 33.7761 14.2112 34.364 13.5933C34.952 12.9755 37.2373 12.9057 40.569 14.0285C42.0904 14.5433 43.4556 15.1313 44.3093 15.5232C44.7743 15.7358 44.884 16.3437 44.5285 16.7091L41.0208 19.7651C41.0208 19.7651 34.9653 18.4298 34.1282 16.2075Z" fill="#01BEA4"/>
<path d="M37.2358 20.7984C37.2594 20.2044 36.7971 19.7038 36.2032 19.6801C35.6093 19.6565 35.1086 20.1188 35.085 20.7127C35.0613 21.3066 35.5236 21.8073 36.1175 21.8309C36.7115 21.8546 37.2121 21.3923 37.2358 20.7984Z" fill="#05A287"/>
<path d="M35.2675 21.0604L37.2273 20.6451L36.8819 15.5164C36.8466 15.3497 36.7788 15.1917 36.6824 15.0512C36.586 14.9108 36.4629 14.7907 36.32 14.6978C36.1772 14.605 36.0175 14.5412 35.85 14.5101C35.6825 14.479 35.5105 14.4812 35.3439 14.5166L35.2808 14.5298C35.1141 14.5651 34.9561 14.6329 34.8156 14.7293C34.6752 14.8257 34.5551 14.9489 34.4622 15.0917C34.3694 15.2345 34.3056 15.3942 34.2745 15.5617C34.2434 15.7292 34.2456 15.9012 34.281 16.0678L35.2675 21.0604Z" fill="#05A287"/>
<path d="M32.4042 20.7249L32.7497 22.8973L36.6494 21.7115L35.0716 19.9941L32.4042 20.7249Z" fill="#05A287"/>
<path d="M30.4211 22.2561L30.4344 22.3159C30.4689 22.4747 30.5342 22.6252 30.6268 22.7587C30.7194 22.8922 30.8374 23.0062 30.9741 23.0941C31.1107 23.182 31.2634 23.2422 31.4233 23.2711C31.5832 23.3 31.7472 23.2971 31.906 23.2626L32.5902 23.1131C32.749 23.0787 32.8995 23.0133 33.033 22.9207C33.1665 22.8281 33.2805 22.7101 33.3684 22.5735C33.4563 22.4368 33.5165 22.2842 33.5454 22.1243C33.5743 21.9644 33.5714 21.8004 33.5369 21.6416L33.5236 21.5818C33.4892 21.423 33.4238 21.2726 33.3312 21.139C33.2386 21.0055 33.1207 20.8915 32.984 20.8036C32.8474 20.7157 32.6947 20.6556 32.5348 20.6267C32.3749 20.5978 32.2109 20.6006 32.0521 20.6351L31.3678 20.7846C31.209 20.8189 31.0584 20.8842 30.9248 20.9767C30.7912 21.0693 30.6771 21.1873 30.5892 21.3239C30.5012 21.4606 30.4411 21.6133 30.4123 21.7733C30.3835 21.9333 30.3865 22.0973 30.4211 22.2561Z" fill="#FFF0DE"/>
</g>
<defs>
<clipPath id="clip0_189_1671">
<rect width="54" height="54" rx="27" fill="white"/>
</clipPath>
</defs>
</svg>
