<svg width="96" height="96" viewBox="0 0 96 96" fill="none" xmlns="http://www.w3.org/2000/svg">
<g clip-path="url(#clip0_170_2310)">
<circle cx="48" cy="48" r="48" fill="#D2E4FF"/>
<rect y="58.6665" width="99.5556" height="40.8889" fill="#63B4FF"/>
<rect y="80" width="99.5556" height="16" fill="#508BFF"/>
<rect y="58.6665" width="99.5556" height="8.88889" fill="#81C2FF"/>
<rect y="58.6665" width="99.5556" height="3.55555" fill="#8EE6EC"/>
<path fill-rule="evenodd" clip-rule="evenodd" d="M72.8889 54.303C72.8889 54.5783 72.913 54.8483 72.9592 55.1111H82.9774H84.0009H90.56C90.6297 54.8528 90.6667 54.582 90.6667 54.303C90.6667 52.5179 89.1506 51.0707 87.2805 51.0707C86.8809 51.0707 86.4974 51.1369 86.1415 51.2581C86.3299 50.8272 86.4339 50.3545 86.4339 49.8585C86.4339 47.8502 84.7283 46.2222 82.6244 46.2222C80.6385 46.2222 79.0076 47.6722 78.8308 49.5239C78.5504 49.4782 78.2623 49.4545 77.9683 49.4545C75.163 49.4545 72.8889 51.6254 72.8889 54.303Z" fill="white"/>
<circle cx="60.4445" cy="39.1112" r="3.55556" fill="white"/>
<path fill-rule="evenodd" clip-rule="evenodd" d="M10.6667 40.5658C10.6667 41.2816 10.7245 41.9835 10.8353 42.6668H34.8792H37.3355H53.0774C53.2445 41.9952 53.3334 41.2912 53.3334 40.5658C53.3334 35.9247 49.6949 32.1617 45.2064 32.1617C44.2475 32.1617 43.3272 32.3341 42.473 32.649C42.9251 31.5288 43.1747 30.2997 43.1747 29.0102C43.1747 23.7885 39.0813 19.5557 34.0318 19.5557C29.2658 19.5557 25.3516 23.3258 24.9272 28.1403C24.2544 28.0213 23.5628 27.9597 22.8572 27.9597C16.1246 27.9597 10.6667 33.6041 10.6667 40.5658Z" fill="white"/>
</g>
<defs>
<clipPath id="clip0_170_2310">
<rect width="96" height="96" rx="48" fill="white"/>
</clipPath>
</defs>
</svg>
