<svg width="96" height="96" viewBox="0 0 96 96" fill="none" xmlns="http://www.w3.org/2000/svg">
<g clip-path="url(#clip0_189_1828)">
<circle cx="48" cy="48" r="48" fill="#F8F2DD"/>
<path d="M5.33325 61.3329H58.667C51.8837 61.3329 46.6821 55.8234 43.4771 50.5853C42.8838 51.0971 40.9699 51.8136 38.0608 50.5853C34.4244 49.0499 34.7733 49.8539 29.5759 50.5853C24.3784 51.3168 25.9395 52.1207 25.539 49.8539C25.2187 48.0404 22.0366 49.0982 20.4855 49.8539C14.3502 54.7943 6.08746 61.3329 5.33325 61.3329Z" fill="#A6CC8F"/>
<path d="M40.4851 44.4443H27.1517C27.1517 44.4443 24.2107 46.8548 20.4856 49.8544C22.0366 49.0987 25.2188 48.0409 25.5391 49.8544C25.9395 52.1212 24.3785 51.3173 29.5759 50.5858C34.7734 49.8544 34.4245 49.0505 38.0608 50.5858C40.97 51.8141 42.8839 51.0976 43.4772 50.5858C42.1005 48.3358 41.0921 46.1359 40.4851 44.4443Z" fill="#92BA88"/>
<rect x="-10.6667" y="60.4443" width="117.333" height="37.3333" fill="#90B76A"/>
<path d="M38.4925 63.9095C38.4925 61.8306 41.2069 61.8304 45.7308 60.4443H52.0644C48.4452 60.4443 45.731 62.5234 47.5405 64.6025C49.35 66.6816 55.6836 71.5328 62.0171 75.691C68.3506 79.8492 77.3984 89.5517 64.7314 95.789C55.0803 97.6371 35.5972 101.333 34.8733 101.333C33.9685 101.333 23.1111 94.4029 23.1111 93.7099C31.2542 89.5517 49.1238 77.7701 47.5404 72.9189C45.7308 67.3748 38.4925 65.9884 38.4925 63.9095Z" fill="#F0DBBC"/>
<path d="M23.1111 65.7777C24 63.111 18.963 61.9258 16 60.4443H9.77778H0C2.07407 67.5554 6.4 83.3777 7.11111 89.7777C7.82222 96.1777 17.1852 95.111 21.3333 93.3332C25.7778 92.7406 34.0049 86.9596 36.4444 85.3332C39.1111 83.5554 40 81.7777 39.1111 80.8888C37.7057 79.4833 30.2222 74.6666 24 74.6666C18.5931 74.6666 16 71.9999 10.6667 71.111C5.33333 70.2221 22.4826 67.6633 23.1111 65.7777Z" fill="#589A26"/>
<path d="M16.8888 79.111C12.6221 79.111 11.5555 80.8888 12.4444 81.7777C14.8147 85.6296 21.8665 93.5113 23.9998 94.2224C26.6665 95.1113 27.5554 92.4447 32.8887 88.8891C38.2221 85.3335 40.8888 83.5552 40.8888 81.7774C40.8888 79.9996 37.3333 78.222 33.7777 79.1109C30.2221 79.9998 24.8887 82.6666 24.8887 80.8888C24.8887 79.111 22.2221 79.111 16.8888 79.111Z" fill="#1F712C"/>
<path d="M76.4445 57.7778C72.8889 58.4889 67.8519 64 65.7778 66.6667H102.222C104 66.6667 98.6667 51.5556 96.0001 49.7778C93.3334 48 89.7778 52.4445 87.1112 56C84.4445 59.5556 80.8889 56.8889 76.4445 57.7778Z" fill="#589A26"/>
<rect x="12.4443" y="28.4443" width="37.3333" height="7.11111" rx="3.55556" fill="white"/>
<rect x="60.4443" y="40.8887" width="23.1111" height="3.55555" rx="1.77778" fill="white"/>
<rect x="56.8889" y="46.2222" width="8.88889" height="1.77778" rx="0.888889" fill="white"/>
<rect x="71.1111" y="17.7778" width="3.55555" height="1.77778" rx="0.888888" fill="white"/>
<rect x="24.8889" y="23.1113" width="23.1111" height="3.55556" rx="1.77778" fill="white"/>
</g>
<defs>
<clipPath id="clip0_189_1828">
<rect width="96" height="96" rx="48" fill="white"/>
</clipPath>
</defs>
</svg>
