<svg width="96" height="96" viewBox="0 0 96 96" fill="none" xmlns="http://www.w3.org/2000/svg">
<g clip-path="url(#clip0_189_1906)">
<circle cx="48" cy="48" r="48" fill="#ECF3F7"/>
<rect x="-10.6667" y="60.4443" width="117.333" height="37.3333" fill="#90B76A"/>
<rect x="-10.6667" y="65.7778" width="117.333" height="16" fill="#F0DBBC"/>
<path d="M32.8889 32H64C66.7466 35.8213 70.9178 41.1828 75.4312 46.2222C82.1165 53.6866 89.5526 60.4444 94.2222 60.4444H0C6.27016 57.3094 17.0757 50.8571 24.7041 43.5556C28.6111 39.816 31.6847 35.8536 32.8889 32Z" fill="#7DBF4A"/>
<path fill-rule="evenodd" clip-rule="evenodd" d="M28.8649 47.2301C29.7795 46.4157 30.9995 45.3293 32.8889 44.8653C34.8365 44.387 36.5471 43.4907 38.0206 42.7185C40.582 41.3763 42.427 40.4096 43.5555 42.6667C45.3333 46.2222 48 46.2222 49.7778 45.3333C50.6513 44.8965 50.881 43.172 51.0996 41.5307C51.3259 39.8318 51.5402 38.2222 52.4444 38.2222C53.1702 38.2222 53.1552 38.3704 53.1253 38.6667C53.0819 39.0961 53.0071 39.8369 55.1111 40.8889C57.6563 42.1615 58.835 41.1566 59.6255 40.4828C59.9392 40.2153 60.1918 40 60.4444 40C60.8474 40 60.7023 39.452 60.7545 39.4325C60.8175 39.409 61.1674 40.1541 63.1111 43.5556C66.6666 49.7778 68.4444 51.5556 71.1111 49.7778C72.2927 48.99 72.9263 48.0278 73.4203 47.2776C74.041 46.3349 74.4412 45.7272 75.4312 46.2222C70.9177 41.1828 66.7465 35.8213 64 32H32.8888C31.6847 35.8536 28.6111 39.816 24.7041 43.5555L24.7041 43.5556C26.5454 49.2955 27.1977 48.7147 28.8649 47.2301Z" fill="#59A022"/>
<path d="M54.8148 39.1113C54.0242 39.708 51.3358 41.0121 47.8605 41.2236L47.9833 43.2418C50.032 43.1171 51.7901 42.6979 53.1898 42.1858L54.5096 45.3411C53.9163 48.4335 52.5615 52.779 50.7188 56.2932C49.8045 57.5879 47.5126 61.4665 46.174 62.3953C47.3883 62.3962 48.4169 63.0256 49.0495 63.8655C49.145 63.993 49.2334 64.1256 49.3144 64.2628L58.1473 54.0374L59.0071 56.0932C55.528 57.8798 53.1405 61.5069 53.1405 65.6786C53.1405 71.6127 57.9712 76.4447 63.9035 76.4447C69.8356 76.4447 74.6666 71.6127 74.6666 65.6786C74.6666 59.7445 69.8356 54.9125 63.9034 54.9125C62.8817 54.9119 61.8653 55.0574 60.8848 55.3445L56.6117 45.1291L57.8519 45.0117C58.0484 44.6177 58.4922 43.6928 57.5017 42.9095L55.7181 42.9926L55.0345 41.3588C55.4277 41.1426 55.7638 40.9277 56.0317 40.7255L54.8148 39.1113ZM37.5666 46.5867C36.7608 46.5832 36.0309 46.6648 35.5322 46.8889C34.7908 47.2219 35.0078 49.2654 36.1431 49.9588C36.9506 50.0082 37.685 49.9419 38.5039 49.8111L39.0291 51.0881H26.001V53.11H27.4874L27.9544 54.7453C24.0705 56.3724 21.3333 60.2142 21.3333 64.6809C21.3333 70.6151 26.1642 75.4472 32.0965 75.4472C36.1381 75.4472 39.6679 73.2038 41.5076 69.8974L39.3431 69.5832C37.7738 71.904 35.118 73.4252 32.0965 73.4252C27.2561 73.4252 23.3541 69.522 23.3541 64.6809C23.3541 61.1186 25.4683 58.0664 28.513 56.7013L30.2214 62.6823C30.547 62.5051 30.9202 62.3953 31.3207 62.3953H32.2411L30.4412 56.0943C30.9868 55.9898 31.5409 55.937 32.0964 55.9366C33.5617 55.9366 34.9399 56.2964 36.151 56.9295L32.5926 62.3953H35.0043L37.8219 58.0678C39.1176 59.1904 40.0783 60.6884 40.5374 62.3953H42.6139C42.0916 59.9906 40.7639 57.882 38.9277 56.3692L40.3209 54.2292L43.6799 62.3953H45.9041L40.5337 49.4334C41.1587 49.3125 41.8552 49.1818 42.6643 49.0515C44.4185 48.7691 43.8965 47.8189 42.6249 47.3323C42.1785 47.1614 39.6256 46.5957 37.5666 46.5867ZM55.8427 48.5279L57.2758 51.9542L52.1598 57.8765C52.2777 57.6642 52.3942 57.4499 52.5082 57.2326C53.9606 54.4629 55.0931 51.3158 55.8427 48.5279ZM29.5887 53.1099H38.6376L37.2543 55.2349C35.7217 54.3938 33.9636 53.9147 32.0964 53.9147C31.3384 53.9147 30.5985 53.994 29.8841 54.1439L29.5887 53.1099ZM63.9035 56.9342C68.7438 56.9342 72.6456 60.8373 72.6456 65.6784C72.6457 70.5196 68.7438 74.4227 63.9035 74.4227C59.063 74.4227 55.1613 70.5196 55.1613 65.6784C55.1613 62.3276 57.0314 59.4272 59.7874 57.9585L62.9714 65.57L64.8356 64.7894L61.6699 57.2215C62.399 57.0304 63.1497 56.9339 63.9035 56.9342Z" fill="black"/>
<path d="M31.0163 64.6008C31.1417 64.4454 31.213 64.417 31.3206 64.417H46.1714C46.7292 64.417 47.1125 64.6532 47.4355 65.082C47.7583 65.5108 47.9518 66.1421 47.9321 66.7174C47.9124 67.2925 47.7082 67.7688 47.3384 68.0722C46.9688 68.3754 46.3633 68.5955 45.2392 68.3966L45.2235 68.3938L31.5022 66.4016C31.1376 66.3327 31.0045 66.2078 30.8954 66.037C30.7858 65.8656 30.7244 65.6021 30.7491 65.3196C30.7739 65.0372 30.8908 64.7563 31.0163 64.6008Z" fill="#FF4E4E"/>
<rect x="39.1111" y="32" width="23.1111" height="1.77778" fill="#7DB1FF"/>
</g>
<rect x="10.6667" y="30.2222" width="37.3333" height="7.11111" rx="3.55556" fill="white"/>
<rect x="23.1111" y="24.8887" width="23.1111" height="3.55556" rx="1.77778" fill="white"/>
<rect x="60.4443" y="40.8887" width="23.1111" height="3.55555" rx="1.77778" fill="white"/>
<defs>
<clipPath id="clip0_189_1906">
<rect width="96" height="96" rx="48" fill="white"/>
</clipPath>
</defs>
</svg>
