<svg width="54" height="54" viewBox="0 0 54 54" fill="none" xmlns="http://www.w3.org/2000/svg">
<g clip-path="url(#clip0_189_994)">
<path d="M54 27C54 41.9117 41.9117 54 27 54C12.0883 54 1.52588e-05 41.9117 1.52588e-05 27C1.52588e-05 12.0883 12.0883 0 27 0C41.9117 0 54 12.0883 54 27Z" fill="#DADC87"/>
<path d="M39.5 17C29.5 6 13.5 6 4.00002 10.5C1.66893e-05 13.1667 -6.69998 19.1999 -7.49998 19.9999C-8.49998 20.9999 -0.499981 46.4999 -0.499981 47.4999C-0.499981 48.4999 13.5 60.4999 14.5 60.9999C15.5 61.4999 38.5 56.4999 39.5 55.9999C40.5 55.4999 47 48.4999 47 46.4999C47 44.4999 36 36.9999 32.5 36.9999C29 36.9999 23 36.9999 15.5 37.4999C8.00002 37.9999 7.00002 31.0001 7.00002 29.5C7.00002 27.9999 5.50002 24 12 24.5C18.5 25 23 28.4999 25.5 28.4999C28 28.4999 49.5 28 39.5 17Z" fill="#B7C660"/>
<circle cx="38.4658" cy="23.4658" r="10.4658" fill="#FFB800"/>
<circle cx="44.24" cy="21.3004" r="1.08267" fill="#F2AE00"/>
<circle cx="42.4356" cy="23.1051" r="0.721779" fill="#F2AE00"/>
<circle cx="46.0445" cy="24.5485" r="1.44356" fill="#F2AE00"/>
<path d="M38.5076 16.3507C36.7621 16.3507 36.4177 17.754 35.9813 18.1739C35.545 19.4335 38.642 18.1552 39.9511 18.1552C41.2602 18.1552 42.7839 20.6931 43.6566 20.2733C44.5294 19.8534 43.2746 18.5937 42.8382 17.3341C42.4019 16.0744 45.8928 16.4943 45.4565 15.2347C45.0201 13.9751 41.4702 15.327 41.0338 14.9071C40.5974 14.4872 39.489 12.535 37.7858 13.1027C36.7031 13.4635 40.2531 16.3507 38.5076 16.3507Z" fill="#589A26"/>
<ellipse cx="41.0947" cy="16.267" rx="0.958379" ry="0.721779" transform="rotate(19.3817 41.0947 16.267)" fill="#347900"/>
<circle cx="15.4658" cy="29.6987" r="10.4658" fill="#ECB800"/>
<circle cx="21.0737" cy="25.8874" r="1.08267" transform="rotate(23.1975 21.0737 25.8874)" fill="#DDA002"/>
<circle cx="19.5532" cy="28.5537" r="0.721779" transform="rotate(23.1975 19.5532 28.5537)" fill="#DDA002"/>
<circle cx="16.3147" cy="27.4082" r="1.44356" transform="rotate(23.1975 16.3147 27.4082)" fill="#DDA002"/>
<path d="M12.9642 21.8802C11.2208 21.9669 10.9466 23.3855 10.5316 23.8265C10.1584 25.1063 13.1881 23.6757 14.4956 23.6107C15.8031 23.5457 17.4509 26.0048 18.3017 25.5421C19.1525 25.0794 17.8367 23.8836 17.3383 22.6472C16.8399 21.4108 20.3475 21.6567 19.8491 20.4203C19.3507 19.184 15.8723 20.7105 15.4156 20.3128C14.9589 19.9151 13.7548 18.0204 12.082 18.672C11.0185 19.0862 14.7075 21.7935 12.9642 21.8802Z" fill="#589A26"/>
<ellipse cx="15.4774" cy="22.1871" rx="0.958379" ry="0.721779" transform="rotate(8.87195 15.4774 22.1871)" fill="#347900"/>
<circle cx="32.1412" cy="37.6973" r="7.47557" transform="rotate(6.75294 32.1412 37.6973)" fill="#FFC803"/>
<circle cx="36.4392" cy="35.4648" r="0.773335" transform="rotate(29.9504 36.4392 35.4648)" fill="#F2AF03"/>
<circle cx="35.1368" cy="37.2285" r="0.515557" transform="rotate(29.9504 35.1368 37.2285)" fill="#F2AF03"/>
<circle cx="32.9358" cy="36.1436" r="1.03111" transform="rotate(29.9504 32.9358 36.1436)" fill="#F2AF03"/>
<path d="M31.0234 31.9415C29.7796 31.8565 29.4659 32.8398 29.1345 33.1178C28.7622 33.9942 31.0315 33.2339 31.9644 33.2976C32.8973 33.3613 33.8596 35.2441 34.502 34.9873C35.1443 34.7305 34.3114 33.7718 34.0618 32.853C33.8121 31.9341 36.2794 32.4031 36.0297 31.4842C35.78 30.5654 33.1845 31.3561 32.8939 31.0356C32.6034 30.7152 31.9085 29.27 30.6671 29.5917C29.878 29.7962 32.2673 32.0264 31.0234 31.9415Z" fill="#6FC031"/>
<ellipse cx="32.7804" cy="32.3703" rx="0.684557" ry="0.515557" transform="rotate(15.6249 32.7804 32.3703)" fill="#4B9F0B"/>
</g>
<defs>
<clipPath id="clip0_189_994">
<rect width="54" height="54" rx="27" fill="white"/>
</clipPath>
</defs>
</svg>
