<svg width="54" height="54" viewBox="0 0 54 54" fill="none" xmlns="http://www.w3.org/2000/svg">
<g clip-path="url(#clip0_189_1111)">
<circle cx="27" cy="27" r="27" fill="#4E4E4E"/>
<rect x="-7" y="36" width="63" height="18" fill="#756752"/>
<path d="M7.65288 39.5L19.5311 -4.5H33.2093L47.3146 39.5H7.65288Z" fill="#FFF7D9" stroke="white"/>
<ellipse cx="27.5" cy="40" rx="20.5" ry="4" fill="#FFE37E"/>
<path d="M25.6231 29.7511C25.4605 29.7511 24.8913 29.7511 24.1595 29.873C22.6958 30.0763 22.1673 29.5071 21.2728 29.873C19.118 30.7268 16.2719 30.117 16.2719 30.117C16.1093 30.0763 15.9467 29.9137 15.9467 29.7104C15.9467 29.4665 16.1093 29.2225 16.3939 29.2225L25.3792 26.6204L25.6231 29.7511ZM31.4371 34.5486C31.1525 33.6135 31.7217 33.1663 31.5998 31.662C31.5591 30.9301 31.5998 30.3609 31.5998 30.1983L28.4692 30.2796L30.8679 39.2649C30.8679 39.5088 31.0712 39.6715 31.2745 39.6715C31.5185 39.6715 31.6811 39.4682 31.6811 39.2649C31.6404 39.2242 32.1283 36.7035 31.4371 34.5486ZM34.7711 22.88L34.7304 22.8393L33.1854 21.6602L32.4129 21.0504L31.6404 20.4812C31.5998 20.4812 31.5998 20.4405 31.5591 20.4405C31.3965 20.3592 31.1932 20.3185 30.9899 20.3592C30.6647 20.2779 30.2987 20.1966 29.8922 20.1559V19.0175C30.4207 18.7736 30.8273 18.2857 30.9493 17.6758C30.9899 17.7165 31.0306 17.7165 31.0712 17.7165C31.3152 17.7571 31.5998 17.5945 31.6404 17.3506C31.6811 17.1066 31.5185 16.822 31.2745 16.7814H31.1932L31.4778 15.7649C31.7217 14.6265 30.8273 13.8134 29.6889 13.6101C28.5505 13.3661 27.5747 13.7727 27.3307 14.9111L27.0868 16.822C26.8835 17.7571 27.4121 18.6923 28.2252 19.0175V20.1153C27.4934 20.1966 26.9242 20.3592 26.5989 20.5625C26.3956 20.5625 26.111 20.5218 25.7451 20.4812C25.3792 20.4405 24.9726 20.3999 24.5254 20.3185C24.3221 20.2779 24.0782 20.2372 23.9155 20.1966C23.9562 20.1966 23.9562 20.1966 23.9562 20.2372L23.9155 20.1966C23.9155 20.1966 23.8749 20.1966 23.8749 20.1559L23.6716 19.9526C23.3463 19.6274 23.1024 19.1801 22.8991 18.7736C22.6958 18.367 22.5332 17.9604 22.3705 17.6352C22.1673 17.1066 22.0046 16.7407 21.9233 16.5781C21.9233 16.5374 21.9233 16.4968 21.964 16.4561V16.2121C21.964 16.0495 21.964 15.8869 21.9233 15.7649C21.8827 15.4803 21.842 15.1957 21.7607 14.9111C21.72 14.7078 21.4761 14.5452 21.2728 14.5859C21.0695 14.6265 20.9069 14.8705 20.9475 15.0737C20.9882 15.3177 21.0695 15.6023 21.0695 15.8462V15.8869L20.9882 15.8462C20.8662 15.7649 20.7443 15.7649 20.6223 15.8869C20.5003 16.0089 20.5003 16.1715 20.5816 16.2935L21.0695 16.8627C21.1102 17.0253 21.2321 17.4319 21.3948 18.0011C21.5167 18.367 21.6387 18.7736 21.842 19.2208C22.0046 19.668 22.2079 20.1559 22.4925 20.6438C22.5738 20.7658 22.6551 20.8877 22.7771 21.0097C22.8178 21.0504 22.8178 21.091 22.8584 21.091L22.8991 21.1317L22.9804 21.213C23.0211 21.2537 23.1024 21.2943 23.1024 21.2943L23.143 21.335L23.1837 21.3756H23.2244C23.509 21.5383 23.7529 21.6196 23.9968 21.7009C24.4847 21.8635 24.932 21.9448 25.2979 22.0668C26.0297 22.2294 26.5583 22.3514 26.5583 22.3514H26.6802C26.8429 22.3514 27.0055 22.3108 27.1681 22.2294C27.6154 22.3514 28.1846 22.3921 28.8351 22.3921C29.6076 22.3921 30.2987 22.3108 30.8679 22.1481L31.4371 22.4734L32.2503 22.9206L33.2667 23.4898L31.8437 25.0755L31.1932 25.5634C31.0712 25.6447 31.0306 25.8073 31.0712 25.9293C31.1525 26.0919 31.3152 26.1732 31.4778 26.0919L31.5591 26.0512C31.5591 26.0919 31.5185 26.1326 31.5185 26.2139C31.4778 26.3765 31.4778 26.5391 31.4371 26.6611C31.4371 26.8237 31.3965 26.9864 31.3965 27.1083C31.3558 27.3523 31.5591 27.5556 31.7624 27.5556C32.0064 27.5962 32.2096 27.3929 32.2096 27.1896C32.2096 27.027 32.2503 26.905 32.2503 26.7424C32.2503 26.5798 32.291 26.4578 32.3316 26.2952C32.3723 26.0512 32.4129 25.8073 32.4942 25.5634L34.6897 23.7338L34.7711 23.6525C35.0963 23.4492 35.0557 23.0832 34.7711 22.88Z" fill="#FFD3B6"/>
<path d="M28.4285 18.9766C27.9813 18.8953 27.6153 18.6513 27.2901 18.3667C27.5747 18.7733 28.0219 19.0986 28.5505 19.2205C29.6076 19.4238 30.6647 18.7326 30.8679 17.6756L30.9086 17.5942C30.5833 18.57 29.5262 19.1799 28.4285 18.9766Z" fill="#EDC0A2"/>
<path d="M16.2719 30.076C16.1093 29.9947 15.9467 29.8727 15.9467 29.6695C15.9467 29.4255 16.1093 29.1816 16.3939 29.1816L16.7598 29.1003C16.6785 29.0596 16.5972 29.0189 16.4752 29.0189H16.2719C16.15 29.0189 14.6456 29.1816 14.6456 29.1816C14.4017 29.2222 14.1578 29.4255 14.0358 29.7508C13.9138 30.1574 14.1171 30.5233 14.4424 30.6452C14.4424 30.6452 14.605 30.6859 14.8083 30.7266C14.9302 30.7672 15.7434 30.6859 15.906 30.7266C16.028 30.7672 16.1093 30.7672 16.1093 30.7672H16.1906C16.5159 30.7672 16.8411 30.5639 16.9631 30.2793C16.5565 30.1574 16.2719 30.076 16.2719 30.076ZM32.047 40.4437V40.3624C32.047 40.3624 32.0063 40.281 32.0063 40.1591C31.9657 40.0371 32.0063 39.5899 31.9657 39.4679C31.925 39.224 31.8844 39.102 31.8844 39.102C31.8437 39.0207 31.8031 38.9394 31.7624 38.8987C31.7217 39.1426 31.7217 39.3053 31.7217 39.3053C31.7217 39.5492 31.5591 39.7118 31.3152 39.7118C31.0712 39.7118 30.9086 39.5492 30.9086 39.3053L30.7866 38.858C30.624 38.98 30.502 39.1833 30.502 39.3459C30.502 39.3459 30.4207 40.4437 30.4207 40.5656C30.4207 40.6876 30.4614 40.7689 30.4614 40.7689C30.502 41.2162 30.9493 41.4601 31.3965 41.3788C31.7624 41.2975 32.1283 40.8502 32.047 40.4437ZM32.3316 26.9861C32.3316 27.0674 32.3316 27.1487 32.291 27.23C32.2503 27.474 32.047 27.6366 31.8437 27.5959C31.5998 27.5553 31.4371 27.352 31.4778 27.1487C31.4778 26.9861 31.5185 26.8234 31.5185 26.7015C31.5591 26.5388 31.5591 26.3762 31.5998 26.2542C31.5998 26.2136 31.5998 26.1729 31.6404 26.1323L31.5591 26.0916C31.3965 26.1729 31.2339 26.0916 31.1525 25.929C31.1119 25.807 31.1525 25.685 31.1932 25.6037L31.1119 25.5224C31.0306 25.4004 30.9899 24.9532 30.9899 24.7906C31.0306 24.3433 31.1525 23.7335 31.3558 23.1643C31.3965 23.1236 31.3965 23.0423 31.4371 23.0016V22.961C31.4371 22.9203 31.4778 22.8797 31.4778 22.839C31.4778 22.717 31.5185 22.6357 31.5185 22.5138C31.5185 22.2292 31.3152 21.9039 31.1119 21.7006V20.5215C31.1119 20.3589 30.9899 20.1963 30.7866 20.1963C30.5833 20.1963 30.4614 20.3183 30.4614 20.5215V21.416H27.3307L27.2494 20.5215C27.2494 20.3589 27.0868 20.2369 26.9242 20.2369C26.7615 20.2369 26.6396 20.3996 26.6396 20.5622L26.7209 21.66C26.4769 21.9039 26.233 22.2292 26.233 22.5544C26.233 22.8797 26.3143 23.1236 26.3956 23.3269C26.5583 23.8961 26.6802 24.4653 26.7209 24.8719C26.7209 24.9939 26.7209 25.4411 26.6396 25.5631C26.6396 25.5631 26.6396 25.6037 26.5989 25.6037C23.9968 27.352 20.7849 25.685 20.9475 27.23C21.1102 28.5311 21.8827 28.7343 23.4683 29.5881C25.5825 30.7266 23.4683 33.166 26.1923 33.288C28.9164 33.4099 27.6967 31.1738 29.7295 31.5804C31.8031 32.0276 32.5756 34.1011 34.2018 32.5155C35.4622 31.499 33.6733 28.7343 32.3316 26.9861Z" fill="#FF473E"/>
<path d="M32.9008 19.4239C32.4942 18.0822 32.6162 16.5779 31.7624 14.667C31.7218 14.545 31.6811 14.4637 31.5998 14.3417C31.5998 14.3417 31.5998 14.301 31.5591 14.301C31.5591 14.301 31.5591 14.2604 31.5185 14.2604C31.3152 13.9351 31.0712 13.6505 30.7866 13.4472C30.6647 13.3659 30.2174 13.1626 30.0955 13.122C29.9735 13.0813 29.7295 13.0407 29.7295 13.0407C29.6076 13 29.4449 13 29.323 13C29.201 13 28.6724 13.0813 28.5505 13.122C27.6967 13.4066 26.9648 14.2604 26.8429 14.9109C26.8429 14.9516 26.8022 14.9922 26.8022 15.0329C26.3956 17.7569 27.0868 19.7085 27.0868 19.7085C27.2494 19.8711 27.6967 19.9524 28.1032 19.8711V19.058C27.2494 18.692 26.7616 17.7976 26.9648 16.8625L27.1275 15.7647C27.9 15.7647 29.6889 15.6021 29.8109 14.7889C29.8109 14.7889 30.3394 16.9438 31.2745 16.9438H31.3558C31.4778 17.0657 31.5591 17.2284 31.5185 17.391C31.4778 17.6349 31.1932 17.8382 30.9493 17.7569C30.9086 17.7569 30.8679 17.7163 30.8273 17.7163C30.7053 18.3261 30.2987 18.814 29.7702 19.058V19.8711C31.1525 20.115 33.1854 20.359 32.9008 19.4239Z" fill="#68442A"/>
</g>
<defs>
<clipPath id="clip0_189_1111">
<rect width="54" height="54" rx="27" fill="white"/>
</clipPath>
</defs>
</svg>
