<svg width="34" height="34" viewBox="0 0 34 34" fill="none" xmlns="http://www.w3.org/2000/svg">
<circle cx="16.5" cy="17.5" r="11.5" fill="#FFDADA"/>
<path d="M17.5661 24.5698C17.4165 24.7195 17.2511 24.8284 17.0701 24.8968C16.8895 24.9656 16.6995 25 16.5 25C16.3005 25 16.1105 24.9656 15.9299 24.8968C15.7489 24.8284 15.5835 24.7195 15.4339 24.5698L9.43017 18.5661C9.28055 18.4165 9.17132 18.2511 9.10249 18.0701C9.03416 17.8895 9 17.6995 9 17.5C9 17.3005 9.03416 17.1105 9.10249 16.9299C9.17132 16.7489 9.28055 16.5835 9.43017 16.4339L15.4339 10.4302C15.5835 10.2805 15.7489 10.1713 15.9299 10.1025C16.1105 10.0342 16.3005 10 16.5 10C16.6995 10 16.8895 10.0342 17.0701 10.1025C17.2511 10.1713 17.4165 10.2805 17.5661 10.4302L23.5698 16.4339C23.7195 16.5835 23.8287 16.7489 23.8975 16.9299C23.9658 17.1105 24 17.3005 24 17.5C24 17.6995 23.9658 17.8895 23.8975 18.0701C23.8287 18.2511 23.7195 18.4165 23.5698 18.5661L17.5661 24.5698ZM16.5 18.2481C16.712 18.2481 16.8898 18.1763 17.0334 18.0327C17.1766 17.8895 17.2481 17.712 17.2481 17.5V14.5075C17.2481 14.2955 17.1766 14.1177 17.0334 13.9741C16.8898 13.8309 16.712 13.7594 16.5 13.7594C16.288 13.7594 16.1105 13.8309 15.9673 13.9741C15.8237 14.1177 15.7519 14.2955 15.7519 14.5075V17.5C15.7519 17.712 15.8237 17.8895 15.9673 18.0327C16.1105 18.1763 16.288 18.2481 16.5 18.2481ZM16.5 20.4925C16.712 20.4925 16.8898 20.4207 17.0334 20.2771C17.1766 20.1339 17.2481 19.9564 17.2481 19.7444C17.2481 19.5324 17.1766 19.3546 17.0334 19.211C16.8898 19.0678 16.712 18.9963 16.5 18.9963C16.288 18.9963 16.1105 19.0678 15.9673 19.211C15.8237 19.3546 15.7519 19.5324 15.7519 19.7444C15.7519 19.9564 15.8237 20.1339 15.9673 20.2771C16.1105 20.4207 16.288 20.4925 16.5 20.4925Z" fill="#E84B4B"/>
</svg>
