<svg width="95" height="27" viewBox="0 0 95 27" fill="none" xmlns="http://www.w3.org/2000/svg">
<path d="M38.6951 8.81517L32.7974 13.7954L26.8998 8.81517L26.8998 2.00011L38.6951 2.00011L38.6951 8.81517Z" fill="#00D5A2"/>
<path d="M26.8997 18.641L32.7973 13.7954L38.695 18.641V25.2719H26.8997V18.641Z" fill="#FFDB57"/>
<path d="M5.66149 2.54482V20.0879H14.4682V24.7734H0V2.54482H5.66149ZM22.7553 25.0458H17.0939V2H22.7553V25.0458Z" fill="white"/>
<path d="M56.6238 25.0458V2H61.9298V10.7171L63.3793 10.2267V2H68.7126V25.0458H63.3793V15.3753L61.9298 15.8656V25.0458H56.6238ZM48.1453 20.0879H55.3931V24.7734H42.8394V2H48.1453V20.0879Z" fill="white"/>
<path d="M79.5988 15.1198V16.5245H89.5317V15.1198H95V24.953H74.1304V15.1198H79.5988ZM87.8674 2.26505V6.53229H82.7424C82.7424 6.79734 82.716 7.00938 82.716 7.22141C82.6632 7.45996 82.6367 7.67199 82.6103 7.88403L88.607 10.2429L85.6483 14.0331L80.4441 11.5682C79.6516 12.2573 78.7006 12.7874 77.5911 13.2115C76.4551 13.662 75.1871 13.9801 73.7606 14.1656L71.4094 10.1634C72.3604 10.0044 73.1794 9.84537 73.9191 9.63334C74.6323 9.4478 75.2399 9.20926 75.7418 8.91771C76.2174 8.65266 76.6136 8.33461 76.8778 7.93704C77.1155 7.56597 77.2476 7.08889 77.2741 6.53229H72.4133V2.26505H87.8674ZM95 2V14.1921H89.5317V2H95ZM89.5317 21.4544V20.0232H79.5988V21.4544H89.5317Z" fill="#6765FF"/>
</svg>
