<svg width="19" height="19" viewBox="0 0 19 19" fill="none" xmlns="http://www.w3.org/2000/svg">
<circle cx="9.5" cy="9.5" r="9.5" fill="#F6F6FC"/>
<path fill-rule="evenodd" clip-rule="evenodd" d="M7.93571 4.54286C7.93571 4.24305 7.69267 4 7.39286 4C7.09305 4 6.85 4.24305 6.85 4.54286V4.95H6.44286C5.0937 4.95 4 6.0437 4 7.39286V8.34286V12.1429C4 13.492 5.0937 14.5857 6.44286 14.5857H12.1429C13.492 14.5857 14.5857 13.492 14.5857 12.1429L14.5857 8.34286L14.5857 7.39286C14.5857 6.0437 13.492 4.95 12.1429 4.95H11.7357V4.54286C11.7357 4.24305 11.4927 4 11.1929 4C10.893 4 10.65 4.24305 10.65 4.54286V4.95H7.93571V4.54286ZM6.85 6.03571V6.44286C6.85 6.74267 7.09305 6.98571 7.39286 6.98571C7.69267 6.98571 7.93571 6.74267 7.93571 6.44286V6.03571H10.65V6.44286C10.65 6.74267 10.893 6.98571 11.1929 6.98571C11.4927 6.98571 11.7357 6.74267 11.7357 6.44286V6.03571H12.1429C12.8924 6.03571 13.5 6.64333 13.5 7.39286V7.8H5.08571V7.39286C5.08571 6.64333 5.69333 6.03571 6.44286 6.03571H6.85ZM5.08571 8.88571V12.1429C5.08571 12.8924 5.69333 13.5 6.44286 13.5H12.1429C12.8924 13.5 13.5 12.8924 13.5 12.1429V8.88571H5.08571Z" fill="#9190CF"/>
</svg>
