<svg width="20" height="20" viewBox="0 0 20 20" fill="none" xmlns="http://www.w3.org/2000/svg">
<path d="M11.002 2.38811C10.7267 2.14075 10.3696 2.00391 9.9995 2.00391C9.62938 2.00391 9.27232 2.14075 8.997 2.38811L3.497 7.33011C3.34062 7.47074 3.21556 7.64268 3.12994 7.83477C3.04432 8.02686 3.00005 8.2348 3 8.44511V15.5001C3 15.8979 3.15804 16.2795 3.43934 16.5608C3.72064 16.8421 4.10218 17.0001 4.5 17.0001H9.5C9.533 17.0001 9.566 16.9981 9.598 16.9961C9.07019 15.9608 8.88387 14.7849 9.06576 13.6372C9.24765 12.4894 9.78841 11.4288 10.6105 10.6074C11.4325 9.78601 12.4936 9.24611 13.6415 9.06515C14.7894 8.88419 15.9651 9.07147 17 9.60011V8.44611C17 8.23581 16.9557 8.02786 16.8701 7.83577C16.7844 7.64368 16.6594 7.47174 16.503 7.33111L11.003 2.38911L11.002 2.38811ZM19 14.5001C19 15.6936 18.5259 16.8382 17.682 17.6821C16.8381 18.526 15.6935 19.0001 14.5 19.0001C13.3065 19.0001 12.1619 18.526 11.318 17.6821C10.4741 16.8382 10 15.6936 10 14.5001C10 13.3066 10.4741 12.162 11.318 11.3181C12.1619 10.4742 13.3065 10.0001 14.5 10.0001C15.6935 10.0001 16.8381 10.4742 17.682 11.3181C18.5259 12.162 19 13.3066 19 14.5001ZM15 12.5001C15 12.3675 14.9473 12.2403 14.8536 12.1466C14.7598 12.0528 14.6326 12.0001 14.5 12.0001C14.3674 12.0001 14.2402 12.0528 14.1464 12.1466C14.0527 12.2403 14 12.3675 14 12.5001V14.0001H12.5C12.3674 14.0001 12.2402 14.0528 12.1464 14.1466C12.0527 14.2403 12 14.3675 12 14.5001C12 14.6327 12.0527 14.7599 12.1464 14.8537C12.2402 14.9474 12.3674 15.0001 12.5 15.0001H14V16.5001C14 16.6327 14.0527 16.7599 14.1464 16.8537C14.2402 16.9474 14.3674 17.0001 14.5 17.0001C14.6326 17.0001 14.7598 16.9474 14.8536 16.8537C14.9473 16.7599 15 16.6327 15 16.5001V15.0001H16.5C16.6326 15.0001 16.7598 14.9474 16.8536 14.8537C16.9473 14.7599 17 14.6327 17 14.5001C17 14.3675 16.9473 14.2403 16.8536 14.1466C16.7598 14.0528 16.6326 14.0001 16.5 14.0001H15V12.5001Z" fill="white"/>
</svg>
