<svg width="34" height="34" viewBox="0 0 34 34" fill="none" xmlns="http://www.w3.org/2000/svg">
<circle cx="16.5" cy="17.5" r="11.5" fill="#FDEB5D"/>
<path d="M16.5 11C20.6421 11 24 13.658 24 16.9376C24 20.2166 20.6421 22.8746 16.5 22.8746C16.0876 22.8748 15.6755 22.8481 15.2664 22.7948L12.1179 24.8862C11.76 25.0784 11.6336 25.0574 11.7807 24.5866L12.4179 21.9184C10.3607 20.8593 9 19.024 9 16.9376C9 13.6587 12.3579 11 16.5 11ZM20.7193 16.847L21.7693 15.814C21.8299 15.75 21.8637 15.6648 21.8636 15.576C21.8635 15.4873 21.8295 15.4021 21.7687 15.3384C21.708 15.2746 21.6252 15.2373 21.5379 15.2343C21.4507 15.2312 21.3656 15.2627 21.3007 15.3221L19.9236 16.6758V15.5571C19.9236 15.4663 19.8881 15.3792 19.8248 15.315C19.7616 15.2508 19.6758 15.2147 19.5864 15.2147C19.497 15.2147 19.4113 15.2508 19.348 15.315C19.2848 15.3792 19.2493 15.4663 19.2493 15.5571V17.4121C19.2367 17.465 19.2367 17.5202 19.2493 17.5731V18.617C19.2493 18.7078 19.2848 18.7949 19.348 18.8591C19.4113 18.9233 19.497 18.9594 19.5864 18.9594C19.6758 18.9594 19.7616 18.9233 19.8248 18.8591C19.8881 18.7949 19.9236 18.7078 19.9236 18.617V17.6283L20.2286 17.3286L21.2486 18.8034C21.274 18.8403 21.3064 18.8716 21.3438 18.8958C21.3812 18.9199 21.4229 18.9363 21.4666 18.944C21.5102 18.9518 21.5549 18.9507 21.5982 18.9409C21.6414 18.9311 21.6823 18.9127 21.7186 18.8869C21.7548 18.861 21.7857 18.8281 21.8095 18.7902C21.8332 18.7522 21.8494 18.7098 21.857 18.6655C21.8646 18.6212 21.8636 18.5757 21.8539 18.5318C21.8443 18.4879 21.8262 18.4464 21.8007 18.4095L20.7193 16.8462V16.847ZM18.6064 18.2427H17.5636V15.568C17.5596 15.48 17.5224 15.397 17.4596 15.3362C17.3969 15.2753 17.3135 15.2414 17.2268 15.2414C17.1401 15.2414 17.0567 15.2753 16.9939 15.3362C16.9312 15.397 16.894 15.48 16.89 15.568V18.5851C16.89 18.7737 17.04 18.9275 17.2264 18.9275H18.6064C18.6958 18.9275 18.7816 18.8914 18.8448 18.8272C18.9081 18.763 18.9436 18.6759 18.9436 18.5851C18.9436 18.4943 18.9081 18.4072 18.8448 18.343C18.7816 18.2788 18.6958 18.2427 18.6064 18.2427ZM14.4229 17.4505L14.92 16.2122L15.3757 17.4505H14.4229ZM16.225 17.8045L16.2264 17.7929C16.2263 17.7067 16.1938 17.6237 16.1357 17.5608L15.3886 15.5296C15.3573 15.4328 15.2976 15.348 15.2176 15.2866C15.1375 15.2251 15.041 15.1899 14.9407 15.1857C14.8397 15.1853 14.741 15.2161 14.6577 15.274C14.5744 15.3319 14.5104 15.4142 14.4743 15.51L13.2879 18.4661C13.2711 18.5078 13.2626 18.5523 13.2628 18.5973C13.263 18.6423 13.272 18.6867 13.2891 18.7282C13.3063 18.7697 13.3313 18.8073 13.3628 18.8389C13.3942 18.8706 13.4315 18.8956 13.4725 18.9126C13.5135 18.9296 13.5574 18.9383 13.6017 18.938C13.6459 18.9378 13.6897 18.9287 13.7306 18.9113C13.7714 18.8939 13.8084 18.8685 13.8396 18.8366C13.8707 18.8046 13.8954 18.7667 13.9121 18.7251L14.1479 18.1353H15.6264L15.84 18.7157C15.8545 18.759 15.8775 18.799 15.9075 18.8332C15.9375 18.8674 15.974 18.8952 16.0147 18.9148C16.0555 18.9345 16.0997 18.9456 16.1448 18.9476C16.1898 18.9495 16.2348 18.9423 16.2771 18.9262C16.3194 18.9102 16.358 18.8857 16.3908 18.8543C16.4236 18.8228 16.4498 18.785 16.468 18.743C16.4861 18.701 16.4957 18.6558 16.4963 18.61C16.4969 18.5642 16.4885 18.5187 16.4714 18.4763L16.225 17.8045ZM13.8521 15.5717C13.8521 15.481 13.8167 15.394 13.7536 15.3298C13.6906 15.2656 13.605 15.2294 13.5157 15.2293H11.1979C11.1084 15.2293 11.0227 15.2653 10.9595 15.3295C10.8962 15.3938 10.8607 15.4808 10.8607 15.5717C10.8607 15.6625 10.8962 15.7496 10.9595 15.8138C11.0227 15.878 11.1084 15.9141 11.1979 15.9141H12.0264V18.6243C12.0264 18.7151 12.0619 18.8022 12.1252 18.8664C12.1884 18.9306 12.2742 18.9667 12.3636 18.9667C12.453 18.9667 12.5387 18.9306 12.602 18.8664C12.6652 18.8022 12.7007 18.7151 12.7007 18.6243V15.9141H13.515C13.6044 15.9141 13.6902 15.878 13.7534 15.8138C13.8166 15.7496 13.8521 15.6625 13.8521 15.5717Z" fill="#403731"/>
</svg>
