<svg width="28" height="27" viewBox="0 0 28 27" fill="none" xmlns="http://www.w3.org/2000/svg">
<path d="M8.375 7C7.87772 7 7.40081 7.19239 7.04917 7.53486C6.69754 7.87733 6.5 8.34181 6.5 8.82613V16.1306C6.5 16.615 6.69754 17.0794 7.04917 17.4219C7.40081 17.7644 7.87772 17.9568 8.375 17.9568H10.7188C10.8643 17.9568 11.0078 17.9898 11.138 18.0532C11.2682 18.1165 11.3814 18.2086 11.4688 18.322L13.25 20.6348C13.3373 20.7482 13.4506 20.8402 13.5807 20.9036C13.7109 20.967 13.8545 21 14 21C14.1455 21 14.2891 20.967 14.4193 20.9036C14.5494 20.8402 14.6627 20.7482 14.75 20.6348L16.5312 18.322C16.6186 18.2086 16.7318 18.1165 16.862 18.0532C16.9922 17.9898 17.1357 17.9568 17.2812 17.9568H19.625C20.1223 17.9568 20.5992 17.7644 20.9508 17.4219C21.3025 17.0794 21.5 16.615 21.5 16.1306V8.82613C21.5 8.34181 21.3025 7.87733 20.9508 7.53486C20.5992 7.19239 20.1223 7 19.625 7H8.375ZM14 10.6459C15.56 9.08361 19.4609 11.8173 14 15.3317C8.53906 11.8164 12.44 9.08361 14 10.6459V10.6459Z" fill="white"/>
</svg>
