<svg width="19" height="19" viewBox="0 0 19 19" fill="none" xmlns="http://www.w3.org/2000/svg">
<circle cx="9.5" cy="9.5" r="9.5" fill="#D9D9D9"/>
<path d="M9.78959 3C8.51977 3.0015 7.30239 3.50659 6.4045 4.40449C5.5066 5.30239 5.0015 6.51977 5.00001 7.78958C4.99848 8.82728 5.33744 9.83682 5.96489 10.6633C5.96489 10.6633 6.09551 10.8353 6.11685 10.8601L9.78959 15.1917L13.4641 10.858C13.4832 10.8349 13.6143 10.6633 13.6143 10.6633L13.6147 10.662C14.2419 9.83587 14.5807 8.8268 14.5792 7.78958C14.5777 6.51977 14.0726 5.30239 13.1747 4.40449C12.2768 3.50659 11.0594 3.0015 9.78959 3ZM9.78959 9.53125C9.44512 9.53125 9.10839 9.4291 8.82197 9.23773C8.53555 9.04635 8.31232 8.77434 8.1805 8.45609C8.04868 8.13784 8.01418 7.78765 8.08139 7.4498C8.14859 7.11195 8.31447 6.80162 8.55804 6.55804C8.80162 6.31446 9.11196 6.14859 9.44981 6.08138C9.78766 6.01418 10.1378 6.04867 10.4561 6.18049C10.7743 6.31232 11.0464 6.53555 11.2377 6.82197C11.4291 7.10838 11.5313 7.44511 11.5313 7.78958C11.5307 8.25133 11.347 8.69399 11.0205 9.02049C10.694 9.34699 10.2513 9.53067 9.78959 9.53125Z" fill="black"/>
</svg>
