<svg width="27" height="27" viewBox="0 0 27 27" fill="none" xmlns="http://www.w3.org/2000/svg">
<path fill-rule="evenodd" clip-rule="evenodd" d="M16.9383 21C16.9385 21.5046 16.7479 21.9906 16.4048 22.3605C16.0617 22.7305 15.5915 22.9572 15.0883 22.995L14.9383 23H12.9383C12.4337 23.0002 11.9478 22.8096 11.5778 22.4665C11.2078 22.1234 10.9812 21.6532 10.9433 21.15L10.9383 21H16.9383ZM13.9383 4C15.7533 3.99997 17.4973 4.70489 18.8026 5.96607C20.1078 7.22726 20.8721 8.94609 20.9343 10.76L20.9383 11V14.764L22.7603 18.408C22.8398 18.567 22.8796 18.7429 22.8763 18.9206C22.873 19.0984 22.8266 19.2727 22.7412 19.4286C22.6558 19.5845 22.5338 19.7174 22.3858 19.8158C22.2378 19.9143 22.0681 19.9754 21.8913 19.994L21.7763 20H6.10033C5.92249 20.0001 5.74729 19.957 5.58975 19.8745C5.4322 19.792 5.297 19.6725 5.19574 19.5264C5.09448 19.3802 5.03017 19.2116 5.00833 19.0351C4.98649 18.8586 5.00776 18.6795 5.07033 18.513L5.11633 18.408L6.93833 14.764V11C6.93833 9.14348 7.67582 7.36301 8.98858 6.05025C10.3013 4.7375 12.0818 4 13.9383 4ZM13.9383 6C12.6499 6.00007 11.4112 6.49754 10.4805 7.38866C9.54993 8.27978 8.99924 9.49575 8.94333 10.783L8.93833 11V14.764C8.93834 15.012 8.89222 15.2579 8.80233 15.489L8.72733 15.659L7.55733 18H20.3203L19.1503 15.658C19.0393 15.4363 18.9705 15.1959 18.9473 14.949L18.9383 14.764V11C18.9383 9.67392 18.4115 8.40215 17.4739 7.46447C16.5362 6.52678 15.2644 6 13.9383 6Z" fill="white"/>
</svg>
